<svg width="40" height="40" viewBox="0 0 40 40" fill="none" xmlns="http://www.w3.org/2000/svg">
<g clip-path="url(#clip0_595_104019)">
<path d="M19.5 0C14.1957 0 9.10859 2.10714 5.35786 5.85786C1.60714 9.60859 -0.5 14.6957 -0.5 20C-0.5 25.3043 1.60714 30.3914 5.35786 34.1421C9.10859 37.8929 14.1957 40 19.5 40C24.8043 40 29.8914 37.8929 33.6421 34.1421C37.3929 30.3914 39.5 25.3043 39.5 20C39.5 14.6957 37.3929 9.60859 33.6421 5.85786C29.8914 2.10714 24.8043 0 19.5 0Z" fill="#039BE5"/>
<path d="M22.0759 25.0381H26.9929L27.7649 20.0431H22.0749V17.3131C22.0749 15.2381 22.7529 13.3981 24.6939 13.3981H27.8129V9.03913C27.2649 8.96513 26.1059 8.80313 23.9159 8.80313C19.3429 8.80313 16.6619 11.2181 16.6619 16.7201V20.0431H11.9609V25.0381H16.6619V38.7671C17.5929 38.9071 18.5359 39.0021 19.5039 39.0021C20.3789 39.0021 21.2329 38.9221 22.0759 38.8081V25.0381Z" fill="white"/>
</g>
<defs>
<clipPath id="clip0_595_104019">
<rect width="40" height="40" fill="white"/>
</clipPath>
</defs>
</svg>
