<svg width="142" height="102" viewBox="0 0 142 102" fill="none" xmlns="http://www.w3.org/2000/svg">
<path d="M35.0754 12.099C36.0794 14.3783 35.0454 17.04 32.7661 18.0439C30.4868 19.0479 27.8252 18.014 26.8212 15.7346C25.8173 13.4554 26.8512 10.7937 29.1305 9.78976C31.4099 8.78578 34.0714 9.81967 35.0754 12.099Z" fill="#D4DEFF"/>
<path d="M32.084 17.234L31.7378 16.4479C31.283 16.639 30.7543 16.7046 30.3961 16.63L30.3533 16.0262C30.7158 16.0896 31.1856 16.0592 31.6215 15.8672C32.1741 15.6238 32.4071 15.1401 32.2117 14.6965C32.0232 14.2684 31.6031 14.1375 30.9243 14.1576C29.9932 14.196 29.3452 14.0539 29.0469 13.3768C28.7624 12.7308 29.0056 12.0382 29.6702 11.6061L29.324 10.82L29.8065 10.6074L30.139 11.3624C30.6129 11.1723 30.9868 11.1562 31.2708 11.1891L31.3025 11.7885C31.098 11.7671 30.7035 11.7364 30.2053 11.9558C29.606 12.2198 29.538 12.6772 29.6751 12.9886C29.8534 13.3933 30.2305 13.4688 31.031 13.4508C31.9767 13.4245 32.5597 13.651 32.8648 14.3438C33.1357 14.9586 32.9612 15.7231 32.2178 16.2085L32.5743 17.018L32.084 17.234Z" fill="white"/>
<path d="M17.8983 37.4392L14.0938 33.1664C14.0938 33.1664 15.4931 30.1671 19.6016 30.0606C22.1484 29.9947 24.3979 27.4274 24.3979 27.4274L28.2225 31.7229C28.2225 31.7229 25.7477 35.2432 22.8352 35.2696C19.7549 35.2975 17.8983 37.4392 17.8983 37.4392Z" fill="#D4DEFF"/>
<path d="M23.3383 31.5393C23.7373 32.64 23.0198 33.9095 21.7358 34.3749C20.4518 34.8404 19.0874 34.3255 18.6884 33.2249C18.2894 32.1243 19.0069 30.8548 20.291 30.3893C21.5751 29.9238 22.9394 30.4387 23.3383 31.5393Z" fill="#E3EAFF"/>
<path d="M136.868 42.3051L135.029 36.8876C135.029 36.8876 131.73 36.625 129.61 40.1461C128.296 42.3287 124.953 43.0187 124.953 43.0187L126.802 48.4648C126.802 48.4648 131.086 48.049 132.545 45.5286C134.089 42.8632 136.868 42.3051 136.868 42.3051Z" fill="#D4DEFF"/>
<path d="M129.06 44.1247C129.82 45.0147 131.279 45.017 132.317 44.1298C133.355 43.2426 133.581 41.8018 132.82 40.9118C132.06 40.0217 130.601 40.0194 129.563 40.9067C128.525 41.7939 128.299 43.2346 129.06 44.1247Z" fill="#E3EAFF"/>
<path d="M134.982 101.488H0.667801C0.298949 101.488 0 101.189 0 100.82V100.693C0 100.324 0.299004 100.025 0.667801 100.025H134.982C135.351 100.025 135.65 100.324 135.65 100.693V100.82C135.65 101.189 135.351 101.488 134.982 101.488Z" fill="white"/>
<path d="M84.7578 46.2341C85.47 48.6527 84.0866 51.1905 81.6681 51.9026C79.2496 52.6148 76.7116 51.2314 75.9995 48.8129C75.2875 46.3943 76.6708 43.8565 79.0893 43.1443C81.5079 42.4322 84.0457 43.8156 84.7578 46.2341Z" fill="white"/>
<path d="M81.0988 50.9925L80.8532 50.1584C80.3717 50.2912 79.8324 50.2885 79.4825 50.1671L79.5179 49.5555C79.8736 49.6661 80.3492 49.6966 80.8117 49.5604C81.398 49.3877 81.6947 48.9324 81.5561 48.4617C81.4224 48.0075 81.0176 47.8215 80.3335 47.7537C79.3939 47.6714 78.7618 47.4446 78.5502 46.7262C78.3484 46.0407 78.6825 45.3769 79.4058 45.0294L79.1601 44.1953L79.6722 44.0444L79.9081 44.8456C80.4084 44.7162 80.786 44.7486 81.0668 44.8185L81.0208 45.4244C80.8182 45.3763 80.4261 45.2943 79.8975 45.4499C79.2616 45.6372 79.134 46.0876 79.2313 46.418C79.3577 46.8474 79.7265 46.9721 80.5325 47.0579C81.4853 47.1543 82.0411 47.4573 82.2577 48.1923C82.4497 48.8448 82.1755 49.5896 81.3661 49.9804L81.619 50.8393L81.0988 50.9925Z" fill="#E3EAFF"/>
<path d="M74.5184 57.0196L69.0074 60.9264L51.6772 73.2116L49.8828 74.4837L51.2487 76.4271L58.8267 87.2104L72.0784 77.7973L78.8249 73.0051L78.9043 72.9492L79.5877 64.2331L74.5184 57.0196Z" fill="#3F964F"/>
<path d="M78.5625 67.3362L75.1315 62.4541C73.9485 63.2855 72.3152 63.0004 71.4836 61.8175L55.4181 73.258C56.2497 74.4413 55.9646 76.0749 54.7812 76.9065L58.2125 81.7885C59.3958 80.9573 61.0288 81.2421 61.8605 82.425L77.9259 70.9845C77.0943 69.8013 77.3792 68.1679 78.5625 67.3362Z" fill="#4EAD60"/>
<path d="M70.9507 69.2877C69.5704 67.3235 66.859 66.8502 64.8948 68.2306C62.9305 69.611 62.4573 72.3224 63.8377 74.2866C65.2181 76.2508 67.9295 76.7241 69.8937 75.3437C71.858 73.9633 72.3312 71.2519 70.9507 69.2877Z" fill="#3F964F"/>
<path d="M79.5859 64.2355L74.6797 68.9271L78.823 73.0075L78.8927 73.0763L78.9025 72.9516L79.5859 64.2355Z" fill="#3F964F"/>
<path opacity="0.2" d="M77.0922 74.2282L74.6797 68.9313L78.823 73.0117L77.0922 74.2282Z" fill="#193F1E"/>
<path opacity="0.2" d="M79.5859 64.2428L74.6797 68.9344L79.2496 63.7643L79.5859 64.2428Z" fill="#193F1E"/>
<path opacity="0.2" d="M69.0088 60.9311L51.6785 73.2163L51.25 76.4319L58.8281 87.2152L72.0797 77.8021L71.403 75.2381C71.1473 74.2693 69.4301 73.8412 67.2552 74.0868L69.0088 60.9311Z" fill="#193F1E"/>
<path d="M53.6418 52.0712L48.8438 88.0733L64.2614 90.1281L69.0595 54.126L53.6418 52.0712Z" fill="#3F964F"/>
<path d="M63.9594 56.0868L58.0445 55.2984C57.8535 56.7318 56.5365 57.7389 55.1032 57.5481L51.6875 83.1693C53.1211 83.3604 54.1285 84.6776 53.9374 86.1112L59.8523 86.8993C60.0436 85.4661 61.3603 84.4588 62.7936 84.6497L66.2093 59.0285C64.7758 58.8374 63.7683 57.5204 63.9594 56.0868Z" fill="#4EAD60"/>
<path d="M59.8124 66.9472C57.4327 66.63 55.2465 68.3021 54.9292 70.6817C54.6121 73.0615 56.284 75.2478 58.6638 75.565C61.0435 75.8822 63.2298 74.2101 63.547 71.8305C63.8642 69.4507 62.1922 67.2644 59.8124 66.9472Z" fill="#3F964F"/>
<path d="M64.487 75.3365L49.6719 79.2466L53.6413 94.2868L68.4564 90.3767L65.6629 79.7923C68.6227 78.9996 70.7543 77.3748 70.4313 76.151C70.1082 74.9272 67.4524 74.5656 64.487 75.3368V75.3365Z" fill="#3F964F"/>
<path d="M53.7538 80.5471L56.5469 91.1294L73.2001 86.734L70.407 76.1517L53.7538 80.5471Z" fill="#4EAD60"/>
<path d="M61.5257 80.1419C59.4523 80.6892 58.2151 82.8136 58.7623 84.887C59.3096 86.9604 61.434 88.1976 63.5075 87.6503C65.5809 87.1031 66.8181 84.9787 66.2708 82.9053C65.7236 80.8318 63.5991 79.5946 61.5257 80.1419Z" fill="#3F964F"/>
<path opacity="0.2" d="M64.4863 75.3366L62.9688 75.737L66.9382 90.7771L73.812 88.9629L70.4306 76.151C70.1076 74.9272 67.4518 74.5656 64.4863 75.3368L64.4863 75.3366Z" fill="#193F1E"/>
<path d="M70.4324 76.1458C70.7554 77.3696 68.6239 78.9947 65.6641 79.7871L69.6337 94.8276L69.6341 94.8272C72.5936 94.0346 74.7249 92.4097 74.4019 91.1858L70.4324 76.1458Z" fill="#3F964F"/>
<path d="M71.1457 78.8638C71.2885 79.405 70.9235 80.0104 70.254 80.4807C70.4524 81.316 69.9905 82.15 69.2069 82.3568L69.2031 82.3578L71.2101 89.9621L71.2138 89.961C71.9335 89.7711 72.6781 90.1752 72.9806 90.8807C73.6599 90.4089 74.0316 89.7983 73.8876 89.2528L71.1457 78.8638Z" fill="#4EAD60"/>
<path d="M52.8081 99.989L31.0123 100.003C27.5745 100.005 24.7859 97.2198 24.7838 93.782L24.75 40.445C24.7478 37.0072 27.5329 34.2186 30.9707 34.2164L52.7665 34.2026C56.2042 34.2004 58.9929 36.9855 58.995 40.4233L59.0288 93.7604C59.031 97.1982 56.2458 99.9868 52.8081 99.989Z" fill="#2C2858"/>
<path d="M53.0357 98.9214L30.7894 98.9355C28.372 98.937 26.4111 96.9785 26.4095 94.561L26.375 40.0557C26.3735 37.6383 28.332 35.6772 30.7494 35.6758L52.9957 35.6617C55.4132 35.6602 57.3741 37.6187 57.3756 40.0361L57.4101 94.5415C57.4117 96.9589 55.4531 98.9199 53.0357 98.9214Z" fill="white"/>
<path d="M24.5493 51.656C24.013 51.656 23.5781 51.2212 23.5781 50.6848V45.6493C23.5781 45.1129 24.013 44.6781 24.5493 44.6781C25.0857 44.6781 25.5205 45.1129 25.5205 45.6493V50.6848C25.5205 51.2212 25.0857 51.656 24.5493 51.656Z" fill="#2C2858"/>
<path d="M59.1822 51.656C58.6458 51.656 58.2109 51.2212 58.2109 50.6848V45.6493C58.2109 45.1129 58.6458 44.6781 59.1822 44.6781C59.7185 44.6781 60.1534 45.1129 60.1534 45.6493V50.6848C60.1534 51.2212 59.7185 51.656 59.1822 51.656Z" fill="#2C2858"/>
<path d="M111.792 99.989L89.9966 100.003C86.5589 100.005 83.7703 97.2198 83.7681 93.782L83.7344 40.445C83.7322 37.0072 86.5173 34.2186 89.9551 34.2164L111.751 34.2026C115.189 34.2004 117.977 36.9855 117.979 40.4233L118.013 93.7604C118.015 97.1982 115.23 99.9868 111.792 99.989Z" fill="#2C2858"/>
<path d="M112.02 98.9214L89.7738 98.9355C87.3563 98.937 85.3954 96.9785 85.3939 94.561L85.3594 40.0557C85.3579 37.6383 87.3163 35.6772 89.7338 35.6758L111.98 35.6617C114.397 35.6602 116.358 37.6187 116.36 40.0361L116.394 94.5415C116.396 96.9589 114.437 98.9199 112.02 98.9214Z" fill="white"/>
<path d="M83.5337 51.656C82.9973 51.656 82.5625 51.2212 82.5625 50.6848V45.6493C82.5625 45.1129 82.9973 44.6781 83.5337 44.6781C84.0701 44.6781 84.5049 45.1129 84.5049 45.6493V50.6848C84.5049 51.2212 84.0701 51.656 83.5337 51.656Z" fill="#2C2858"/>
<path d="M118.167 51.656C117.63 51.656 117.195 51.2212 117.195 50.6848V45.6493C117.195 45.1129 117.63 44.6781 118.167 44.6781C118.703 44.6781 119.138 45.1129 119.138 45.6493V50.6848C119.138 51.2212 118.703 51.656 118.167 51.656Z" fill="#2C2858"/>
<path d="M83.5337 59.103C82.9973 59.103 82.5625 58.6681 82.5625 58.1318V53.0962C82.5625 52.5598 82.9973 52.1251 83.5337 52.1251C84.0701 52.1251 84.5049 52.5599 84.5049 53.0962V58.1318C84.5049 58.6681 84.0701 59.103 83.5337 59.103Z" fill="#2C2858"/>
<path d="M14.5335 96.5977C13.8011 99.6729 11.1835 97.9815 11.7309 99.9251C11.7713 100.068 11.9075 100.164 12.0562 100.17L13.5932 100.229C13.7415 100.234 13.8877 100.192 14.0102 100.108C14.8211 99.5529 15.3713 98.7709 17.1227 98.676C17.1093 97.9283 17.1434 96.8606 16.8963 96.4789L14.5335 96.5977Z" fill="#0E6A41"/>
<path d="M18.5843 75.0176C18.5843 75.0176 14.1141 81.8356 13.4969 83.9563C12.8798 86.077 14.1708 89.6705 13.9372 96.9127C15.3344 97.2754 17.1973 96.9636 17.1973 96.9636C17.1973 96.9636 18.3185 87.8796 16.9997 85.7346C18.9757 82.7193 23.9391 76.1367 23.9391 76.1367L18.5843 75.0176Z" fill="#201D40"/>
<path d="M21.0614 97.5962C19.9239 99.1444 17.0848 98.2288 17.1986 100.307C21.502 100.238 23.2908 100.248 23.2908 100.248C23.2805 99.7704 23.1844 98.6378 23.0808 98.195L21.0614 97.5962Z" fill="#0E6A41"/>
<path d="M19.7316 73.6411C19.7316 73.6411 18.3062 84.7644 18.6353 86.9485C18.9643 89.1325 19.9838 90.842 20.0196 98.0879C21.4293 98.3984 23.5836 98.6775 23.5836 98.6775C23.5836 98.6775 24.4919 89.9382 22.6235 87.5318C23.1531 83.9659 25.6765 74.9965 25.6765 74.9965L19.7316 73.6411Z" fill="#2C2858"/>
<path d="M12.4289 68.7459L10.6911 66.7972C10.6532 66.7551 10.5997 66.7307 10.5431 66.7297L9.11218 66.7212C9.07141 66.7205 8.94523 66.9467 8.9726 66.977L10.1984 68.0663C10.204 68.0725 10.2112 68.0771 10.2194 68.0795L12.3215 68.8594C12.3666 68.8732 12.4604 68.7809 12.4289 68.7459Z" fill="#C4204A"/>
<path d="M12.295 68.8765L10.6394 67.0393C10.6016 66.9973 10.548 66.9729 10.4913 66.9719L9.01622 66.9454C8.97545 66.9447 8.95351 66.993 8.98093 67.0232L10.1466 68.3084C10.1524 68.3147 10.1596 68.3192 10.1676 68.3217L12.2469 68.9522C12.292 68.9659 12.3266 68.9116 12.295 68.8765Z" fill="#E62552"/>
<path d="M15.5644 70.5484L14.3671 69.9615C14.3671 69.9615 13.1861 68.7662 13.0107 68.4991C12.7479 68.3662 12.2509 68.0314 12.1392 68.0187C12.0274 68.0059 11.7985 68.0404 11.7985 68.0404L12.3529 68.671C12.3529 68.671 12.0895 68.7233 11.7536 68.5099C11.4177 68.2965 10.8243 67.7243 10.5337 67.8353C10.4307 67.9264 10.4307 67.9264 10.4307 67.9264C10.4307 67.9264 10.2471 67.7305 10.0742 67.8033C9.90111 67.8762 10.2452 68.7389 11.2215 69.6534C11.2862 69.8976 11.6079 70.3255 11.6079 70.3255L13.582 71.0189L15.5644 70.5484Z" fill="#F37A50"/>
<path d="M10.367 67.318C10.4372 67.3881 10.538 67.401 10.5922 67.3467C10.6464 67.2925 10.6335 67.1916 10.5634 67.1216C10.4933 67.0514 10.3925 67.0385 10.3382 67.0928C10.284 67.147 10.2969 67.2477 10.367 67.318Z" fill="#C4204A"/>
<path d="M21.1406 61.7448C20.7854 62.2053 23.568 62.706 23.941 61.7491C24.314 60.7922 23.6734 58.1602 23.6734 58.1602L21.1364 58.6987C21.1364 58.6987 21.603 61.1455 21.1406 61.7448Z" fill="#F37A50"/>
<path d="M24.2297 56.0162C24.4432 58.0518 23.3204 59.838 21.7216 60.0058C20.1229 60.1735 18.6538 58.6593 18.4401 56.6238C18.2265 54.5883 19.3494 52.8021 20.9481 52.6343C22.5469 52.4666 24.0161 53.9807 24.2297 56.0162Z" fill="#F37A50"/>
<path d="M19.3851 57.218C19.3286 57.3755 19.1551 57.4573 18.9976 57.4008C18.8401 57.3443 18.7582 57.1708 18.8148 57.0132C18.8713 56.8557 19.0448 56.7739 19.2024 56.8304C19.3598 56.8869 19.4417 57.0605 19.3851 57.218Z" fill="black"/>
<path d="M21.379 56.7857C21.3178 56.9562 21.1299 57.0449 20.9594 56.9836C20.7889 56.9225 20.7004 56.7346 20.7616 56.5641C20.8228 56.3937 21.0106 56.3051 21.1811 56.3662C21.3516 56.4274 21.4402 56.6153 21.379 56.7857Z" fill="black"/>
<path d="M19.966 57.1609C19.9018 57.6379 19.8125 58.225 19.8125 58.225C19.8125 58.225 20.126 58.5556 20.6459 58.327C20.3859 58.3355 20.1027 58.2861 20.0599 57.9539C20.0171 57.6215 19.966 57.1609 19.966 57.1609Z" fill="#DE623C"/>
<path d="M19.3024 56.533C19.2683 56.5534 19.2248 56.5559 19.1874 56.5358C19.1837 56.5339 19.0574 56.4694 18.9392 56.5145C18.8558 56.5463 18.789 56.6283 18.7409 56.7579C18.7185 56.8181 18.6516 56.8488 18.5914 56.8264C18.5312 56.8041 18.5006 56.7372 18.5229 56.677C18.596 56.4804 18.7092 56.3522 18.8594 56.2962C19.0794 56.2141 19.2895 56.3266 19.2983 56.3315C19.3546 56.3622 19.3753 56.4328 19.3445 56.4892C19.3343 56.5079 19.3195 56.5227 19.3024 56.533Z" fill="#020205"/>
<path d="M20.8034 56.1973C20.8423 56.2053 20.8842 56.1933 20.9129 56.1619C20.9158 56.1589 21.0137 56.0566 21.1403 56.0602C21.2294 56.0628 21.3195 56.1182 21.4076 56.2248C21.4486 56.2744 21.5218 56.2812 21.5713 56.2403C21.6208 56.1994 21.6277 56.126 21.5868 56.0767C21.4531 55.9151 21.304 55.8313 21.1437 55.8278C20.909 55.8227 20.7477 55.998 20.7409 56.0055C20.6979 56.0531 20.7016 56.1267 20.7492 56.1697C20.7651 56.1841 20.7839 56.1932 20.8034 56.1973Z" fill="#020205"/>
<path d="M23.6392 57.3089C22.586 56.4272 22.8768 55.08 22.8768 55.08C22.3661 55.1135 22.2229 55.3318 22.2229 55.3318C21.8123 54.8602 21.9122 54.4161 21.9122 54.4161C20.8053 54.2956 20.4813 55.0785 19.6364 55.5405C18.4794 56.1732 16.8179 56.0913 16.2677 54.6191C16.1881 54.4059 16.3905 54.1996 16.6059 54.2725C16.8058 54.3403 17.0554 54.3713 17.3331 54.2881C17.3331 54.2881 16.9951 54.0654 16.8728 53.6644C16.8053 53.4431 17.0344 53.2523 17.2445 53.3489C17.5595 53.4937 18.0914 53.5674 18.8995 53.1788C19.4373 52.9202 20.4896 51.6636 21.3451 51.6231C22.0445 51.5901 22.7197 52.011 23.1619 52.7547C23.1619 52.7547 24.8304 52.4856 25.4743 54.2281C26.1069 55.9399 23.7355 58.5845 23.7355 58.5845C23.7355 58.5845 23.9176 57.5799 23.6392 57.3089Z" fill="#020205"/>
<path d="M20.0959 59.1013C20.03 59.0587 20.0463 58.9584 20.1226 58.9398C20.3165 58.8923 20.6348 58.8075 20.9278 58.6977C21.2208 58.5879 21.5164 58.4426 21.6937 58.3508C21.7635 58.3147 21.8418 58.3795 21.8201 58.455C21.7536 58.6872 21.5785 59.0674 21.1295 59.2356C20.6804 59.4039 20.2987 59.2326 20.0959 59.1013Z" fill="white"/>
<path d="M22.8902 56.1062C22.5476 56.4443 22.4941 56.9455 22.7707 57.2259C23.0474 57.5063 23.5493 57.4596 23.892 57.1215C24.2346 56.7835 24.2881 56.2822 24.0114 56.0017C23.7348 55.7215 23.2329 55.7682 22.8902 56.1062Z" fill="#F37A50"/>
<path d="M23.2168 57.0876C23.2019 57.0823 23.188 57.0735 23.1763 57.0613C23.0087 56.8856 22.9695 56.6708 23.0715 56.4863C23.176 56.2975 23.3986 56.1905 23.6009 56.2318C23.6579 56.2435 23.6946 56.2991 23.6829 56.356C23.6713 56.4129 23.6157 56.4497 23.5587 56.4381C23.4479 56.4155 23.3148 56.4813 23.2557 56.5882C23.1989 56.6908 23.2248 56.8073 23.3285 56.916C23.3686 56.958 23.3671 57.0247 23.325 57.0648C23.2953 57.0932 23.2531 57.1007 23.2168 57.0876Z" fill="#DE623C"/>
<path d="M18.0547 75.8376C20.0393 76.2426 23.6076 76.9418 25.4947 76.206C26.2089 75.1807 26.3899 69.3827 26.3899 69.3827C26.5964 63.4149 25.8808 62.5293 24.2667 60.5298C23.5895 60.841 21.8942 61.1062 21.1489 61.1121C21.1489 61.1121 19.4601 63.4567 19.1306 65.1594C18.7965 66.8858 18.7587 69.9553 18.7277 71.7135C18.6932 73.666 18.3074 74.6076 18.0547 75.8376Z" fill="#3F964F"/>
<path d="M24.5002 62.3431C25.6611 64.6029 25.3982 67.1056 22.0228 72.0325C19.6589 71.8263 19.1953 69.856 19.1953 69.856C19.1953 69.856 19.8448 67.4099 20.6885 64.3328C21.5322 61.2557 23.9922 61.3541 24.5002 62.3431Z" fill="#0E6A41"/>
<path d="M14.1715 69.384L19.2329 69.7879C19.2329 69.7879 21.4035 69.392 22.014 72.0322C20.9275 72.878 18.1232 73.1953 13.5234 71.4876C14.0101 70.825 14.1715 69.384 14.1715 69.384Z" fill="#0E6A41"/>
<path d="M21.1575 60.9431L21.1094 62.3044L24.5337 60.8687L24.1191 59.7675L21.1575 60.9431Z" fill="white"/>
<path d="M46.7194 27.96C45.6004 30.5157 42.6214 31.6803 40.0658 30.5612C37.5101 29.4422 36.3454 26.4632 37.4645 23.9075C38.5836 21.3519 41.5625 20.1872 44.1182 21.3063C46.6738 22.4253 47.8385 25.4043 46.7194 27.96Z" fill="#FABA23"/>
<path d="M45.8898 27.5924C44.8926 29.9335 41.9142 30.8076 39.8051 29.393C38.464 28.5192 37.7353 26.8912 37.9866 25.2959C38.3788 22.6056 41.3283 21.0295 43.7531 22.127C45.8167 23.0104 46.8233 25.5001 45.8898 27.5924Z" fill="#FAD332"/>
<path d="M41.8047 29.4204L41.8023 28.5614C41.3089 28.5543 40.7983 28.4027 40.5 28.1909L40.7025 27.6204C41.0093 27.8237 41.452 27.9841 41.9282 27.9827C42.532 27.981 42.9393 27.6312 42.938 27.1464C42.9366 26.6787 42.6042 26.3904 41.9741 26.1371C41.1057 25.7993 40.5687 25.4096 40.5667 24.6697C40.5647 23.9638 41.065 23.4266 41.8471 23.2969L41.8447 22.4379L42.372 22.4364L42.3743 23.2613C42.8846 23.2769 43.2337 23.4121 43.4807 23.5559L43.2697 24.1178C43.0908 24.0162 42.7416 23.8301 42.1973 23.8317C41.5425 23.8335 41.2969 24.2254 41.2979 24.5655C41.2991 25.0078 41.6144 25.2281 42.3552 25.5321C43.2321 25.8869 43.6756 26.3279 43.6778 27.0848C43.6796 27.7567 43.2137 28.3873 42.3381 28.5344L42.3406 29.4188L41.8047 29.4204Z" fill="#FABA23"/>
<path d="M55.7741 13.3014C54.655 15.8571 51.6761 17.0217 49.1204 15.9027C46.5647 14.7836 45.4001 11.8047 46.5192 9.24897C47.6382 6.69326 50.6172 5.52871 53.1729 6.64773C55.7285 7.7668 56.8931 10.7458 55.7741 13.3014Z" fill="#FABA23"/>
<path d="M54.9445 12.9407C53.9473 15.2818 50.9688 16.1559 48.8598 14.7413C47.5187 13.8675 46.79 12.2395 47.0413 10.6442C47.4335 7.95386 50.383 6.3778 52.8078 7.47533C54.8714 8.35866 55.8779 10.8484 54.9445 12.9407Z" fill="#FAD332"/>
<path d="M50.8672 14.7656L50.8648 13.9067C50.3715 13.8995 49.8608 13.7479 49.5625 13.5361L49.765 12.9657C50.0718 13.169 50.5145 13.3293 50.9907 13.328C51.5946 13.3263 52.0018 12.9765 52.0005 12.4917C51.9991 12.0239 51.6667 11.7357 51.0366 11.4823C50.1682 11.1446 49.6312 10.7549 49.6292 10.015C49.6272 9.3091 50.1275 8.77186 50.9095 8.64213L50.9071 7.78312L51.4344 7.78168L51.4367 8.60668C51.9471 8.62225 52.2961 8.75735 52.5432 8.9012L52.3321 9.46309C52.1533 9.36156 51.804 9.17544 51.2598 9.17699C50.6049 9.17882 50.3593 9.57072 50.3603 9.91088C50.3616 10.3531 50.6768 10.5734 51.4176 10.8775C52.2946 11.2322 52.738 11.6732 52.7402 12.4301C52.7421 13.1019 52.2761 13.7326 51.4005 13.8796L51.403 14.7641L50.8672 14.7656Z" fill="#FABA23"/>
<path d="M94.3366 13.3014C93.2176 15.8571 90.2387 17.0217 87.683 15.9027C85.1272 14.7836 83.9626 11.8047 85.0817 9.24897C86.2007 6.69326 89.1797 5.52871 91.7354 6.64773C94.291 7.7668 95.4556 10.7458 94.3366 13.3014Z" fill="#FABA23"/>
<path d="M93.507 12.9407C92.5098 15.2818 89.5314 16.1559 87.4223 14.7413C86.0812 13.8675 85.3525 12.2395 85.6038 10.6442C85.996 7.95386 88.9455 6.3778 91.3703 7.47533C93.4339 8.35866 94.4404 10.8484 93.507 12.9407Z" fill="#FAD332"/>
<path d="M89.4219 14.7656L89.4195 13.9067C88.9262 13.8995 88.4154 13.7479 88.1172 13.5361L88.3196 12.9657C88.6264 13.169 89.0691 13.3293 89.5454 13.328C90.1492 13.3263 90.5564 12.9765 90.5551 12.4917C90.5539 12.0239 90.2213 11.7357 89.5913 11.4823C88.7228 11.1446 88.186 10.7549 88.1838 10.015C88.1819 9.3091 88.6821 8.77186 89.4642 8.64213L89.4618 7.78312L89.9891 7.78168L89.9914 8.60668C90.5017 8.62225 90.8508 8.75735 91.0978 8.9012L90.8868 9.46309C90.7079 9.36156 90.3587 9.17544 89.8144 9.17699C89.1595 9.17882 88.914 9.57072 88.9149 9.91088C88.9162 10.3531 89.2315 10.5734 89.9723 10.8775C90.8493 11.2322 91.2928 11.6732 91.2949 12.4301C91.2968 13.1019 90.8308 13.7326 89.9552 13.8796L89.9576 14.7641L89.4219 14.7656Z" fill="#FABA23"/>
<path d="M104.633 27.96C103.514 30.5157 100.535 31.6803 97.9798 30.5612C95.4241 29.4422 94.2595 26.4632 95.3786 23.9075C96.4976 21.3519 99.4766 20.1872 102.032 21.3063C104.588 22.4253 105.752 25.4043 104.633 27.96Z" fill="#FABA23"/>
<path d="M103.804 27.5924C102.807 29.9335 99.8283 30.8076 97.7192 29.393C96.378 28.5192 95.6494 26.8912 95.9007 25.2959C96.2929 22.6056 99.2424 21.0295 101.667 22.127C103.731 23.0104 104.737 25.5001 103.804 27.5924Z" fill="#FAD332"/>
<path d="M99.7266 29.4204L99.7242 28.5614C99.2309 28.5543 98.7202 28.4027 98.4219 28.1909L98.6244 27.6204C98.9311 27.8237 99.3738 27.9841 99.8501 27.9827C100.454 27.981 100.861 27.6312 100.86 27.1464C100.858 26.6787 100.526 26.3904 99.896 26.1371C99.0275 25.7993 98.4906 25.4096 98.4885 24.6697C98.4866 23.9638 98.9868 23.4266 99.7689 23.2969L99.7665 22.4379L100.294 22.4364L100.296 23.2613C100.806 23.2769 101.156 23.4121 101.403 23.5559L101.192 24.1178C101.013 24.0162 100.663 23.8301 100.119 23.8317C99.4643 23.8335 99.2187 24.2254 99.2197 24.5655C99.221 25.0078 99.5362 25.2281 100.277 25.5321C101.154 25.8869 101.598 26.3279 101.6 27.0848C101.602 27.7567 101.136 28.3873 100.26 28.5344L100.262 29.4188L99.7266 29.4204Z" fill="#FABA23"/>
<path d="M76.5553 7.07908C75.4364 9.63474 72.4574 10.7994 69.9017 9.68032C67.346 8.56125 66.1814 5.58234 67.3004 3.02668C68.4195 0.470969 71.3984 -0.693585 73.9541 0.425437C76.5098 1.54451 77.6744 4.52342 76.5553 7.07908Z" fill="#FABA23"/>
<path d="M75.7257 6.71847C74.7286 9.05949 71.7501 9.93362 69.6411 8.51903C68.2999 7.64517 67.5713 6.01716 67.8226 4.42193C68.2147 1.73162 71.1642 0.155504 73.5891 1.25303C75.6526 2.13636 76.6591 4.62611 75.7257 6.71847Z" fill="#FAD332"/>
<path d="M71.6406 8.54357L71.6382 7.68461C71.1449 7.67746 70.6342 7.52586 70.3359 7.3141L70.5384 6.74367C70.8452 6.94696 71.2879 7.10732 71.7642 7.10593C72.368 7.10427 72.7752 6.75442 72.7739 6.26963C72.7726 5.8019 72.44 5.51365 71.81 5.26029C70.9415 4.92251 70.4046 4.53283 70.4026 3.79285C70.4006 3.08699 70.9009 2.54981 71.683 2.42002L71.6805 1.56107L72.2078 1.55957L72.2102 2.38452C72.7205 2.40014 73.0696 2.53518 73.3166 2.67909L73.1056 3.24098C72.9267 3.13945 72.5775 2.95333 72.0332 2.95489C71.3783 2.95671 71.1328 3.34861 71.1337 3.68882C71.135 4.13107 71.4503 4.35131 72.1911 4.65541C73.068 5.01014 73.5115 5.45111 73.5136 6.20804C73.5156 6.87988 73.0496 7.51063 72.174 7.65763L72.1765 8.54213L71.6406 8.54357Z" fill="#FABA23"/>
<path d="M91.9557 33.831C91.711 33.831 91.5126 33.6326 91.5126 33.3879C91.5126 33.027 91.5032 32.662 91.485 32.303C91.4724 32.0586 91.6605 31.8503 91.9049 31.8379C92.1489 31.826 92.3576 32.0134 92.37 32.2579C92.3891 32.6318 92.3988 33.0121 92.3988 33.388C92.3988 33.6326 92.2004 33.831 91.9557 33.831Z" fill="#95A6DB"/>
<path d="M91.693 30.4902C91.4785 30.4902 91.29 30.3341 91.2558 30.1155C91.143 29.3949 90.9906 28.6724 90.8028 27.9681C90.7398 27.7316 90.8803 27.4889 91.1169 27.4258C91.3536 27.3627 91.5962 27.5034 91.6592 27.7398C91.8549 28.474 92.0138 29.2272 92.1313 29.9784C92.1692 30.2203 92.0039 30.4469 91.7621 30.4848C91.7389 30.4884 91.7158 30.4902 91.693 30.4902ZM49.3969 30.4715C49.374 30.4715 49.3508 30.4698 49.3274 30.466C49.0856 30.4279 48.9205 30.2011 48.9586 29.9593C49.077 29.2078 49.2365 28.4548 49.4328 27.7211C49.4961 27.4847 49.739 27.3443 49.9755 27.4076C50.2119 27.4709 50.3522 27.7138 50.289 27.9502C50.1006 28.6539 49.9476 29.3763 49.8341 30.0971C49.7997 30.3156 49.6113 30.4715 49.3969 30.4715ZM90.5397 26.164C90.3615 26.164 90.1935 26.0558 90.1259 25.8794C89.8647 25.1986 89.5642 24.5238 89.2327 23.8737C89.1215 23.6557 89.2082 23.3889 89.4262 23.2777C89.6442 23.1664 89.911 23.2531 90.0223 23.471C90.3679 24.1487 90.6812 24.8522 90.9534 25.5621C91.041 25.7906 90.9269 26.0468 90.6984 26.1344C90.6462 26.1545 90.5924 26.164 90.5397 26.164ZM50.5537 26.1473C50.5008 26.1473 50.4471 26.1378 50.3948 26.1178C50.1663 26.0299 50.0523 25.7735 50.1401 25.5451C50.4126 24.8365 50.7261 24.1338 51.072 23.4567C51.1833 23.2387 51.4503 23.1522 51.6682 23.2637C51.8862 23.375 51.9726 23.642 51.8613 23.8599C51.5294 24.5094 51.2287 25.1834 50.9674 25.8631C50.8997 26.0393 50.7318 26.1473 50.5537 26.1473ZM88.5061 22.1745C88.3611 22.1745 88.219 22.1035 88.1341 21.9729C87.7369 21.3619 87.3025 20.7644 86.8429 20.197C86.6889 20.0069 86.7182 19.7278 86.9084 19.5738C87.0985 19.4197 87.3776 19.449 87.5316 19.6392C88.0106 20.2305 88.4632 20.8531 88.8772 21.4898C89.0105 21.695 88.9523 21.9695 88.7472 22.1029C88.6726 22.1513 88.5889 22.1745 88.5061 22.1745ZM52.5889 22.1622C52.506 22.1622 52.4222 22.1391 52.3476 22.0904C52.1424 21.957 52.0844 21.6824 52.218 21.4773C52.6323 20.8409 53.0853 20.2189 53.5643 19.6283C53.7184 19.4382 53.9974 19.4091 54.1876 19.5633C54.3777 19.7175 54.4067 19.9965 54.2526 20.1866C53.7929 20.7533 53.3582 21.3503 52.9607 21.9609C52.8758 22.0913 52.7338 22.1622 52.5889 22.1622ZM85.6874 18.6953C85.5739 18.6953 85.4605 18.652 85.3739 18.5653C84.8583 18.0494 84.3098 17.5548 83.7436 17.0953C83.5535 16.9411 83.5245 16.662 83.6787 16.472C83.8329 16.282 84.1119 16.2528 84.302 16.4072C84.892 16.8859 85.4636 17.4012 86.0009 17.9389C86.1739 18.1121 86.1738 18.3926 86.0007 18.5656C85.9141 18.652 85.8008 18.6953 85.6874 18.6953ZM55.4091 18.6857C55.2957 18.6857 55.1822 18.6424 55.0956 18.5559C54.9226 18.3828 54.9227 18.1022 55.0958 17.9292C55.6335 17.3917 56.2055 16.8767 56.7958 16.3983C56.986 16.2443 57.265 16.2735 57.4191 16.4636C57.5731 16.6538 57.544 16.9328 57.3538 17.0869C56.7872 17.546 56.2383 18.0403 55.7223 18.556C55.6358 18.6425 55.5224 18.6857 55.4091 18.6857ZM82.2108 15.8752C82.128 15.8752 82.0441 15.852 81.9695 15.8033C81.3582 15.4053 80.7194 15.0353 80.0707 14.7038C79.8527 14.5924 79.7664 14.3254 79.8778 14.1075C79.9891 13.8896 80.2558 13.8031 80.474 13.9146C81.1503 14.2602 81.8161 14.6458 82.4531 15.0606C82.6582 15.1942 82.7162 15.4687 82.5827 15.6738C82.4977 15.8042 82.3557 15.8752 82.2108 15.8752ZM58.8883 15.8672C58.7433 15.8672 58.6013 15.7962 58.5164 15.6656C58.383 15.4605 58.4412 15.186 58.6463 15.0526C59.2841 14.6378 59.9507 14.2525 60.6274 13.9072C60.8454 13.7961 61.1123 13.8825 61.2236 14.1006C61.3348 14.3186 61.2482 14.5854 61.0302 14.6967C60.3809 15.0279 59.7414 15.3976 59.1295 15.7955C59.0548 15.844 58.9711 15.8672 58.8883 15.8672ZM78.2266 13.8393C78.1737 13.8393 78.1199 13.8297 78.0676 13.8096C77.3868 13.5477 76.6846 13.3194 75.9805 13.1309C75.7441 13.0676 75.6038 12.8246 75.6671 12.5882C75.7304 12.3519 75.9732 12.2115 76.2098 12.2748C76.9438 12.4714 77.676 12.7094 78.3858 12.9824C78.6142 13.0702 78.7281 13.3266 78.6403 13.555C78.5725 13.7312 78.4046 13.8393 78.2266 13.8393ZM62.8769 13.8329C62.6988 13.8329 62.5308 13.7247 62.4632 13.5484C62.3755 13.3199 62.4897 13.0636 62.7182 12.9759C63.4282 12.7035 64.1608 12.4659 64.8956 12.2699C65.1323 12.2066 65.3749 12.3473 65.438 12.5838C65.5011 12.8203 65.3606 13.0631 65.1241 13.1262C64.4193 13.3143 63.7166 13.5421 63.0356 13.8034C62.9835 13.8234 62.9298 13.8329 62.8769 13.8329ZM73.9031 12.6812C73.8802 12.6812 73.857 12.6794 73.8336 12.6757C73.1149 12.5625 72.3804 12.4858 71.6504 12.4479C71.406 12.4351 71.2182 12.2267 71.2309 11.9823C71.2436 11.7379 71.4526 11.5503 71.6965 11.5628C72.457 11.6023 73.2224 11.6823 73.9716 11.8002C74.2133 11.8383 74.3784 12.0652 74.3403 12.3069C74.3059 12.5253 74.1175 12.6812 73.9031 12.6812ZM67.2022 12.6784C66.9877 12.6784 66.7992 12.5223 66.765 12.3038C66.727 12.062 66.8923 11.8353 67.1341 11.7974C67.8831 11.68 68.6486 11.6007 69.4094 11.5618C69.6539 11.5496 69.8621 11.7373 69.8746 11.9817C69.8871 12.2261 69.6991 12.4344 69.4547 12.4469C68.7245 12.4843 67.99 12.5603 67.2714 12.6729C67.2482 12.6765 67.225 12.6784 67.2022 12.6784Z" fill="#95A6DB"/>
<path d="M49.1384 33.8282C48.8937 33.8282 48.6953 33.6298 48.6953 33.3851C48.6953 33.0094 48.7049 32.6292 48.7241 32.2551C48.7365 32.0106 48.944 31.8223 49.1892 31.835C49.4336 31.8475 49.6216 32.0558 49.6092 32.3001C49.5909 32.6594 49.5816 33.0243 49.5816 33.385C49.5816 33.6298 49.3832 33.8282 49.1384 33.8282Z" fill="#95A6DB"/>
<path d="M55.1384 33.8322C54.8937 33.8322 54.6953 33.6338 54.6953 33.3891C54.6953 33.0102 54.7089 32.6272 54.7356 32.2507C54.7529 32.0066 54.9651 31.8229 55.209 31.84C55.4531 31.8574 55.637 32.0693 55.6196 32.3134C55.5944 32.669 55.5816 33.031 55.5816 33.389C55.5816 33.6338 55.3832 33.8322 55.1384 33.8322Z" fill="#95A6DB"/>
<path d="M55.4905 30.5478C55.4594 30.5478 55.4278 30.5446 55.3962 30.5377C55.157 30.4858 55.0051 30.2499 55.057 30.0107C55.2167 29.2751 55.4311 28.5447 55.6945 27.8397C55.7801 27.6105 56.0355 27.4942 56.2647 27.5797C56.494 27.6654 56.6104 27.9207 56.5247 28.1499C56.2762 28.8151 56.0738 29.5044 55.9231 30.1986C55.8781 30.4061 55.6946 30.5478 55.4905 30.5478ZM85.607 30.5361C85.4031 30.5361 85.2196 30.3946 85.1744 30.1872C85.0233 29.4936 84.8205 28.8049 84.5717 28.1402C84.4859 27.911 84.6022 27.6557 84.8314 27.5698C85.0604 27.484 85.3159 27.6003 85.4017 27.8295C85.6654 28.5338 85.8803 29.2636 86.0404 29.9986C86.0924 30.2377 85.9408 30.4738 85.7017 30.5259C85.6699 30.5328 85.6382 30.5361 85.607 30.5361ZM57.0243 26.4392C56.9523 26.4392 56.8794 26.4217 56.8119 26.3847C56.5972 26.2671 56.5185 25.9978 56.636 25.7832C56.997 25.1241 57.4091 24.4846 57.8609 23.8823C58.0078 23.6866 58.2855 23.647 58.4813 23.7938C58.6771 23.9407 58.7167 24.2185 58.5698 24.4142C58.1432 24.9829 57.7541 25.5867 57.4134 26.2089C57.3328 26.3559 57.181 26.4392 57.0243 26.4392ZM84.0716 26.4317C83.915 26.4317 83.7632 26.3485 83.6827 26.2015C83.3417 25.5798 82.9525 24.9766 82.5259 24.4085C82.3789 24.2128 82.4184 23.935 82.6141 23.788C82.8097 23.6411 83.0876 23.6806 83.2345 23.8763C83.6864 24.478 84.0986 25.1169 84.4598 25.7755C84.5774 25.99 84.4988 26.2594 84.2843 26.3771C84.2166 26.4141 84.1436 26.4317 84.0716 26.4317ZM59.6558 22.9313C59.5424 22.9313 59.429 22.888 59.3424 22.8014C59.1694 22.6283 59.1695 22.3478 59.3426 22.1747C59.8746 21.6429 60.4493 21.1448 61.0506 20.6941C61.2464 20.5474 61.5241 20.5872 61.671 20.783C61.8177 20.9788 61.778 21.2566 61.5821 21.4033C61.0143 21.8289 60.4716 22.2994 59.9691 22.8016C59.8827 22.8881 59.7692 22.9313 59.6558 22.9313ZM81.4392 22.9263C81.3259 22.9263 81.2126 22.8832 81.1262 22.7968C80.6234 22.2948 80.0803 21.8244 79.5122 21.3991C79.3163 21.2524 79.2764 20.9747 79.4231 20.7788C79.5698 20.5828 79.8476 20.5431 80.0434 20.6897C80.6449 21.1401 81.2199 21.6381 81.7523 22.1697C81.9255 22.3426 81.9258 22.6232 81.7528 22.7964C81.6662 22.883 81.5527 22.9263 81.4392 22.9263ZM63.1643 20.3026C63.0075 20.3026 62.8556 20.2192 62.7751 20.072C62.6576 19.8573 62.7364 19.5881 62.9511 19.4706C63.6111 19.1094 64.3026 18.7932 65.0064 18.5304C65.2356 18.4449 65.4909 18.5613 65.5765 18.7906C65.6621 19.0199 65.5456 19.2751 65.3164 19.3608C64.6521 19.6087 63.9995 19.9073 63.3765 20.2481C63.3091 20.285 63.2362 20.3026 63.1643 20.3026ZM77.9285 20.2986C77.8567 20.2986 77.7839 20.2811 77.7164 20.2443C77.0927 19.9035 76.4393 19.6051 75.7743 19.3573C75.545 19.2719 75.4284 19.0167 75.5138 18.7874C75.5993 18.558 75.8543 18.4412 76.0838 18.5268C76.7883 18.7893 77.4806 19.1055 78.1413 19.4666C78.3562 19.584 78.4351 19.8531 78.3178 20.0679C78.2373 20.2151 78.0853 20.2986 77.9285 20.2986ZM67.2697 18.7702C67.0656 18.7702 66.882 18.6284 66.837 18.4209C66.7852 18.1817 66.9371 17.9458 67.1762 17.894C67.9095 17.735 68.6624 17.6275 69.4142 17.5742C69.658 17.557 69.8702 17.7409 69.8875 17.985C69.9048 18.2291 69.7209 18.441 69.4768 18.4583C68.767 18.5085 68.0561 18.6101 67.364 18.7602C67.3324 18.767 67.3008 18.7702 67.2697 18.7702ZM73.8189 18.7678C73.7879 18.7678 73.7565 18.7645 73.7249 18.7577C73.0327 18.6082 72.3218 18.5071 71.612 18.4574C71.3678 18.4403 71.1838 18.2286 71.2009 17.9844C71.218 17.7403 71.4294 17.5563 71.6739 17.5733C72.4257 17.6259 73.1788 17.7329 73.9121 17.8914C74.1513 17.943 74.3034 18.1788 74.2516 18.418C74.2068 18.6258 74.0231 18.7678 73.8189 18.7678Z" fill="#95A6DB"/>
<path d="M85.9589 33.8323C85.7142 33.8323 85.5157 33.6338 85.5157 33.3891C85.5157 33.0309 85.503 32.669 85.4777 32.3135C85.4604 32.0694 85.6442 31.8575 85.8883 31.8401C86.133 31.8225 86.3444 32.0067 86.3617 32.2508C86.3884 32.6271 86.402 33.0101 86.402 33.3891C86.402 33.6338 86.2035 33.8323 85.9589 33.8323Z" fill="#95A6DB"/>
<path d="M91.8786 34.094C91.8769 34.094 91.8751 34.0939 91.8732 34.0939C91.7877 34.0922 91.7077 34.0511 91.6566 33.9823L88.8281 30.1786C88.7369 30.056 88.7624 29.8826 88.8851 29.7914C89.0076 29.7002 89.181 29.7258 89.2722 29.8483L91.8874 33.3653L94.4916 30.1325C94.5876 30.0134 94.7617 29.9948 94.8807 30.0906C94.9997 30.1864 95.0185 30.3606 94.9226 30.4796L92.0942 33.9908C92.0415 34.0561 91.9622 34.094 91.8786 34.094Z" fill="#95A6DB"/>
<path d="M55.1286 34.094C55.1269 34.094 55.1251 34.0939 55.1233 34.0939C55.0377 34.0923 54.9577 34.0511 54.9066 33.9824L52.0781 30.1786C51.9869 30.056 52.0124 29.8827 52.1351 29.7914C52.2577 29.7003 52.4311 29.7257 52.5222 29.8483L55.1374 33.3653L57.7417 30.1325C57.8375 30.0135 58.0117 29.9947 58.1307 30.0906C58.2497 30.1864 58.2685 30.3606 58.1726 30.4796L55.3441 33.9908C55.2916 34.0561 55.2123 34.094 55.1286 34.094Z" fill="#95A6DB"/>
<path d="M111.363 93.7684V94.8906C111.363 95.329 111.007 95.6846 110.569 95.6846H96.8721C96.4337 95.6846 96.0781 95.329 96.0781 94.8906V93.7684C96.0781 93.573 96.1485 93.3942 96.2656 93.2559C96.4115 93.0837 96.629 92.9744 96.8721 92.9744H110.569C110.812 92.9744 111.029 93.0837 111.175 93.2559C111.292 93.3942 111.363 93.573 111.363 93.7684Z" fill="#FAD332"/>
<path d="M97.2338 92.9744H96.8359V95.6845H97.2338V92.9744Z" fill="#FABA23"/>
<path d="M98.9056 92.9744H98.5078V95.6845H98.9056V92.9744Z" fill="#FABA23"/>
<path d="M100.562 92.9744H100.164V95.6845H100.562V92.9744Z" fill="#FABA23"/>
<path d="M102.234 92.9744H101.836V95.6845H102.234V92.9744Z" fill="#FABA23"/>
<path d="M103.906 92.9744H103.508V95.6845H103.906V92.9744Z" fill="#FABA23"/>
<path d="M105.57 92.9744H105.172V95.6845H105.57V92.9744Z" fill="#FABA23"/>
<path d="M107.242 92.9744H106.844V95.6845H107.242V92.9744Z" fill="#FABA23"/>
<path d="M108.906 92.9744H108.508V95.6845H108.906V92.9744Z" fill="#FABA23"/>
<path d="M110.578 92.9744H110.18V95.6845H110.578V92.9744Z" fill="#FABA23"/>
<path d="M111.175 93.2559H96.2656C96.4115 93.0837 96.629 92.9744 96.8721 92.9744H110.569C110.812 92.9744 111.029 93.0837 111.175 93.2559Z" fill="#FABA23"/>
<path d="M111.175 95.4061H96.2656C96.4115 95.5783 96.629 95.6876 96.8721 95.6876H110.569C110.812 95.6876 111.029 95.5783 111.175 95.4061Z" fill="#FABA23"/>
<path d="M112.316 91.064V92.1862C112.316 92.6246 111.96 92.9802 111.522 92.9802H97.8252C97.3868 92.9802 97.0312 92.6246 97.0312 92.1862V91.064C97.0312 90.8686 97.1017 90.6899 97.2188 90.5515C97.3646 90.3793 97.5822 90.27 97.8252 90.27H111.522C111.765 90.27 111.983 90.3793 112.128 90.5515C112.246 90.6899 112.316 90.8686 112.316 91.064Z" fill="#FAD332"/>
<path d="M98.1947 90.27H97.7969V92.9801H98.1947V90.27Z" fill="#FABA23"/>
<path d="M99.8588 90.27H99.4609V92.9801H99.8588V90.27Z" fill="#FABA23"/>
<path d="M101.523 90.27H101.125V92.9801H101.523V90.27Z" fill="#FABA23"/>
<path d="M103.195 90.27H102.797V92.9801H103.195V90.27Z" fill="#FABA23"/>
<path d="M104.867 90.27H104.469V92.9801H104.867V90.27Z" fill="#FABA23"/>
<path d="M106.531 90.27H106.133V92.9801H106.531V90.27Z" fill="#FABA23"/>
<path d="M108.195 90.27H107.797V92.9801H108.195V90.27Z" fill="#FABA23"/>
<path d="M109.867 90.27H109.469V92.9801H109.867V90.27Z" fill="#FABA23"/>
<path d="M111.538 90.27H111.141V92.9801H111.538V90.27Z" fill="#FABA23"/>
<path d="M112.128 90.5515H97.2188C97.3646 90.3793 97.5822 90.27 97.8252 90.27H111.522C111.765 90.27 111.983 90.3793 112.128 90.5515Z" fill="#FABA23"/>
<path d="M112.128 92.6948H97.2188C97.3646 92.867 97.5822 92.9763 97.8252 92.9763H111.522C111.765 92.9763 111.983 92.867 112.128 92.6948Z" fill="#FABA23"/>
<path d="M111.582 88.3587V89.4809C111.582 89.9194 111.226 90.2749 110.788 90.2749H97.0908C96.6524 90.2749 96.2969 89.9194 96.2969 89.4809V88.3587C96.2969 88.1633 96.3673 87.9847 96.4844 87.8462C96.6302 87.674 96.8479 87.5647 97.0908 87.5647H110.788C111.031 87.5647 111.248 87.674 111.394 87.8462C111.511 87.9847 111.582 88.1633 111.582 88.3587Z" fill="#FAD332"/>
<path d="M97.4525 87.5647H97.0547V90.2747H97.4525V87.5647Z" fill="#FABA23"/>
<path d="M99.1244 87.5647H98.7266V90.2747H99.1244V87.5647Z" fill="#FABA23"/>
<path d="M100.788 87.5647H100.391V90.2747H100.788V87.5647Z" fill="#FABA23"/>
<path d="M102.46 87.5647H102.062V90.2747H102.46V87.5647Z" fill="#FABA23"/>
<path d="M104.132 87.5647H103.734V90.2747H104.132V87.5647Z" fill="#FABA23"/>
<path d="M105.796 87.5647H105.398V90.2747H105.796V87.5647Z" fill="#FABA23"/>
<path d="M107.468 87.5647H107.07V90.2747H107.468V87.5647Z" fill="#FABA23"/>
<path d="M109.132 87.5647H108.734V90.2747H109.132V87.5647Z" fill="#FABA23"/>
<path d="M110.796 87.5647H110.398V90.2747H110.796V87.5647Z" fill="#FABA23"/>
<path d="M111.394 87.8462H96.4844C96.6302 87.674 96.8479 87.5647 97.0908 87.5647H110.788C111.031 87.5647 111.248 87.674 111.394 87.8462Z" fill="#FABA23"/>
<path d="M111.394 89.9861H96.4844C96.6302 90.1582 96.8479 90.2675 97.0908 90.2675H110.788C111.031 90.2675 111.248 90.1583 111.394 89.9861Z" fill="#FABA23"/>
<path d="M111.878 85.7V86.8222C111.878 87.2606 111.523 87.6162 111.084 87.6162H97.3877C96.9494 87.6162 96.5938 87.2606 96.5938 86.8222V85.7C96.5938 85.5046 96.6642 85.3259 96.7813 85.1874C96.9271 85.0153 97.1447 84.906 97.3877 84.906H111.084C111.328 84.906 111.545 85.0153 111.691 85.1874C111.808 85.3259 111.878 85.5046 111.878 85.7Z" fill="#FAD332"/>
<path d="M97.7494 84.906H97.3516V87.616H97.7494V84.906Z" fill="#FABA23"/>
<path d="M99.4213 84.906H99.0234V87.616H99.4213V84.906Z" fill="#FABA23"/>
<path d="M101.085 84.906H100.688V87.616H101.085V84.906Z" fill="#FABA23"/>
<path d="M102.757 84.906H102.359V87.616H102.757V84.906Z" fill="#FABA23"/>
<path d="M104.421 84.906H104.023V87.616H104.421V84.906Z" fill="#FABA23"/>
<path d="M106.093 84.906H105.695V87.616H106.093V84.906Z" fill="#FABA23"/>
<path d="M107.757 84.906H107.359V87.616H107.757V84.906Z" fill="#FABA23"/>
<path d="M109.429 84.906H109.031V87.616H109.429V84.906Z" fill="#FABA23"/>
<path d="M111.101 84.906H110.703V87.616H111.101V84.906Z" fill="#FABA23"/>
<path d="M111.691 85.1874H96.7812C96.9271 85.0153 97.1447 84.906 97.3877 84.906H111.084C111.327 84.906 111.545 85.0153 111.691 85.1874Z" fill="#FABA23"/>
<path d="M111.691 87.3378H96.7812C96.9271 87.5099 97.1447 87.6192 97.3877 87.6192H111.084C111.327 87.6192 111.545 87.5099 111.691 87.3378Z" fill="#FABA23"/>
<path d="M110.175 82.945V84.0672C110.175 84.5056 109.82 84.8612 109.381 84.8612H95.6846C95.2461 84.8612 94.8906 84.5056 94.8906 84.0672V82.945C94.8906 82.7497 94.961 82.5709 95.0781 82.4326C95.224 82.2603 95.4415 82.151 95.6846 82.151H109.381C109.624 82.151 109.842 82.2603 109.988 82.4326C110.105 82.5709 110.175 82.7497 110.175 82.945Z" fill="#FAD332"/>
<path d="M96.0463 82.151H95.6484V84.8611H96.0463V82.151Z" fill="#FABA23"/>
<path d="M97.7181 82.151H97.3203V84.8611H97.7181V82.151Z" fill="#FABA23"/>
<path d="M99.3823 82.151H98.9844V84.8611H99.3823V82.151Z" fill="#FABA23"/>
<path d="M101.054 82.151H100.656V84.8611H101.054V82.151Z" fill="#FABA23"/>
<path d="M102.718 82.151H102.32V84.8611H102.718V82.151Z" fill="#FABA23"/>
<path d="M104.39 82.151H103.992V84.8611H104.39V82.151Z" fill="#FABA23"/>
<path d="M106.062 82.151H105.664V84.8611H106.062V82.151Z" fill="#FABA23"/>
<path d="M107.726 82.151H107.328V84.8611H107.726V82.151Z" fill="#FABA23"/>
<path d="M109.39 82.151H108.992V84.8611H109.39V82.151Z" fill="#FABA23"/>
<path d="M109.988 82.4326H95.0781C95.224 82.2603 95.4415 82.151 95.6846 82.151H109.381C109.624 82.151 109.842 82.2603 109.988 82.4326Z" fill="#FABA23"/>
<path d="M109.988 84.5862H95.0781C95.224 84.7584 95.4415 84.8677 95.6846 84.8677H109.381C109.624 84.8677 109.842 84.7584 109.988 84.5862Z" fill="#FABA23"/>
<path d="M111.855 80.2714V81.3936C111.855 81.832 111.499 82.1876 111.061 82.1876H97.3643C96.9259 82.1876 96.5703 81.832 96.5703 81.3936V80.2714C96.5703 80.076 96.6407 79.8973 96.7578 79.7589C96.9037 79.5867 97.1212 79.4774 97.3643 79.4774H111.061C111.304 79.4774 111.522 79.5867 111.668 79.7589C111.785 79.8973 111.855 80.076 111.855 80.2714Z" fill="#FAD332"/>
<path d="M97.7259 79.4774H97.3281V82.1874H97.7259V79.4774Z" fill="#FABA23"/>
<path d="M99.3978 79.4774H99V82.1874H99.3978V79.4774Z" fill="#FABA23"/>
<path d="M101.062 79.4774H100.664V82.1874H101.062V79.4774Z" fill="#FABA23"/>
<path d="M102.734 79.4774H102.336V82.1874H102.734V79.4774Z" fill="#FABA23"/>
<path d="M104.398 79.4774H104V82.1874H104.398V79.4774Z" fill="#FABA23"/>
<path d="M106.07 79.4774H105.672V82.1874H106.07V79.4774Z" fill="#FABA23"/>
<path d="M107.742 79.4774H107.344V82.1874H107.742V79.4774Z" fill="#FABA23"/>
<path d="M109.406 79.4774H109.008V82.1874H109.406V79.4774Z" fill="#FABA23"/>
<path d="M111.07 79.4774H110.672V82.1874H111.07V79.4774Z" fill="#FABA23"/>
<path d="M111.668 79.7589H96.7578C96.9037 79.5867 97.1212 79.4774 97.3643 79.4774H111.061C111.304 79.4774 111.522 79.5867 111.668 79.7589Z" fill="#FABA23"/>
<path d="M111.668 81.9092H96.7578C96.9037 82.0814 97.1212 82.1907 97.3643 82.1907H111.061C111.304 82.1907 111.522 82.0814 111.668 81.9092Z" fill="#FABA23"/>
<path d="M111.261 77.5501V78.6723C111.261 79.1108 110.906 79.4663 110.467 79.4663H96.7705C96.3322 79.4663 95.9766 79.1108 95.9766 78.6723V77.5501C95.9766 77.3547 96.047 77.176 96.1641 77.0376C96.3099 76.8654 96.5275 76.7561 96.7705 76.7561H110.467C110.71 76.7561 110.928 76.8654 111.074 77.0376C111.191 77.176 111.261 77.3547 111.261 77.5501Z" fill="#FAD332"/>
<path d="M97.1322 76.7562H96.7344V79.4663H97.1322V76.7562Z" fill="#FABA23"/>
<path d="M98.8041 76.7562H98.4062V79.4663H98.8041V76.7562Z" fill="#FABA23"/>
<path d="M100.468 76.7562H100.07V79.4663H100.468V76.7562Z" fill="#FABA23"/>
<path d="M102.14 76.7562H101.742V79.4663H102.14V76.7562Z" fill="#FABA23"/>
<path d="M103.804 76.7562H103.406V79.4663H103.804V76.7562Z" fill="#FABA23"/>
<path d="M105.476 76.7562H105.078V79.4663H105.476V76.7562Z" fill="#FABA23"/>
<path d="M107.148 76.7562H106.75V79.4663H107.148V76.7562Z" fill="#FABA23"/>
<path d="M108.812 76.7562H108.414V79.4663H108.812V76.7562Z" fill="#FABA23"/>
<path d="M110.484 76.7562H110.086V79.4663H110.484V76.7562Z" fill="#FABA23"/>
<path d="M111.074 77.0377H96.1641C96.3099 76.8655 96.5275 76.7562 96.7705 76.7562H110.467C110.71 76.7563 110.928 76.8655 111.074 77.0377Z" fill="#FABA23"/>
<path d="M111.074 79.1845H96.1641C96.3099 79.3566 96.5275 79.466 96.7705 79.466H110.467C110.71 79.466 110.928 79.3567 111.074 79.1845Z" fill="#FABA23"/>
<path d="M112.074 74.8547V75.977C112.074 76.4154 111.718 76.7709 111.28 76.7709H97.583C97.1446 76.7709 96.7891 76.4154 96.7891 75.977V74.8547C96.7891 74.6594 96.8595 74.4807 96.9766 74.3422C97.1224 74.17 97.34 74.0608 97.583 74.0608H111.28C111.523 74.0608 111.74 74.17 111.886 74.3422C112.003 74.4807 112.074 74.6594 112.074 74.8547Z" fill="#FAD332"/>
<path d="M97.9526 74.0608H97.5547V76.7709H97.9526V74.0608Z" fill="#FABA23"/>
<path d="M99.6166 74.0608H99.2188V76.7709H99.6166V74.0608Z" fill="#FABA23"/>
<path d="M101.281 74.0608H100.883V76.7709H101.281V74.0608Z" fill="#FABA23"/>
<path d="M102.953 74.0608H102.555V76.7709H102.953V74.0608Z" fill="#FABA23"/>
<path d="M104.624 74.0608H104.227V76.7709H104.624V74.0608Z" fill="#FABA23"/>
<path d="M106.288 74.0608H105.891V76.7709H106.288V74.0608Z" fill="#FABA23"/>
<path d="M107.96 74.0608H107.562V76.7709H107.96V74.0608Z" fill="#FABA23"/>
<path d="M109.624 74.0608H109.227V76.7709H109.624V74.0608Z" fill="#FABA23"/>
<path d="M111.296 74.0608H110.898V76.7709H111.296V74.0608Z" fill="#FABA23"/>
<path d="M111.886 74.3422H96.9766C97.1224 74.17 97.34 74.0608 97.583 74.0608H111.28C111.523 74.0608 111.74 74.17 111.886 74.3422Z" fill="#FABA23"/>
<path d="M111.886 76.4926H96.9766C97.1224 76.6648 97.34 76.7741 97.583 76.7741H111.28C111.523 76.7741 111.74 76.6648 111.886 76.4926Z" fill="#FABA23"/>
<path d="M98.9379 95.3903C103.225 93.9764 105.555 89.3546 104.141 85.0672C102.727 80.7798 98.105 78.4504 93.8176 79.8643C89.5303 81.2782 87.2009 85.9 88.6148 90.1874C90.0288 94.4748 94.6506 96.8042 98.9379 95.3903Z" fill="#FABA23"/>
<path d="M102.77 89.6967C101.63 93.2254 97.8456 95.1619 94.3168 94.0225C93.9485 93.9034 93.5974 93.7559 93.2655 93.5821C92.7035 93.2892 92.1966 92.923 91.7518 92.4995C91.5834 92.3388 91.4237 92.1701 91.2735 91.9941C90.173 90.7028 89.5813 89.0173 89.6734 87.2807C89.7033 86.7121 89.8072 86.1379 89.9906 85.57C90.8405 82.9384 93.1613 81.1919 95.7501 80.9468C96.6323 80.8633 97.5463 80.9541 98.4434 81.2438C99.2201 81.4946 99.9197 81.8734 100.526 82.3498C100.709 82.4934 100.884 82.6459 101.05 82.8068C101.5 83.2428 101.884 83.738 102.194 84.2752C103.11 85.8622 103.377 87.8158 102.77 89.6967Z" fill="#FAD332"/>
<path d="M100.526 82.3499L91.2735 91.9941C90.173 90.7028 89.5813 89.0173 89.6734 87.2807L95.7501 80.9468C96.6323 80.8633 97.5463 80.9541 98.4434 81.2438C99.2201 81.4947 99.9198 81.8735 100.526 82.3499Z" fill="#FAEE6C"/>
<path d="M102.192 84.2723L93.2637 93.5791C92.7017 93.2861 92.1949 92.92 91.75 92.4965L101.048 82.8038C101.498 83.2398 101.883 83.735 102.192 84.2723Z" fill="#FAEE6C"/>
<path d="M96.8286 81.2525C96.0354 81.1692 95.8905 81.2474 95.5344 81.951C95.6229 81.1673 95.5446 81.0224 94.8359 80.6566C95.6291 80.7399 95.774 80.6617 96.1302 79.9582C96.047 80.7514 96.1251 80.8964 96.8286 81.2525Z" fill="white"/>
<path d="M94.0175 93.8644C93.3482 93.7941 93.2259 93.8601 92.9254 94.4538C93 93.7926 92.934 93.6704 92.3359 93.3616C93.0053 93.4319 93.1275 93.3659 93.4281 92.7722C93.3579 93.4416 93.4239 93.5639 94.0175 93.8644Z" fill="white"/>
<path d="M101.675 60.5032C96.7277 60.5032 92.7031 56.4786 92.7031 51.5318C92.7031 46.585 96.7277 42.5605 101.675 42.5605C106.621 42.5605 110.646 46.585 110.646 51.5318C110.646 56.4786 106.621 60.5032 101.675 60.5032ZM101.675 43.0036C96.972 43.0036 93.1463 46.8293 93.1463 51.5318C93.1463 56.2342 96.972 60.06 101.675 60.06C106.377 60.06 110.203 56.2342 110.203 51.5318C110.203 46.8293 106.377 43.0036 101.675 43.0036Z" fill="#E3EAFF"/>
<path d="M101.675 56.6203C101.018 56.6203 100.484 56.0871 100.484 55.4294V38.9685C100.484 38.3108 101.018 37.7776 101.675 37.7776C102.333 37.7776 102.866 38.3108 102.866 38.9685V55.4294C102.866 56.0871 102.333 56.6203 101.675 56.6203Z" fill="#E3EAFF"/>
<path d="M101.675 60.5032C96.7277 60.5032 92.7031 56.4786 92.7031 51.5318C92.7031 46.585 96.7277 42.5605 101.675 42.5605C106.621 42.5605 110.646 46.585 110.646 51.5318C110.646 56.4786 106.621 60.5032 101.675 60.5032ZM101.675 43.0036C96.972 43.0036 93.1463 46.8293 93.1463 51.5318C93.1463 56.2342 96.972 60.06 101.675 60.06C106.377 60.06 110.203 56.2342 110.203 51.5318C110.203 46.8293 106.377 43.0036 101.675 43.0036Z" fill="#E3EAFF"/>
<path d="M101.675 56.6203C101.018 56.6203 100.484 56.0871 100.484 55.4294V38.9685C100.484 38.3108 101.018 37.7776 101.675 37.7776C102.333 37.7776 102.866 38.3108 102.866 38.9685V55.4294C102.866 56.0871 102.333 56.6203 101.675 56.6203Z" fill="#E3EAFF"/>
<path d="M101.754 57.598C101.739 57.598 101.723 57.5977 101.708 57.5972C101.343 57.583 101.006 57.4027 100.791 57.1081L95.8455 50.7715C95.4583 50.2398 95.5755 49.4949 96.1072 49.1077C96.639 48.7205 97.3838 48.8377 97.771 49.3694L101.828 54.4864L105.631 49.2968C106.058 48.7968 106.809 48.7377 107.31 49.1649C107.81 49.5922 107.869 50.344 107.441 50.844L102.659 57.1807C102.433 57.4461 102.101 57.598 101.754 57.598Z" fill="#E3EAFF"/>
<path d="M42.2213 59.583C37.2745 59.583 33.25 55.5585 33.25 50.6117C33.25 45.6649 37.2745 41.6403 42.2213 41.6403C47.1681 41.6403 51.1927 45.6649 51.1927 50.6117C51.1927 55.5585 47.1681 59.583 42.2213 59.583ZM42.2213 42.0835C37.5189 42.0835 33.6931 45.9092 33.6931 50.6117C33.6931 55.3142 37.5189 59.1399 42.2213 59.1399C46.9238 59.1399 50.7495 55.3142 50.7495 50.6117C50.7495 45.9092 46.9238 42.0835 42.2213 42.0835Z" fill="#E3EAFF"/>
<path d="M46.8113 55.2032C49.3467 52.6678 49.3467 48.5571 46.8113 46.0217C44.276 43.4863 40.1653 43.4863 37.6298 46.0217C35.0944 48.5571 35.0944 52.6678 37.6298 55.2032C40.1652 57.7386 44.2759 57.7386 46.8113 55.2032Z" fill="#E3EAFF"/>
<path d="M47.1396 53.3386C46.1862 55.0735 44.3416 56.2491 42.2224 56.2491C40.1026 56.2491 38.258 55.0735 37.3047 53.3386C37.9075 52.2659 38.8517 51.4104 39.99 50.9192C39.5034 50.3836 39.2068 49.6728 39.2068 48.8922C39.2068 47.2269 40.5567 45.8766 42.2224 45.8766C43.8876 45.8766 45.2374 47.2269 45.2374 48.8922C45.2374 49.6728 44.9409 50.3836 44.4542 50.9192C45.5926 51.4104 46.5368 52.2659 47.1396 53.3386Z" fill="#95A6DB"/>
<path d="M111.033 66.0057L107.269 63.9814C107.163 64.1788 107.056 64.3762 106.95 64.5735C106.797 64.8597 107.519 65.5473 108.564 66.1095C109.61 66.6715 110.582 66.8954 110.736 66.6092C110.75 66.5829 111.033 66.0057 111.033 66.0057Z" fill="#FABA23"/>
<path d="M111.04 66.0451C110.886 66.3312 109.914 66.1075 108.869 65.5454C107.824 64.9832 107.101 64.2956 107.255 64.0094C107.409 63.7233 108.381 63.947 109.426 64.5091C110.472 65.0713 111.194 65.759 111.04 66.0451Z" fill="#FAD332"/>
<path d="M94.3095 73.6062L90.5 74.2249C90.5324 74.4247 90.5649 74.6244 90.5973 74.8242C90.6444 75.1137 91.54 75.2092 92.5979 75.0374C93.6558 74.8656 94.4753 74.4916 94.4282 74.202C94.4238 74.1753 94.3095 73.6062 94.3095 73.6062Z" fill="#FABA23"/>
<path d="M94.3328 73.6324C94.3798 73.922 93.5604 74.296 92.5025 74.4678C91.4446 74.6397 90.5488 74.5442 90.5019 74.2546C90.4548 73.965 91.2743 73.591 92.3322 73.4191C93.3901 73.2474 94.2858 73.3429 94.3328 73.6324Z" fill="#FAD332"/>
<path d="M98.8559 66.925L95.3935 65.2197C95.3042 65.4012 95.2147 65.5828 95.1253 65.7643C94.9957 66.0276 95.67 66.6247 96.6314 67.0983C97.5929 67.5719 98.4774 67.7424 98.607 67.4792C98.6189 67.455 98.8559 66.925 98.8559 66.925Z" fill="#FABA23"/>
<path d="M98.857 66.9618C98.7273 67.2249 97.8429 67.0544 96.8814 66.5808C95.92 66.1073 95.2457 65.5101 95.3753 65.2469C95.505 64.9837 96.3894 65.1542 97.3509 65.6278C98.3123 66.1012 98.9867 66.6985 98.857 66.9618Z" fill="#FAD332"/>
<path d="M93.6984 60.4931L89.7109 61.1407C89.7448 61.3498 89.7789 61.5588 89.8128 61.7679C89.8621 62.071 90.7996 62.1709 91.9069 61.9911C93.0142 61.8113 93.872 61.4197 93.8227 61.1166C93.8181 61.0887 93.6984 60.4931 93.6984 60.4931Z" fill="#FABA23"/>
<path d="M93.7306 60.5194C93.7799 60.8226 92.9221 61.214 91.8149 61.3939C90.7076 61.5737 89.77 61.4737 89.7208 61.1707C89.6715 60.8675 90.5293 60.476 91.6365 60.2962C92.7438 60.1164 93.6814 60.2162 93.7306 60.5194Z" fill="#FAD332"/>
<path d="M54.1037 73.8879H29.922C28.8476 73.8879 27.9766 73.0169 27.9766 71.9425V66.8279C27.9766 65.7535 28.8475 64.8824 29.922 64.8824H54.1037C55.1781 64.8824 56.0491 65.7535 56.0491 66.8279V71.9425C56.0491 73.0169 55.1781 73.8879 54.1037 73.8879Z" fill="#E3EAFF"/>
<path d="M36.701 68.1177V70.6513C36.701 71.3343 36.1476 71.8877 35.4647 71.8877H30.6733C30.4218 71.8877 30.1875 71.8123 29.992 71.6827C29.658 71.4617 29.4375 71.0823 29.4375 70.6513V68.1177C29.4375 67.4347 29.9909 66.8814 30.6733 66.8814H35.4647C35.7433 66.8814 36.0009 66.9739 36.2075 67.1301C36.5071 67.3551 36.701 67.7139 36.701 68.1177Z" fill="#FABA23"/>
<path d="M46.4656 70.412H38.515C37.9458 70.412 37.4844 69.9505 37.4844 69.3814C37.4844 68.8122 37.9458 68.3508 38.515 68.3508H46.4656C47.0348 68.3508 47.4962 68.8122 47.4962 69.3814C47.4962 69.9505 47.0348 70.412 46.4656 70.412Z" fill="#95A6DB"/>
<path d="M53.5694 70.412H49.5853C49.0161 70.412 48.5547 69.9505 48.5547 69.3814C48.5547 68.8122 49.0161 68.3508 49.5853 68.3508H53.5694C54.1386 68.3508 54.6 68.8122 54.6 69.3814C54.6 69.9505 54.1387 70.412 53.5694 70.412Z" fill="#4EAD60"/>
<path d="M36.2075 67.1316L29.992 71.6843C29.658 71.4633 29.4375 71.0838 29.4375 70.6529V68.1193C29.4375 67.4363 29.9909 66.883 30.6733 66.883H35.4647C35.7433 66.8829 36.0009 66.9754 36.2075 67.1316Z" fill="#FAD332"/>
<path d="M35.0923 70.4668C35.0923 70.926 34.7201 71.2982 34.261 71.2982C33.8019 71.2982 33.4297 70.926 33.4297 70.4668C33.4297 70.0077 33.8019 69.6355 34.261 69.6355C34.7201 69.6355 35.0923 70.0077 35.0923 70.4668Z" fill="#E62552"/>
<path d="M36.0768 70.4668C36.0768 70.926 35.7046 71.2982 35.2454 71.2982C34.7863 71.2982 34.4141 70.926 34.4141 70.4668C34.4141 70.0077 34.7863 69.6355 35.2454 69.6355C35.7046 69.6355 36.0768 70.0077 36.0768 70.4668Z" fill="#95A6DB"/>
<path d="M124.131 59.1132C124.614 57.6002 124.496 56.1324 123.434 55.1443C122.358 54.1427 120.633 54.4569 120.633 54.4569C120.633 54.4568 119.426 53.6702 117.913 54.7003C116.4 55.7306 117.026 57.1076 116.306 57.951C115.88 58.4506 114.378 58.2137 114.313 60.1588C114.294 60.7199 114.851 61.2341 115.387 61.4009C116.329 61.6936 117.372 61.5027 117.607 62.0009C118.418 63.7139 121.531 63.7667 122.195 62.7471C122.401 62.4308 124.788 63.7121 125.1 61.2964C125.258 60.0722 123.699 60.4652 124.131 59.1132Z" fill="#020205"/>
<path d="M117.961 58.522C117.766 60.3845 118.793 62.0192 120.255 62.173C121.718 62.3269 123.063 60.9419 123.259 59.0793C123.455 57.2168 122.428 55.5822 120.965 55.4282C119.502 55.2743 118.157 56.6595 117.961 58.522Z" fill="#F37A50"/>
<path d="M122.471 59.308C122.488 59.4482 122.616 59.548 122.756 59.5307C122.896 59.5135 122.996 59.3859 122.979 59.2457C122.961 59.1055 122.834 59.0057 122.693 59.023C122.553 59.0402 122.453 59.1679 122.471 59.308Z" fill="black"/>
<path d="M120.408 59.1041C120.427 59.2559 120.565 59.3638 120.717 59.3451C120.869 59.3265 120.977 59.1883 120.958 59.0365C120.939 58.8848 120.801 58.7768 120.649 58.7955C120.498 58.8141 120.39 58.9523 120.408 59.1041Z" fill="black"/>
<path d="M120.194 58.7822C120.215 58.7796 120.235 58.7702 120.251 58.754C120.482 58.5179 120.855 58.5879 120.858 58.5887C120.91 58.5989 120.961 58.5651 120.972 58.513C120.982 58.4609 120.948 58.4104 120.896 58.3998C120.877 58.3959 120.418 58.3074 120.113 58.6194C120.076 58.6574 120.077 58.7184 120.115 58.7555C120.137 58.7768 120.166 58.7857 120.194 58.7822Z" fill="#020205"/>
<path d="M123.116 59.1396C123.126 59.1384 123.136 59.1354 123.146 59.1307C123.194 59.1075 123.214 59.0498 123.191 59.002C123.01 58.6305 122.629 58.6233 122.613 58.6231C122.56 58.6227 122.516 58.6655 122.516 58.7187C122.515 58.7717 122.558 58.8151 122.611 58.8157C122.623 58.816 122.891 58.8247 123.017 59.0861C123.036 59.1241 123.076 59.1445 123.116 59.1396Z" fill="#020205"/>
<path d="M122.122 59.7754C122.206 59.9583 122.273 60.1397 122.371 60.2639C122.404 60.3059 122.397 60.3673 122.357 60.4024C122.191 60.5472 121.84 60.5909 121.63 60.604C121.6 60.6059 121.59 60.5632 121.619 60.5518C121.86 60.4553 121.982 60.3642 122.038 60.3107C122.066 60.2839 122.079 60.2456 122.074 60.2072C122.063 60.1192 122.041 59.9403 122.035 59.7961C122.033 59.7464 122.101 59.7302 122.122 59.7754Z" fill="#DE623C"/>
<path d="M120.152 60.618C120.132 60.5533 120.199 60.4962 120.259 60.5262C120.413 60.6024 120.67 60.7227 120.925 60.8126C121.179 60.9025 121.454 60.9704 121.622 61.0081C121.688 61.023 121.704 61.109 121.648 61.1469C121.475 61.2632 121.149 61.4171 120.76 61.2794C120.37 61.1415 120.213 60.817 120.152 60.618Z" fill="white"/>
<path d="M117.984 58.3542C119.67 58.7077 122.502 57.864 122.984 57.0876C123.03 55.9666 121.551 54.8718 120.449 55.0091C119.346 55.1463 117.752 56.8409 117.984 58.3542Z" fill="#020205"/>
<path d="M122.945 63.3894C124.68 63.8225 127.646 67.8768 127.924 70.9167C126.972 71.1138 125.884 70.3548 125.884 70.3548L123.527 66.9643L122.945 63.3894Z" fill="#DE623C"/>
<path d="M124.621 98.1736L125.551 94.5133L123.245 94.1959C123.166 95.927 123.036 97.6314 123.048 98.093L124.621 98.1736Z" fill="#F37A50"/>
<path d="M119.126 94.1752H116.719C116.798 94.7522 117.114 97.8762 117.114 97.8762C117.317 98.3378 119.111 98.2324 119.111 97.9728C118.976 97.4102 119.115 94.2473 119.126 94.1752Z" fill="#F37A50"/>
<path d="M123.062 95.6044L125.436 95.955L127.082 86.1097C126.743 82.3733 123.454 74.4247 123.454 74.4247L119.747 75.723L119.656 79.2285L124.121 86.7877C123.539 88.2496 123.141 92.9761 123.062 95.6044Z" fill="#C4204A"/>
<path d="M121.225 74.6871C121.192 74.4562 121.18 74.3841 120.988 74.2687L117.428 73.2589L116.58 74.0955C115.777 77.0095 116.275 81.0632 116.908 84.2801C115.981 87.0644 116.343 92.8041 116.716 95.5017H119.248C119.395 93.6984 119.349 90.3535 119.36 88.7378C119.688 87.4395 120.005 86.0546 120.287 84.5976C120.649 82.7366 121.101 80.9334 121.225 79.2456C121.339 77.6444 121.372 75.9276 121.225 74.6871Z" fill="#E62552"/>
<path d="M116.732 62.9479C115.895 63.497 112.367 68.0871 114.311 71.8673C114.401 71.9173 115.958 69.2789 115.958 69.2789L117.796 65.6402L116.732 62.9479Z" fill="#F37A50"/>
<path d="M118.5 60.5576L120.71 61.8128C120.71 61.8128 120.906 62.7078 121.004 62.9981C121.206 63.5973 120.432 63.8592 119.778 63.4862C119.124 63.1132 118.7 62.6141 118.7 62.6141L118.5 60.5576Z" fill="#F37A50"/>
<path d="M123.999 75.0013C123.999 75.0013 123.087 76.0813 122.933 76.1622L122.116 75.2703L122.111 75.2856L121.917 75.7958L121.69 76.3919C121.501 76.3919 115.805 75.1162 115.805 75.1162C115.816 74.6027 116.299 72.9394 117.081 71.1687C116.891 69.669 117.073 68.11 117.014 67.2456C117.474 64.9264 117.146 64.0361 116.731 62.9434L118.176 62.5168L120.777 63.4341L120.97 62.8069C120.97 62.8069 122.601 63.1981 122.944 63.3876L123.561 65.9592L123.427 71.4229C123.427 71.4229 123.632 73.6228 123.999 75.0013Z" fill="#3F964F"/>
<path d="M118.675 62.2339L117.656 62.6668C117.764 63.8907 120.502 64.622 120.502 64.622L120.774 63.4408L118.675 62.2339Z" fill="#0E6A41"/>
<path d="M120.773 63.4374L121.58 64.3333C121.58 64.3333 122.277 63.6123 122.025 63.1666C121.772 62.7208 120.848 62.4202 120.848 62.4202L120.773 63.4374Z" fill="#0E6A41"/>
<path d="M124.058 98.1166C124.299 97.4834 124.814 97.413 124.814 97.413C125.816 98.7495 128.277 97.9294 128.195 99.7371C124.454 99.7139 122.898 99.7371 122.898 99.7371C122.903 99.3219 122.977 98.3364 123.064 97.9507L123.259 97.9853L124.058 98.1166Z" fill="#2C2858"/>
<path d="M127.979 100.215H123.117C122.996 100.215 122.898 100.117 122.898 99.9965V99.6827H128.197V99.9965C128.197 100.117 128.1 100.215 127.979 100.215Z" fill="#2C2858"/>
<path d="M122.109 75.2892L121.916 75.7994C121.74 74.6254 121.085 69.7118 121.455 68.355C121.801 67.0808 121.368 65.7373 120.948 64.4382C120.846 64.1206 120.739 63.7925 120.648 63.4743L120.776 63.4378L120.903 63.4013C120.993 63.7152 121.098 64.0412 121.2 64.3568C121.631 65.6929 122.077 67.0745 121.71 68.4249C121.391 69.5959 121.88 73.6296 122.109 75.2892Z" fill="#0E6A41"/>
<path d="M119.528 99.7537C119.528 99.7537 119.227 98.6331 119.201 98.4891C119.171 98.3254 119.082 97.9384 119.064 97.7399C119.06 97.6911 118.544 97.3756 118.15 97.3762C117.617 97.3771 117.131 97.6861 117.121 97.7445C117.058 98.1185 117.056 98.5582 116.954 98.9224C116.878 99.1933 116.672 99.8246 116.672 99.8246L119.528 99.7537Z" fill="#2C2858"/>
<path d="M119.531 99.6643C119.46 99.8868 118.597 99.6301 117.967 99.6303C117.437 99.6305 116.753 99.8355 116.675 99.7557C116.543 99.9894 116.652 100.474 116.652 100.474C116.652 100.474 117.203 100.502 117.864 100.474C118.526 100.445 119.29 100.487 119.578 100.402C119.76 100.098 119.531 99.6643 119.531 99.6643Z" fill="#2C2858"/>
<path d="M120.635 68.0951C120.635 68.0951 116.077 72.6647 114.305 71.8706C113.722 71.0813 114.961 69.4972 116.123 68.9664C117.279 68.4378 119.221 67.6047 119.221 67.6047L120.635 68.0951Z" fill="#F37A50"/>
<path d="M121.501 66.5384L123.396 65.0768C123.437 65.0454 123.489 65.0324 123.54 65.041L124.83 65.275C124.867 65.2812 124.943 65.5064 124.913 65.529L123.625 66.3029C123.619 66.3076 123.612 66.3105 123.604 66.3114L121.579 66.6588C121.536 66.6635 121.467 66.5646 121.501 66.5384Z" fill="#F9CD2D"/>
<path d="M121.595 66.6794L123.396 65.3045C123.438 65.273 123.49 65.26 123.541 65.2687L124.874 65.494C124.911 65.5002 124.922 65.5474 124.893 65.57L123.626 66.5306C123.62 66.5353 123.612 66.5382 123.605 66.539L121.626 66.7557C121.583 66.7604 121.561 66.7056 121.595 66.6794Z" fill="#F9F93A"/>
<path d="M119.172 67.6262L120.236 67.0932C120.236 67.0932 120.911 66.3588 121.122 66.1393C121.392 66.0609 121.916 65.8346 122.023 65.8423C122.13 65.8499 122.311 65.9132 122.311 65.9132L121.695 66.3952C121.695 66.3952 121.946 66.5111 122.298 66.3703C122.65 66.2294 123.307 65.7975 123.56 65.9525C123.64 66.0559 123.64 66.0559 123.64 66.0559C123.64 66.0559 123.862 65.8841 123.996 66.0033C124.409 66.3717 121.745 67.9589 121.745 67.9589L120.635 68.0919L119.172 67.6262Z" fill="#F37A50"/>
<path d="M123.593 65.6009C123.518 65.6523 123.425 65.6469 123.385 65.5888C123.345 65.5308 123.374 65.4422 123.449 65.391C123.524 65.3397 123.617 65.3451 123.657 65.4031C123.696 65.461 123.668 65.5497 123.593 65.6009Z" fill="#F9CD2D"/>
<path d="M127.922 70.919C127.922 70.919 125.559 73.6211 123.914 74.0029C123.817 73.4615 123.727 73.0467 123.727 73.0467L125.969 70.0948L127.922 70.919Z" fill="#DE623C"/>
<path d="M123.609 74.1538C123.617 74.1306 123.629 74.1101 123.643 74.091C123.639 74.0898 123.635 74.0889 123.631 74.0876C123.397 74.0101 123.253 73.8115 123.309 73.644C123.318 73.6166 123.332 73.592 123.35 73.5698C123.227 73.4739 123.164 73.3387 123.204 73.2192C123.22 73.1717 123.25 73.1322 123.291 73.1011C123.161 73.0134 123.094 72.8667 123.139 72.7328C123.194 72.5654 123.401 72.4832 123.6 72.5495C123.8 72.6156 123.916 72.805 123.86 72.9724C123.846 73.0148 123.822 73.0517 123.792 73.0821C123.986 73.1719 124.1 73.3485 124.049 73.4998C124.04 73.5273 124.026 73.552 124.008 73.5741C124.132 73.6701 124.194 73.8053 124.154 73.9248C124.14 73.9688 124.112 74.0062 124.076 74.0361C124.195 74.1089 124.257 74.2384 124.218 74.3561C124.171 74.4976 123.997 74.5669 123.828 74.511C123.66 74.4552 123.562 74.2952 123.609 74.1538Z" fill="#DE623C"/>
<path d="M118.51 58.6337C118.785 59.0619 118.723 59.5909 118.373 59.8154C118.022 60.0399 117.516 59.8747 117.242 59.4466C116.967 59.0186 117.029 58.4895 117.379 58.265C117.73 58.0406 118.236 58.2056 118.51 58.6337Z" fill="#F37A50"/>
<path d="M117.943 59.5598C117.959 59.5578 117.976 59.5519 117.991 59.542C118.204 59.4001 118.295 59.1877 118.232 58.974C118.169 58.7551 117.964 58.5929 117.746 58.5884C117.685 58.5872 117.634 58.6359 117.633 58.6972C117.632 58.7587 117.68 58.8095 117.742 58.8107C117.861 58.8132 117.983 58.9122 118.019 59.036C118.054 59.1551 118 59.2689 117.868 59.3568C117.816 59.3908 117.803 59.4598 117.836 59.5109C117.861 59.5472 117.902 59.5647 117.943 59.5598Z" fill="#DE623C"/>
<path d="M11.2427 76.2583C12.3276 78.2425 11.5987 80.7304 9.61453 81.8154C7.63041 82.9004 5.14238 82.1714 4.05748 80.1873C2.97253 78.2033 3.70148 75.7152 5.68561 74.6303C7.66968 73.5453 10.1577 74.2742 11.2427 76.2583Z" fill="white"/>
<path d="M8.94095 81.1303L8.56678 80.446C8.17012 80.6541 7.69691 80.7544 7.36716 80.7148L7.28158 80.1719C7.61437 80.2011 8.03707 80.1371 8.4165 79.9298C8.89752 79.6668 9.07084 79.211 8.85969 78.8249C8.65596 78.4523 8.26572 78.3664 7.65326 78.4372C6.81402 78.5442 6.21673 78.4659 5.89441 77.8765C5.58693 77.3142 5.75327 76.6687 6.32103 76.2262L5.94686 75.5419L6.36695 75.3123L6.72633 75.9695C7.14028 75.7607 7.47733 75.7172 7.73679 75.725L7.8119 76.2647C7.62517 76.2612 7.2659 76.264 6.83224 76.5012C6.31057 76.7864 6.28448 77.2055 6.4327 77.4765C6.62536 77.8289 6.97233 77.8679 7.69519 77.7895C8.54866 77.6924 9.09361 77.8521 9.4233 78.4552C9.71599 78.9904 9.6175 79.6956 8.98266 80.1923L9.36796 80.8969L8.94095 81.1303Z" fill="#E3EAFF"/>
<path d="M140.121 63.7891C139.149 65.831 136.706 66.6986 134.664 65.727C132.622 64.7553 131.755 62.3122 132.726 60.2703C133.698 58.2282 136.141 57.3606 138.183 58.3323C140.225 59.304 141.093 61.7471 140.121 63.7891Z" fill="white"/>
<path d="M134.828 64.7786L135.163 64.0743C134.762 63.8749 134.403 63.5503 134.242 63.2599L134.632 62.8724C134.803 63.1592 135.103 63.4641 135.493 63.6499C135.988 63.8855 136.459 63.7589 136.648 63.3615C136.831 62.9779 136.672 62.6115 136.255 62.1568C135.677 61.5394 135.39 61.0096 135.679 60.403C135.954 59.8243 136.575 59.5808 137.266 59.7815L137.601 59.0771L138.033 59.2829L137.711 59.9593C138.123 60.1722 138.356 60.4199 138.502 60.6347L138.108 61.0119C138.002 60.8586 137.789 60.5691 137.343 60.3568C136.806 60.1013 136.451 60.3258 136.318 60.6047C136.146 60.9673 136.317 61.2714 136.804 61.8111C137.383 62.4456 137.573 62.9808 137.278 63.6014C137.016 64.1522 136.387 64.4857 135.612 64.2625L135.267 64.9877L134.828 64.7786Z" fill="#E3EAFF"/>
<path d="M127.14 22.1802C128.051 24.2497 127.113 26.6664 125.043 27.5779C122.973 28.4895 120.557 27.5507 119.645 25.4813C118.734 23.4117 119.672 20.995 121.742 20.0835C123.812 19.172 126.228 20.1107 127.14 22.1802Z" fill="#D4DEFF"/>
<path d="M124.434 26.8401L124.12 26.1264C123.707 26.2998 123.227 26.3594 122.902 26.2917L122.863 25.7435C123.192 25.8011 123.619 25.7736 124.014 25.5992C124.516 25.3782 124.728 24.9391 124.55 24.5363C124.379 24.1476 123.998 24.0287 123.381 24.0471C122.536 24.0819 121.948 23.9529 121.677 23.3381C121.418 22.7516 121.639 22.1227 122.243 21.7304L121.928 21.0166L122.367 20.8236L122.668 21.5091C123.099 21.3364 123.438 21.3219 123.696 21.3518L123.725 21.896C123.539 21.8765 123.181 21.8487 122.729 22.0479C122.185 22.2876 122.123 22.7029 122.247 22.9856C122.409 23.3531 122.752 23.4216 123.478 23.4052C124.337 23.3814 124.866 23.5871 125.143 24.216C125.389 24.7744 125.231 25.4684 124.556 25.9092L124.88 26.6441L124.434 26.8401Z" fill="white"/>
<path d="M0.03125 47.6415L2.73431 42.5991C2.73431 42.5991 6.03188 42.8811 7.54546 46.7022C8.48368 49.0707 11.6681 50.2997 11.6681 50.2997L8.95063 55.3688C8.95063 55.3688 4.79371 54.2562 3.76692 51.5305C2.68102 48.6478 0.03125 47.6415 0.03125 47.6415Z" fill="#D4DEFF"/>
<path d="M7.44203 50.7163C6.5459 51.4697 5.10699 51.2327 4.22815 50.1873C3.34936 49.1418 3.36338 47.6835 4.2595 46.9303C5.15563 46.177 6.59454 46.4139 7.47332 47.4594C8.35222 48.5049 8.33815 49.9631 7.44203 50.7163Z" fill="#E3EAFF"/>
<path d="M107.242 14.9093L103.438 10.6364C103.438 10.6364 104.837 7.63719 108.945 7.53067C111.492 7.46464 113.742 4.89746 113.742 4.89746L117.566 9.19292C117.566 9.19292 115.091 12.7133 112.179 12.7396C109.099 12.7675 107.242 14.9093 107.242 14.9093Z" fill="#D4DEFF"/>
<path d="M112.682 9.00941C113.081 10.11 112.364 11.3795 111.079 11.845C109.795 12.3104 108.431 11.7955 108.032 10.695C107.633 9.59434 108.351 8.32488 109.635 7.85937C110.919 7.39391 112.283 7.90883 112.682 9.00941Z" fill="#E3EAFF"/>
<path d="M132.234 78.9649L132.856 74.3384C132.856 74.3384 135.456 73.6095 137.706 76.0955C139.101 77.6364 141.886 77.6634 141.886 77.6634L141.262 82.3144C141.262 82.3144 137.767 82.6549 136.202 80.8664C134.547 78.9749 132.234 78.9649 132.234 78.9649Z" fill="#D4DEFF"/>
<path d="M138.773 79.2024C138.304 80.0346 137.137 80.2657 136.166 79.7186C135.195 79.1715 134.788 78.0533 135.257 77.2212C135.726 76.389 136.893 76.1579 137.864 76.7052C138.835 77.2522 139.242 78.3703 138.773 79.2024Z" fill="#E3EAFF"/>
<path d="M72.4214 36.3634L71.7798 31.5853C71.7798 31.5853 69.0945 30.8325 66.7701 33.3999C65.3293 34.9914 62.4531 35.0192 62.4531 35.0192L63.0981 39.8226C63.0981 39.8226 66.7071 40.1742 68.3235 38.3272C70.0329 36.3738 72.4214 36.3634 72.4214 36.3634Z" fill="#D4DEFF"/>
<path d="M65.6621 36.5996C66.1464 37.4591 67.3518 37.6977 68.3544 37.1327C69.3571 36.5677 69.7772 35.4129 69.2929 34.5535C68.8086 33.6941 67.6032 33.4555 66.6006 34.0205C65.598 34.5855 65.1778 35.7402 65.6621 36.5996Z" fill="#E3EAFF"/>
<path d="M54.1037 84.8007H29.922C28.8476 84.8007 27.9766 83.9297 27.9766 82.8553V77.7407C27.9766 76.6663 28.8475 75.7953 29.922 75.7953H54.1037C55.1781 75.7953 56.0491 76.6663 56.0491 77.7407V82.8553C56.0491 83.9297 55.1781 84.8007 54.1037 84.8007Z" fill="#E3EAFF"/>
<path d="M36.701 79.0269V81.5606C36.701 82.2435 36.1476 82.7969 35.4647 82.7969H30.6733C30.4218 82.7969 30.1875 82.7216 29.992 82.592C29.658 82.371 29.4375 81.9915 29.4375 81.5606V79.0269C29.4375 78.344 29.9909 77.7907 30.6733 77.7907H35.4647C35.7433 77.7907 36.0009 77.8832 36.2075 78.0393C36.5071 78.2642 36.701 78.6231 36.701 79.0269Z" fill="#D6224C"/>
<path d="M46.4656 81.3283H38.515C37.9458 81.3283 37.4844 80.8668 37.4844 80.2977C37.4844 79.7285 37.9458 79.267 38.515 79.267H46.4656C47.0348 79.267 47.4962 79.7285 47.4962 80.2977C47.4962 80.8668 47.0348 81.3283 46.4656 81.3283Z" fill="#95A6DB"/>
<path d="M53.5694 81.3283H49.5853C49.0161 81.3283 48.5547 80.8668 48.5547 80.2977C48.5547 79.7285 49.0161 79.267 49.5853 79.267H53.5694C54.1386 79.267 54.6 79.7285 54.6 80.2977C54.6 80.8668 54.1387 81.3283 53.5694 81.3283Z" fill="#4EAD60"/>
<path d="M36.2075 78.041L29.992 82.5937C29.658 82.3727 29.4375 81.9932 29.4375 81.5623V79.0286C29.4375 78.3457 29.9909 77.7924 30.6733 77.7924H35.4647C35.7433 77.7924 36.0009 77.8849 36.2075 78.041Z" fill="#E62552"/>
<path d="M34.2861 82.2066C34.7451 82.1931 35.1062 81.8101 35.0927 81.3512C35.0792 80.8923 34.6962 80.5312 34.2372 80.5447C33.7783 80.5581 33.4172 80.9411 33.4307 81.4001C33.4442 81.859 33.8272 82.2201 34.2861 82.2066Z" fill="#FAC832"/>
<path d="M36.0768 81.3762C36.0768 81.8354 35.7046 82.2076 35.2454 82.2076C34.7863 82.2076 34.4141 81.8354 34.4141 81.3762C34.4141 80.9171 34.7863 80.5449 35.2454 80.5449C35.7046 80.545 36.0768 80.9171 36.0768 81.3762Z" fill="#95A6DB"/>
<path d="M54.1037 95.7105H29.922C28.8476 95.7105 27.9766 94.8396 27.9766 93.7651V88.6506C27.9766 87.5761 28.8475 86.7052 29.922 86.7052H54.1037C55.1781 86.7052 56.0491 87.5761 56.0491 88.6506V93.7651C56.0491 94.8396 55.1781 95.7105 54.1037 95.7105Z" fill="#E3EAFF"/>
<path d="M36.701 89.9436V92.4772C36.701 93.1602 36.1476 93.7135 35.4647 93.7135H30.6733C30.4218 93.7135 30.1875 93.6382 29.992 93.5086C29.658 93.2876 29.4375 92.9081 29.4375 92.4772V89.9436C29.4375 89.2606 29.9909 88.7072 30.6733 88.7072H35.4647C35.7433 88.7072 36.0009 88.7997 36.2075 88.9559C36.5071 89.1808 36.701 89.5398 36.701 89.9436Z" fill="#FABA23"/>
<path d="M46.4656 92.2415H38.515C37.9458 92.2415 37.4844 91.7801 37.4844 91.2109C37.4844 90.6416 37.9458 90.1802 38.515 90.1802H46.4656C47.0348 90.1802 47.4962 90.6416 47.4962 91.2109C47.4962 91.7801 47.0348 92.2415 46.4656 92.2415Z" fill="#95A6DB"/>
<path d="M53.5694 92.2415H49.5853C49.0161 92.2415 48.5547 91.7801 48.5547 91.2109C48.5547 90.6416 49.0161 90.1802 49.5853 90.1802H53.5694C54.1386 90.1802 54.6 90.6416 54.6 91.2109C54.6 91.7801 54.1387 92.2415 53.5694 92.2415Z" fill="#4EAD60"/>
<path d="M36.2075 88.9545L29.992 93.5071C29.658 93.2861 29.4375 92.9066 29.4375 92.4757V89.9421C29.4375 89.2591 29.9909 88.7057 30.6733 88.7057H35.4647C35.7433 88.7057 36.0009 88.7983 36.2075 88.9545Z" fill="#FAD332"/>
<path d="M35.0923 92.2827C35.0923 92.7419 34.7201 93.1141 34.261 93.1141C33.8019 93.1141 33.4297 92.7419 33.4297 92.2827C33.4297 91.8237 33.8019 91.4514 34.261 91.4514C34.7201 91.4514 35.0923 91.8237 35.0923 92.2827Z" fill="#E62552"/>
<path d="M36.0768 92.2827C36.0768 92.7419 35.7046 93.1141 35.2454 93.1141C34.7863 93.1141 34.4141 92.7419 34.4141 92.2827C34.4141 91.8237 34.7863 91.4514 35.2454 91.4514C35.7046 91.4514 36.0768 91.8237 36.0768 92.2827Z" fill="#95A6DB"/>
</svg>
