<svg width="40" height="40" viewBox="0 0 40 40" fill="none" xmlns="http://www.w3.org/2000/svg">
<g clip-path="url(#clip0_595_104016)">
<path d="M34 0H6C2.68629 0 0 2.68629 0 6V34C0 37.3137 2.68629 40 6 40H34C37.3137 40 40 37.3137 40 34V6C40 2.68629 37.3137 0 34 0Z" fill="#37AEE2"/>
<path d="M15.5469 31.5625C14.6875 31.5625 14.7656 31.25 14.5312 30.4687L12.0312 22.2656L31.1719 11.0156" fill="#C8DAEA"/>
<path d="M15.5469 31.5625C16.0937 31.5625 16.4062 31.25 16.7969 30.9375L20.3125 27.5781L15.9375 24.9219" fill="#A9C9DD"/>
<path d="M15.9367 24.9219L26.4836 32.6562C27.5773 33.3594 28.5148 32.9687 28.8273 31.5625L33.1242 11.4062C33.5148 9.68749 32.4211 8.90624 31.2492 9.45312L6.17106 19.1406C4.53043 19.7656 4.53043 20.7812 5.85856 21.1719L12.3429 23.2031L27.1867 13.75C27.8898 13.3594 28.5148 13.5156 28.0461 14.0625" fill="white"/>
</g>
<defs>
<clipPath id="clip0_595_104016">
<rect width="40" height="40" rx="20" fill="white"/>
</clipPath>
</defs>
</svg>
