<svg width="40" height="40" viewBox="0 0 40 40" fill="none" xmlns="http://www.w3.org/2000/svg">
<g clip-path="url(#clip0_595_104013)">
<path d="M34.1698 5.81282C30.4095 2.06655 25.4095 0.00228568 20.0824 0C9.10499 0 0.171594 8.89125 0.167199 19.8199C0.16592 23.3132 1.08273 26.7233 2.82533 29.7291L0 40L10.5573 37.2439C13.466 38.8233 16.741 39.6555 20.0738 39.6568H20.0823H20.0824C31.058 39.6568 39.9928 30.764 39.9974 19.8359C39.9992 14.5394 37.9295 9.55935 34.1698 5.81282ZM20.0824 36.3092H20.0759C17.1052 36.3076 14.1921 35.5136 11.6511 34.0124L11.0464 33.6555L4.7815 35.2909L6.45414 29.2117L6.06015 28.5885C4.40309 25.9653 3.52829 22.9339 3.52954 19.8211C3.53318 10.7376 10.9583 3.34778 20.0887 3.34778C24.5101 3.34961 28.6657 5.06544 31.7911 8.17922C34.9162 11.293 36.6361 15.4323 36.6348 19.8345C36.6309 28.9183 29.2055 36.3092 20.0824 36.3092Z" fill="#E0E0E0"/>
<path d="M0.914062 38.8604L3.61033 29.0587C1.9469 26.1901 1.07214 22.9356 1.07319 19.6024C1.07756 9.17324 9.60296 0.688385 20.078 0.688385C25.1621 0.690671 29.9337 2.66054 33.5214 6.23577C37.1098 9.81098 39.0848 14.5632 39.0828 19.6172C39.0784 30.0467 30.5525 38.5323 20.0788 38.5323C20.078 38.5323 20.0793 38.5323 20.0788 38.5323H20.0703C16.8897 38.5312 13.7646 37.7364 10.9889 36.2303L0.914062 38.8604Z" fill="url(#paint0_linear_595_104013)"/>
<path fill-rule="evenodd" clip-rule="evenodd" d="M15.1611 11.4054C14.7927 10.5898 14.4048 10.5735 14.0542 10.5592C13.7675 10.547 13.4393 10.5477 13.1116 10.5477C12.7836 10.5477 12.2507 10.6704 11.8 11.1605C11.349 11.6505 10.0781 12.8352 10.0781 15.2446C10.0781 17.6543 11.841 19.9826 12.0867 20.3096C12.3327 20.6361 15.4896 25.7386 20.4894 27.7016C24.6446 29.3329 25.4901 29.0084 26.392 28.9268C27.294 28.8452 29.3023 27.7424 29.7122 26.5988C30.1222 25.4554 30.1222 24.4753 29.9992 24.2705C29.8762 24.0664 29.5482 23.9439 29.0563 23.699C28.5643 23.4542 26.1461 22.2692 25.6951 22.106C25.2442 21.9427 24.9162 21.8611 24.5882 22.3514C24.2602 22.8412 23.3181 23.9439 23.0311 24.2705C22.7441 24.5977 22.4572 24.6386 21.9652 24.3937C21.4733 24.148 19.889 23.6314 18.0096 21.9631C16.5473 20.6651 15.5601 19.0621 15.2731 18.5718C14.9861 18.082 15.2423 17.8167 15.4891 17.5726C15.71 17.3532 15.9811 17.0009 16.227 16.7149C16.4725 16.4289 16.5545 16.2249 16.7185 15.8983C16.8824 15.5713 16.8004 15.2853 16.6775 15.0404C16.5545 14.7956 15.5985 12.3737 15.1611 11.4054Z" fill="white"/>
<path d="M34.0119 5.74985C30.2948 2.04659 25.3522 0.00605674 20.0863 0.0037384C9.23484 0.0037384 0.404001 8.79291 0.399639 19.5961C0.39836 23.0494 1.30464 26.4202 3.02723 29.3916L0.234375 39.5445L10.6705 36.8201C13.5458 38.3813 16.7833 39.204 20.0778 39.2053H20.0862H20.0863C30.9359 39.2053 39.768 30.4145 39.7726 19.6119C39.7744 14.3763 37.7285 9.45338 34.0119 5.74985ZM20.0863 35.8961H20.0799C17.1433 35.8946 14.2635 35.1097 11.7517 33.6258L11.154 33.273L4.96097 34.8895L6.6144 28.8802L6.22493 28.2641C4.58689 25.671 3.72213 22.6744 3.72341 19.5974C3.72699 10.6182 11.0668 3.31315 20.0924 3.31315C24.4631 3.31494 28.571 5.01109 31.6605 8.08912C34.7498 11.1672 36.4499 15.2589 36.4486 19.6107C36.4448 28.5901 29.1046 35.8961 20.0863 35.8961Z" fill="white"/>
</g>
<defs>
<linearGradient id="paint0_linear_595_104013" x1="19.9984" y1="38.8604" x2="19.9984" y2="0.688449" gradientUnits="userSpaceOnUse">
<stop stop-color="#20B038"/>
<stop offset="1" stop-color="#60D66A"/>
</linearGradient>
<clipPath id="clip0_595_104013">
<rect width="40" height="40" fill="white"/>
</clipPath>
</defs>
</svg>
