<svg width="32" height="32" viewBox="0 0 32 32" fill="none" xmlns="http://www.w3.org/2000/svg">
<g clip-path="url(#clip0_623_67529)">
<mask id="mask0_623_67529" style="mask-type:luminance" maskUnits="userSpaceOnUse" x="2" y="2" width="28" height="28">
<path d="M29.5753 2.34375H2.42383V29.4953H29.5753V2.34375Z" fill="white"/>
</mask>
<g mask="url(#mask0_623_67529)">
<path fill-rule="evenodd" clip-rule="evenodd" d="M29.5072 14.8936C29.4243 15.2388 29.2715 15.5636 29.0584 15.8475L27.4225 18.0366C27.3696 18.1077 27.334 18.1901 27.3187 18.2773C27.3033 18.3646 27.3087 18.4542 27.3343 18.5389L28.1285 21.1658C28.2308 21.507 28.2621 21.8654 28.2207 22.2191C28.1793 22.5729 28.0658 22.9144 27.8875 23.2226C27.7127 23.5267 27.4772 23.7918 27.1958 24.0013C26.9145 24.2109 26.593 24.3605 26.2516 24.441L23.6111 25.0587C23.5284 25.0793 23.4516 25.1189 23.3868 25.1743C23.3221 25.2296 23.2711 25.2993 23.2378 25.3777L22.1789 27.9062C22.042 28.2344 21.8385 28.5309 21.5815 28.7768C21.3246 29.0227 21.0195 29.2128 20.6855 29.335C20.406 29.4364 20.1107 29.4881 19.8133 29.4878C19.4063 29.4872 19.0052 29.3907 18.6424 29.2061L16.2259 27.9571C16.1527 27.9203 16.0719 27.9012 15.99 27.9012C15.9081 27.9012 15.8274 27.9203 15.7542 27.9571L13.3411 29.2061C13.0259 29.3682 12.6805 29.4631 12.3268 29.4849C11.973 29.5067 11.6187 29.4548 11.286 29.3327C10.9533 29.2105 10.6496 29.0207 10.394 28.7751C10.1384 28.5296 9.93657 28.2338 9.80118 27.9062L8.74227 25.3777C8.70914 25.2997 8.65854 25.2305 8.59441 25.1751C8.53027 25.1199 8.45432 25.08 8.37235 25.0587L5.73185 24.441C5.38894 24.3574 5.06698 24.2039 4.78609 23.9902C4.5052 23.7764 4.27138 23.507 4.09935 23.1988C3.92154 22.8903 3.80876 22.5487 3.76791 22.195C3.72705 21.8413 3.75899 21.483 3.86178 21.1421L4.65256 18.5152C4.67887 18.4307 4.68491 18.3412 4.67017 18.2539C4.65542 18.1666 4.62031 18.084 4.56771 18.0129L2.93525 15.8204C2.72469 15.5349 2.57429 15.2096 2.49319 14.8642C2.4121 14.5188 2.402 14.1606 2.46348 13.8112C2.52662 13.4672 2.65866 13.1395 2.85173 12.8479C3.04478 12.5563 3.29488 12.3067 3.5869 12.1142L5.86082 10.6175C5.93315 10.5689 5.99298 10.5039 6.03545 10.4279C6.07791 10.3518 6.1018 10.2667 6.10518 10.1796L6.24773 7.43737C6.26481 7.08379 6.3545 6.73748 6.51119 6.42006C6.66787 6.10263 6.8882 5.82087 7.15849 5.59229C7.42878 5.3637 7.74326 5.19321 8.08229 5.0914C8.42133 4.98959 8.77768 4.95864 9.12919 5.0005L11.8172 5.33989C11.8998 5.35095 11.9838 5.34159 12.0619 5.3126C12.14 5.2836 12.2098 5.23586 12.2652 5.1736L14.1149 3.16441C14.3543 2.90332 14.6454 2.69481 14.9697 2.5522C15.2939 2.40959 15.6443 2.33594 15.9985 2.33594C16.3527 2.33594 16.7031 2.40959 17.0274 2.5522C17.3516 2.69481 17.6427 2.90332 17.8822 3.16441L19.7285 5.1736C19.7847 5.23567 19.8551 5.28322 19.9337 5.31218C20.0123 5.34114 20.0967 5.35064 20.1799 5.33989L22.8679 5.0005C23.2161 4.95828 23.5692 4.98801 23.9055 5.08784C24.2418 5.18767 24.554 5.35551 24.8228 5.58089C25.0954 5.81073 25.3181 6.09406 25.4768 6.41339C25.6357 6.73272 25.7272 7.08123 25.7459 7.43737L25.8885 10.1796C25.8925 10.2669 25.917 10.3521 25.96 10.4282C26.0031 10.5042 26.0634 10.5691 26.1362 10.6175L28.4068 12.1142C28.7036 12.3092 28.9572 12.563 29.1522 12.8597C29.3471 13.1565 29.4791 13.4901 29.5402 13.8399C29.6012 14.1897 29.59 14.5483 29.5072 14.8936Z" fill="#1A7A5E"/>
<path d="M12.1211 16.628L15.0302 19.7957L20.8484 13.0078" stroke="#F1FAFE" stroke-width="2.90909" stroke-linecap="round" stroke-linejoin="round"/>
</g>
</g>
<defs>
<clipPath id="clip0_623_67529">
<rect width="32" height="32" fill="white"/>
</clipPath>
</defs>
</svg>
