<svg width="20" height="20" viewBox="0 0 20 20" fill="none" xmlns="http://www.w3.org/2000/svg">
<g clip-path="url(#clip0_661_52135)">
<g clip-path="url(#clip1_661_52135)">
<path d="M10.9863 0.527219C10.6588 0.494224 10.33 0.477818 10.001 0.477967H9.99118C9.44673 0.486969 9.01135 0.933363 9.01604 1.47796V5.4037C9.01474 5.5359 9.04159 5.66686 9.09479 5.7879C9.17773 5.98529 9.32293 6.15016 9.50827 6.25738C9.69361 6.3646 9.90892 6.40829 10.1214 6.38178C10.6256 6.30619 10.9956 5.86869 10.9863 5.35906V2.5139C14.6649 2.99675 17.4488 6.07909 17.5555 9.78791C17.6621 13.4966 15.0602 16.734 11.4154 17.4274C7.7706 18.121 4.16151 16.0654 2.89873 12.5767C1.636 9.0879 3.09317 5.19851 6.33752 3.39842C6.76878 3.15414 6.94928 2.62579 6.75747 2.16879L6.75629 2.166C6.70312 2.0375 6.62339 1.92169 6.52233 1.82615C6.42127 1.73061 6.30116 1.65752 6.16988 1.61165C6.03859 1.56579 5.89909 1.54819 5.76052 1.56001C5.62196 1.57183 5.48746 1.61281 5.36584 1.68025C1.26092 3.96743 -0.562008 8.90699 1.07284 13.3124C2.7076 17.7179 7.31159 20.2723 11.9148 19.3279C16.518 18.3835 19.7443 14.2228 19.5124 9.52934C19.2806 4.83611 15.66 1.01341 10.9863 0.527219Z" fill="#45A081"/>
<path d="M6.40122 6.83687C6.79751 7.88032 8.09398 10.3441 9.06377 11.393C9.65996 12.0661 10.678 12.1562 11.3833 11.5985C11.5577 11.4522 11.6998 11.271 11.8006 11.0668C11.9015 10.8625 11.9586 10.6396 11.9687 10.4121C11.9786 10.1845 11.9412 9.9574 11.8587 9.74521C11.7762 9.53293 11.6505 9.34007 11.4895 9.17895C10.4753 8.16481 7.90114 6.82114 6.82175 6.41138C6.76254 6.38914 6.69814 6.3845 6.63634 6.39803C6.57454 6.41156 6.51796 6.44268 6.47346 6.48764C6.42899 6.53266 6.39851 6.58959 6.3857 6.65155C6.37288 6.71352 6.37826 6.77791 6.40122 6.83687Z" fill="#45A081"/>
</g>
</g>
<defs>
<clipPath id="clip0_661_52135">
<rect width="20" height="20" fill="white"/>
</clipPath>
<clipPath id="clip1_661_52135">
<rect width="19.0476" height="20" fill="white" transform="translate(0.476562)"/>
</clipPath>
</defs>
</svg>
