<svg width="40" height="40" viewBox="0 0 40 40" fill="none" xmlns="http://www.w3.org/2000/svg">
<path d="M29.1319 15.0184C29.1443 15.0184 29.1568 15.0183 29.1693 15.0183C33.3114 15.0183 36.6693 18.3824 36.6693 22.5321C36.6693 26.3996 33.7526 29.5847 30.0026 30M29.1319 15.0184C29.1566 14.7434 29.1693 14.4649 29.1693 14.1835C29.1693 9.11158 25.0652 5 20.0026 5C15.208 5 11.2731 8.68778 10.87 13.3865M29.1319 15.0184C28.9615 16.9126 28.217 18.641 27.074 20.0275M10.87 13.3865C6.64257 13.7895 3.33594 17.3565 3.33594 21.6972C3.33594 25.7362 6.19887 29.1053 10.0026 29.8789M10.87 13.3865C11.133 13.3614 11.3997 13.3486 11.6693 13.3486C13.5456 13.3486 15.2772 13.9699 16.6701 15.0183" stroke="#1A7A5E" stroke-width="1.5" stroke-linecap="round" stroke-linejoin="round"/>
<path d="M20.0026 21.667L20.0026 35.0003M24.1693 25.8337C23.3501 24.9908 21.1696 21.667 20.0026 21.667C18.8356 21.667 16.6552 24.9908 15.8359 25.8337" stroke="#1A7A5E" stroke-width="1.5" stroke-linecap="round" stroke-linejoin="round"/>
</svg>
