<svg width="42" height="54" viewBox="0 0 42 54" fill="none" xmlns="http://www.w3.org/2000/svg">
<g clip-path="url(#clip0_661_52603)">
<path d="M39.6412 13.8446V47.7965C39.6412 50.9323 37.1469 53.4742 34.0676 53.4742H7.92904C4.84975 53.4729 2.35547 50.9323 2.35547 47.7952V13.8446C2.35547 10.7074 4.84975 8.16431 7.92904 8.16431H34.0676C37.1469 8.16559 39.6412 10.7074 39.6412 13.8446Z" fill="#0087BA"/>
<path d="M39.6394 13.8446V47.7964C39.6394 50.9323 37.1451 53.4742 34.0671 53.4742H9.31966C6.24167 53.4742 3.74609 50.9323 3.74609 47.7964V13.8446C3.74609 10.7074 6.24167 8.16559 9.31966 8.16559H34.0671C37.1451 8.16559 39.6394 10.7074 39.6394 13.8446Z" fill="#0297CF"/>
<path d="M31.4421 13.9667H34.7361V47.0315H7.25781V13.9667H10.5518" fill="#F4F4F4"/>
<path fill-rule="evenodd" clip-rule="evenodd" d="M25.8585 6.60087H29.1564C30.4203 6.60087 31.445 7.64487 31.445 8.93187V14.2547C31.445 15.5417 30.4203 16.5857 29.1564 16.5857H12.8433C11.5794 16.5857 10.5547 15.5417 10.5547 14.256V8.93315C10.5547 7.64487 11.5794 6.60087 12.8433 6.60087H16.1411C16.0066 6.13094 15.9382 5.64454 15.938 5.15572C15.938 2.20244 18.377 -0.172277 21.3161 0.0102949C23.7693 0.162009 25.7827 2.13044 26.0347 4.62087C26.1054 5.31387 26.0347 5.98115 25.8585 6.60087ZM19.0057 5.15701C19.0057 6.27944 19.898 7.18972 21.0011 7.18972C22.1017 7.18972 22.9953 6.27944 22.9953 5.15701C22.9953 4.0333 22.1017 3.1243 21.0011 3.1243C19.898 3.1243 19.0044 4.0333 19.0044 5.15572L19.0057 5.15701Z" fill="#5FC0CA"/>
<path fill-rule="evenodd" clip-rule="evenodd" d="M14.9883 20.052H18.8583C19.1797 20.052 19.469 20.106 19.7274 20.2114C19.9846 20.3169 20.207 20.4621 20.3909 20.646C20.5747 20.8311 20.7161 21.0446 20.8126 21.2863C20.9103 21.5293 20.9591 21.7903 20.9591 22.0706C20.9591 22.5 20.8691 22.8716 20.693 23.1853C20.5143 23.5003 20.225 23.7381 19.8226 23.9027V23.9233C20.0002 23.9692 20.1651 24.0549 20.3047 24.174C20.4333 24.2871 20.5361 24.4196 20.6171 24.5726C20.6969 24.7269 20.756 24.8953 20.7933 25.0804C20.8293 25.2643 20.855 25.4481 20.8679 25.6333C20.8756 25.749 20.8807 25.8853 20.8884 26.0421C20.8949 26.199 20.9064 26.3597 20.9231 26.5243C20.9399 26.6876 20.9669 26.8431 21.0041 26.9897C21.0354 27.1234 21.0917 27.2499 21.17 27.3626H19.5911C19.4973 27.0959 19.4431 26.817 19.4304 26.5346C19.4118 26.2263 19.3818 25.9188 19.3404 25.6127C19.2864 25.2309 19.1733 24.9506 18.9984 24.7731C18.8249 24.5957 18.5394 24.507 18.1447 24.507H16.5659V27.3639H14.9883V20.052ZM16.5659 23.3601H18.2951C18.6564 23.3601 18.9277 23.2779 19.109 23.1133C19.289 22.95 19.3803 22.6839 19.3803 22.3161C19.3803 21.96 19.2903 21.7029 19.109 21.5421C18.929 21.3814 18.6564 21.3017 18.2951 21.3017H16.5659V23.3589V23.3601ZM21.773 22.0693L23.4817 24.5777L21.611 27.3639H23.2091L24.2956 25.6937L25.3807 27.3639H27.0097L25.0889 24.5481L26.7989 22.0693H25.22L24.3149 23.4514L23.4007 22.0693H21.773Z" fill="#E94F4E"/>
<path d="M29.7564 33.9917H12.2424C12.1359 33.9909 12.0307 33.969 11.9326 33.9275C11.8346 33.8859 11.7457 33.8254 11.6711 33.7495C11.5964 33.6735 11.5375 33.5836 11.4977 33.4848C11.4578 33.3861 11.4378 33.2805 11.4388 33.174C11.4376 33.0674 11.4575 32.9616 11.4973 32.8627C11.5371 32.7638 11.596 32.6738 11.6706 32.5977C11.7453 32.5216 11.8342 32.461 11.9323 32.4193C12.0304 32.3777 12.1358 32.3558 12.2424 32.355H29.759C29.8656 32.3558 29.9709 32.3777 30.0691 32.4193C30.1672 32.461 30.2561 32.5216 30.3308 32.5977C30.4054 32.6738 30.4643 32.7638 30.5041 32.8627C30.5439 32.9616 30.5637 33.0674 30.5625 33.174C30.5625 33.6253 30.2013 33.9917 29.7564 33.9917ZM29.7564 42.3681H12.2411C12.1346 42.3673 12.0294 42.3455 11.9313 42.3039C11.8333 42.2623 11.7444 42.2018 11.6698 42.1259C11.5951 42.0499 11.5362 41.96 11.4964 41.8613C11.4565 41.7625 11.4365 41.6569 11.4376 41.5504C11.4364 41.4438 11.4562 41.338 11.496 41.2392C11.5358 41.1403 11.5947 41.0502 11.6693 40.9741C11.744 40.898 11.8329 40.8374 11.931 40.7958C12.0292 40.7541 12.1345 40.7322 12.2411 40.7314H29.7564C29.863 40.7322 29.9684 40.7541 30.0665 40.7958C30.1646 40.8374 30.2536 40.898 30.3282 40.9741C30.4029 41.0502 30.4618 41.1403 30.5015 41.2392C30.5413 41.338 30.5612 41.4438 30.56 41.5504C30.561 41.6569 30.541 41.7625 30.5012 41.8613C30.4613 41.96 30.4024 42.0499 30.3277 42.1259C30.2531 42.2018 30.1642 42.2623 30.0662 42.3039C29.9682 42.3455 29.8629 42.3673 29.7564 42.3681ZM29.7564 38.1805H12.2411C12.1346 38.1795 12.0293 38.1576 11.9312 38.1159C11.8332 38.0741 11.7443 38.0135 11.6697 37.9375C11.5951 37.8614 11.5362 37.7714 11.4963 37.6726C11.4565 37.5738 11.4365 37.4681 11.4376 37.3616C11.4365 37.2551 11.4565 37.1494 11.4964 37.0507C11.5362 36.9519 11.5951 36.862 11.6698 36.7861C11.7444 36.7101 11.8333 36.6496 11.9313 36.6081C12.0294 36.5665 12.1346 36.5447 12.2411 36.5438H29.7564C29.8629 36.5447 29.9682 36.5665 30.0662 36.6081C30.1642 36.6496 30.2531 36.7101 30.3277 36.7861C30.4024 36.862 30.4613 36.9519 30.5012 37.0507C30.541 37.1494 30.561 37.2551 30.56 37.3616C30.56 37.8141 30.2 38.1805 29.7564 38.1805Z" fill="#6C7380"/>
</g>
<defs>
<clipPath id="clip0_661_52603">
<rect width="37.2857" height="54" fill="white" transform="translate(2.35547)"/>
</clipPath>
</defs>
</svg>
