<svg width="55" height="50" viewBox="0 0 55 50" fill="none" xmlns="http://www.w3.org/2000/svg">
<path d="M30.7588 39.9818C30.7591 37.5844 31.3913 35.2294 32.5916 33.1541C33.7919 31.0787 35.5179 29.3564 37.5959 28.1606C39.6738 26.9648 42.0301 26.3377 44.4276 26.3426C46.825 26.3474 49.1788 26.9841 51.2518 28.1883C51.594 27.6315 51.9148 27.0624 52.2144 26.4809C53.2387 24.6396 53.9272 21.8442 53.9229 21.8453C54.269 20.3286 54.4119 18.7726 54.3479 17.2182C53.9091 8.457 46.2731 0.469283 38.3693 0.0134802C35.3189 -0.131017 32.5352 0.893212 30.1829 2.74617L27.1814 5.30462L24.1799 2.74936C23.3176 2.06436 22.3737 1.48906 21.3696 1.03665C19.6837 0.276603 17.8417 -0.0729477 15.9946 0.0166677C8.09184 0.472471 0.454744 8.46018 0.0148779 17.2214C-0.0491663 18.7758 0.0937497 20.3318 0.439869 21.8485C0.971108 23.9862 2.14727 26.4819 2.14833 26.4841C4.49641 31.0623 8.32665 34.883 11.7393 37.9918C15.3093 41.2398 18.1195 43.3817 22.6584 46.7817L27.1814 49.9988L31.7054 46.7817L32.3185 46.3205C31.2905 44.366 30.7551 42.1902 30.7588 39.9818Z" fill="white"/>
<path d="M44.3606 29.9492C42.3789 29.9492 40.4417 30.5368 38.794 31.6377C37.1462 32.7386 35.8619 34.3034 35.1034 36.1341C34.3449 37.9649 34.1463 39.9795 34.5326 41.9231C34.919 43.8668 35.873 45.6522 37.2741 47.0537C38.6751 48.4552 40.4602 49.4098 42.4038 49.7968C44.3473 50.1838 46.3619 49.9858 48.1929 49.2279C50.024 48.4699 51.5891 47.1861 52.6905 45.5387C53.792 43.8913 54.3802 41.9543 54.3808 39.9726C54.3812 38.6565 54.1223 37.3532 53.619 36.1371C53.1156 34.921 52.3776 33.816 51.4471 32.8852C50.5166 31.9544 49.4118 31.216 48.1959 30.7123C46.98 30.2085 45.6767 29.9492 44.3606 29.9492ZM50.8066 41.3539C50.6674 41.8968 50.1118 42.3483 49.5614 42.4217C49.3988 42.4514 47.9985 42.4928 46.9594 42.5279C46.9275 43.5681 46.8861 44.9716 46.8531 45.131C46.7798 45.6813 46.3283 46.237 45.7854 46.3762C44.8737 46.5929 43.9239 46.5929 43.0123 46.3762C42.4694 46.237 42.0167 45.6813 41.9498 45.131C41.9201 44.9684 41.8786 43.5681 41.8436 42.5279C40.8045 42.4971 39.3223 42.4557 39.1587 42.4217C38.6083 42.3483 38.0526 41.8968 37.9145 41.3539C37.6963 40.4424 37.6963 39.4923 37.9145 38.5808C38.0526 38.0379 38.6083 37.5853 39.1587 37.513C39.3223 37.4833 40.8045 37.4418 41.8436 37.4068C41.8754 36.3666 41.9169 34.9631 41.9498 34.8037C42.0221 34.2544 42.4747 33.6987 43.0123 33.5595C43.9239 33.3428 44.8737 33.3428 45.7854 33.5595C46.3283 33.6987 46.7798 34.2544 46.8531 34.8037C46.8829 34.9673 46.9243 36.3666 46.9594 37.4068C47.9985 37.4386 49.4031 37.4801 49.5614 37.513C50.1118 37.5853 50.6674 38.0379 50.8066 38.5808C51.0234 39.4924 51.0234 40.4422 50.8066 41.3539Z" fill="white"/>
</svg>
