<svg width="17" height="17" viewBox="0 0 17 17" fill="none" xmlns="http://www.w3.org/2000/svg">
<path d="M9.97367 2.04849C10.5533 1.42054 10.8431 1.10656 11.151 0.923418C11.894 0.48151 12.809 0.467769 13.5644 0.887171C13.8775 1.06099 14.1762 1.36612 14.7736 1.9764C15.371 2.58668 15.6697 2.89182 15.8399 3.21164C16.2504 3.98335 16.237 4.91798 15.8044 5.67702C15.6251 5.9916 15.3177 6.28763 14.703 6.87971L7.38905 13.9243C6.22413 15.0463 5.64167 15.6073 4.91372 15.8916C4.18577 16.1759 3.3855 16.155 1.78496 16.1132L1.56719 16.1075C1.07993 16.0947 0.836306 16.0883 0.694686 15.9276C0.553066 15.7669 0.5724 15.5187 0.61107 15.0224L0.632067 14.7529C0.740903 13.3559 0.795321 12.6574 1.06811 12.0295C1.34091 11.4017 1.81146 10.8918 2.75256 9.8722L9.97367 2.04849Z" stroke="#1A7A5E" stroke-width="1.16667" stroke-linejoin="round"/>
<path d="M9.13867 2.13672L14.5831 7.58116" stroke="#1A7A5E" stroke-width="1.16667" stroke-linejoin="round"/>
<path d="M9.91602 16.1367L16.1382 16.1367" stroke="#1A7A5E" stroke-width="1.16667" stroke-linecap="round" stroke-linejoin="round"/>
</svg>
