<svg width="24" height="24" viewBox="0 0 24 24" fill="none" xmlns="http://www.w3.org/2000/svg">
<mask id="mask0_969_8337" style="mask-type:alpha" maskUnits="userSpaceOnUse" x="0" y="0" width="24" height="24">
<rect width="24" height="24" fill="#D9D9D9"/>
</mask>
<g mask="url(#mask0_969_8337)">
<path d="M5.05039 22.375L3.65039 20.95L6.60039 18H4.35039V16H10.0004V21.65H8.00039V19.425L5.05039 22.375ZM12.0004 22V20H18.0004V9H13.0004V4H6.00039V14H4.00039V4C4.00039 3.45 4.19622 2.97917 4.58789 2.5875C4.97956 2.19583 5.45039 2 6.00039 2H14.0004L20.0004 8V20C20.0004 20.55 19.8046 21.0208 19.4129 21.4125C19.0212 21.8042 18.5504 22 18.0004 22H12.0004Z" fill="#088178"/>
</g>
</svg>
