<svg width="32" height="32" viewBox="0 0 32 32" fill="none" xmlns="http://www.w3.org/2000/svg">
<path d="M25.1562 9.4375H0C0 9.04167 0.0885417 8.65625 0.265625 8.28125C0.442708 7.90625 0.6875 7.57292 1 7.28125C1.33333 7.01042 1.70833 6.79688 2.125 6.64062C2.54167 6.48438 2.97917 6.40625 3.4375 6.40625H21.7188C22.1771 6.40625 22.6146 6.48438 23.0312 6.64062C23.4479 6.79688 23.8125 7.01042 24.125 7.28125C24.4583 7.57292 24.7135 7.90625 24.8906 8.28125C25.0677 8.65625 25.1562 9.04167 25.1562 9.4375ZM32 17.5312V21.5938H27.4375C27.125 21.5938 26.8281 21.5417 26.5469 21.4375C26.2656 21.3333 26.0208 21.1875 25.8125 21C25.6042 20.8125 25.4427 20.5938 25.3281 20.3438C25.2135 20.0938 25.1562 19.8333 25.1562 19.5625C25.1562 19.2917 25.2135 19.0312 25.3281 18.7812C25.4427 18.5312 25.6042 18.3125 25.8125 18.125C26.0208 17.9375 26.2656 17.7917 26.5469 17.6875C26.8281 17.5833 27.125 17.5312 27.4375 17.5312H32ZM22.8438 19.5625C22.8438 20.1042 22.9635 20.6198 23.2031 21.1094C23.4427 21.599 23.7708 22.0417 24.1875 22.4375C24.625 22.8125 25.125 23.099 25.6875 23.2969C26.25 23.4948 26.8333 23.5938 27.4375 23.5938H32V25.625C32 26.0417 31.9115 26.4323 31.7344 26.7969C31.5573 27.1615 31.3125 27.4896 31 27.7812C30.6667 28.0729 30.2917 28.2917 29.875 28.4375C29.4583 28.5833 29.0208 28.6562 28.5625 28.6562H3.4375C2.97917 28.6562 2.54167 28.5833 2.125 28.4375C1.70833 28.2917 1.33333 28.0729 1 27.7812C0.6875 27.4896 0.442708 27.1615 0.265625 26.7969C0.0885417 26.4323 0 26.0417 0 25.625V11.4688C0 11.3229 0.03125 11.1875 0.09375 11.0625C0.15625 10.9375 0.239583 10.8333 0.34375 10.75C0.447917 10.6458 0.567708 10.5677 0.703125 10.5156C0.838542 10.4635 0.989583 10.4375 1.15625 10.4375H28.5625C29.0208 10.4375 29.4583 10.5156 29.875 10.6719C30.2917 10.8281 30.6667 11.0521 31 11.3438C31.3125 11.6146 31.5573 11.9375 31.7344 12.3125C31.9115 12.6875 32 13.0833 32 13.5V15.5H27.4375C26.8333 15.5 26.25 15.6042 25.6875 15.8125C25.125 16.0208 24.625 16.3125 24.1875 16.6875C23.7708 17.0625 23.4427 17.5 23.2031 18C22.9635 18.5 22.8438 19.0208 22.8438 19.5625ZM10.2812 22.5938H4.5625V24.625H10.2812V22.5938Z" fill="#1A7A5E"/>
</svg>
