<svg width="148" height="148" viewBox="0 0 148 148" fill="none" xmlns="http://www.w3.org/2000/svg">
<circle cx="73.5" cy="73.5" r="73.5" fill="#F4F6F8"/>
<path d="M71.7105 69.9865H22.3121C22.2269 69.9865 22.1451 69.9527 22.0849 69.8924C22.0246 69.8321 21.9907 69.7504 21.9907 69.6651C21.9907 69.5799 22.0246 69.4982 22.0849 69.4379C22.1451 69.3776 22.2269 69.3438 22.3121 69.3438H71.7105C71.7957 69.3438 71.8774 69.3776 71.9377 69.4379C71.998 69.4982 72.0318 69.5799 72.0318 69.6651C72.0318 69.7504 71.998 69.8321 71.9377 69.8924C71.8774 69.9527 71.7957 69.9865 71.7105 69.9865Z" fill="#161C24"/>
<path d="M47.9913 79.5827C47.9061 79.5827 47.8243 79.5488 47.7641 79.4886C47.7038 79.4283 47.6699 79.3465 47.6699 79.2613V24.1261C47.6699 24.0408 47.7038 23.9591 47.7641 23.8988C47.8243 23.8385 47.9061 23.8047 47.9913 23.8047C48.0766 23.8047 48.1583 23.8385 48.2186 23.8988C48.2788 23.9591 48.3127 24.0408 48.3127 24.1261V79.2613C48.3127 79.3465 48.2788 79.4283 48.2186 79.4886C48.1583 79.5488 48.0766 79.5827 47.9913 79.5827Z" fill="#161C24"/>
<path d="M72.4016 85.576H21.5249V23.5469H72.4016V85.576ZM22.1677 84.9332H71.7589V24.1897H22.1677V84.9332Z" fill="#161C24"/>
<path d="M108.429 110.484L109.956 145.372C109.969 145.561 109.944 145.75 109.881 145.929C109.819 146.108 109.721 146.272 109.593 146.412C109.466 146.551 109.311 146.664 109.138 146.742C108.966 146.82 108.779 146.862 108.59 146.866L97.0521 147.059C96.7063 147.069 96.3692 146.95 96.1074 146.724C95.8455 146.497 95.678 146.181 95.638 145.838L92.6651 120.994L91.026 145.677C91.0053 146.032 90.8484 146.366 90.588 146.608C90.3276 146.851 89.9837 146.983 89.6279 146.979L77.3346 146.786C77.151 146.782 76.97 146.741 76.8019 146.667C76.6339 146.593 76.4821 146.487 76.3553 146.354C76.2284 146.221 76.129 146.064 76.0627 145.893C75.9963 145.722 75.9644 145.539 75.9686 145.356L76.4186 127.55L108.429 110.484Z" fill="#161C24"/>
<path d="M67.4038 85.7053H2.32139C2.23616 85.7053 2.15441 85.6714 2.09413 85.6112C2.03386 85.5509 2 85.4691 2 85.3839C2 85.2987 2.03386 85.2169 2.09413 85.1566C2.15441 85.0964 2.23616 85.0625 2.32139 85.0625H67.4038C67.489 85.0625 67.5708 85.0964 67.631 85.1566C67.6913 85.2169 67.7252 85.2987 67.7252 85.3839C67.7252 85.4691 67.6913 85.5509 67.631 85.6112C67.5708 85.6714 67.489 85.7053 67.4038 85.7053Z" fill="#161C24"/>
<path d="M72.8192 90.8615H7.86534C7.7801 90.8615 7.69835 90.8277 7.63808 90.7674C7.57781 90.7071 7.54395 90.6254 7.54395 90.5401C7.54395 90.4549 7.57781 90.3732 7.63808 90.3129C7.69835 90.2526 7.7801 90.2188 7.86534 90.2188H72.8192C72.9044 90.2188 72.9862 90.2526 73.0464 90.3129C73.1067 90.3732 73.1406 90.4549 73.1406 90.5401C73.1406 90.6254 73.1067 90.7071 73.0464 90.7674C72.9862 90.8277 72.9044 90.8615 72.8192 90.8615Z" fill="#161C24"/>
<path d="M146.82 85.7053H114.327C114.242 85.7053 114.16 85.6714 114.1 85.6112C114.04 85.5509 114.006 85.4691 114.006 85.3839C114.006 85.2987 114.04 85.2169 114.1 85.1566C114.16 85.0964 114.242 85.0625 114.327 85.0625H146.82C146.905 85.0625 146.987 85.0964 147.047 85.1566C147.108 85.2169 147.142 85.2987 147.142 85.3839C147.142 85.4691 147.108 85.5509 147.047 85.6112C146.987 85.6714 146.905 85.7053 146.82 85.7053Z" fill="#161C24"/>
<path d="M144.538 90.8615H113.958C113.872 90.8615 113.791 90.8277 113.73 90.7674C113.67 90.7071 113.636 90.6254 113.636 90.5401C113.636 90.4549 113.67 90.3732 113.73 90.3129C113.791 90.2526 113.872 90.2188 113.958 90.2188H144.538C144.624 90.2188 144.705 90.2526 144.766 90.3129C144.826 90.3732 144.86 90.4549 144.86 90.5401C144.86 90.6254 144.826 90.7071 144.766 90.7674C144.705 90.8277 144.624 90.8615 144.538 90.8615Z" fill="#161C24"/>
<path d="M28.499 109.666L32.2754 59.6087L63.7881 54.6914L113.765 65.2814L109.844 110.823L86.5911 131.826L28.499 109.666Z" fill="#088178"/>
<path d="M86.5908 132.148H86.5587C86.517 132.144 86.4765 132.131 86.4397 132.111C86.403 132.091 86.3708 132.063 86.3452 132.03C86.3196 131.997 86.301 131.959 86.2908 131.918C86.2805 131.878 86.2787 131.835 86.2855 131.794L92.8098 74.9554L34.8303 60.589C34.7459 60.5663 34.6736 60.5117 34.6287 60.4368C34.5837 60.3619 34.5696 60.2724 34.5892 60.1873C34.6118 60.1071 34.6647 60.0389 34.7366 59.9969C34.8085 59.9549 34.894 59.9425 34.9749 59.9623L93.5169 74.4733L93.4848 74.7465L86.9122 131.858C86.9042 131.938 86.8669 132.012 86.8075 132.065C86.748 132.119 86.6708 132.148 86.5908 132.148Z" fill="#161C24"/>
<path d="M93.1634 75.0326C93.1017 75.0316 93.0417 75.0129 92.9904 74.9787C92.9391 74.9445 92.8988 74.8963 92.8741 74.8398C92.8554 74.8009 92.8447 74.7586 92.8426 74.7155C92.8406 74.6723 92.8473 74.6292 92.8623 74.5887C92.8773 74.5482 92.9003 74.5112 92.9299 74.4797C92.9596 74.4483 92.9952 74.4232 93.0348 74.4059L106.646 68.6047C106.725 68.5706 106.814 68.5693 106.894 68.6009C106.974 68.6325 107.038 68.6946 107.072 68.7735C107.106 68.8523 107.107 68.9415 107.076 69.0213C107.044 69.1012 106.982 69.1652 106.903 69.1993L93.2919 75.0005L93.1634 75.0326Z" fill="#161C24"/>
<path d="M92.2315 43.1679C91.3105 43.1831 90.4016 42.9559 89.5961 42.5091C83.6985 39.263 84.502 25.1699 84.5502 24.5753C84.5523 24.5331 84.5626 24.4917 84.5807 24.4534C84.5988 24.4152 84.6242 24.381 84.6556 24.3526C84.6869 24.3242 84.7236 24.3023 84.7634 24.2882C84.8032 24.274 84.8455 24.2678 84.8877 24.27C84.9293 24.2719 84.97 24.2823 85.0074 24.3006C85.0448 24.3189 85.0781 24.3446 85.1051 24.3762C85.1322 24.4078 85.1526 24.4447 85.1649 24.4844C85.1773 24.5242 85.1813 24.566 85.1769 24.6074C85.1769 24.752 84.3574 38.8934 89.9014 41.9466C92.1512 43.184 95.2044 42.4448 98.9647 39.713C98.9995 39.6885 99.0387 39.6711 99.0802 39.6619C99.1217 39.6526 99.1646 39.6517 99.2065 39.6592C99.2483 39.6667 99.2883 39.6824 99.324 39.7054C99.3598 39.7284 99.3906 39.7583 99.4147 39.7933C99.4658 39.8615 99.4878 39.9472 99.4757 40.0316C99.4637 40.116 99.4186 40.1921 99.3504 40.2433C96.6293 42.1823 94.2563 43.1572 92.2315 43.1679Z" fill="#161C24"/>
<path d="M106.951 45.3231H106.806C105.601 44.7606 104.139 42.2056 104.042 41.627L102.564 33.3511L102.757 33.2386C102.773 33.2226 104.733 32.0656 105.039 30.6675C105.093 30.4465 105.097 30.216 105.049 29.9934C105.002 29.7708 104.905 29.5618 104.766 29.3819C104.428 28.8837 104.091 28.6427 103.753 28.6748C103.078 28.7391 102.436 29.8319 102.259 30.2497C102.241 30.2887 102.215 30.3238 102.184 30.353C102.152 30.3823 102.115 30.405 102.075 30.4199C102.035 30.4348 101.992 30.4416 101.949 30.44C101.906 30.4384 101.864 30.4283 101.825 30.4104C101.786 30.3924 101.751 30.367 101.721 30.3355C101.692 30.304 101.67 30.267 101.655 30.2267C101.64 30.1864 101.633 30.1436 101.635 30.1007C101.636 30.0577 101.646 30.0155 101.664 29.9765C101.745 29.7997 102.532 28.1445 103.689 28.0321C104.284 27.9838 104.814 28.3052 105.296 29.0123C105.483 29.2685 105.612 29.5617 105.676 29.8721C105.74 30.1826 105.736 30.5031 105.666 30.8121C105.36 32.2102 103.817 33.319 103.271 33.6725L104.685 41.5146C104.75 41.9806 106.132 44.2946 107.08 44.7285C107.119 44.7458 107.155 44.7709 107.185 44.8023C107.214 44.8337 107.237 44.8708 107.252 44.9113C107.267 44.9518 107.274 44.9949 107.272 45.038C107.27 45.0812 107.259 45.1235 107.24 45.1624C107.211 45.2129 107.169 45.2545 107.118 45.2828C107.067 45.3111 107.009 45.325 106.951 45.3231Z" fill="#161C24"/>
<path d="M89.3842 30.2241C89.7104 30.1864 89.9277 29.7484 89.8696 29.2459C89.8114 28.7434 89.4999 28.3666 89.1736 28.4043C88.8474 28.4421 88.6301 28.88 88.6883 29.3826C88.7464 29.8851 89.058 30.2619 89.3842 30.2241Z" fill="#161C24"/>
<path d="M95.9965 29.6929C96.3227 29.6551 96.54 29.2172 96.4819 28.7146C96.4237 28.2121 96.1121 27.8353 95.7859 27.8731C95.4597 27.9108 95.2424 28.3488 95.3006 28.8513C95.3587 29.3538 95.6703 29.7306 95.9965 29.6929Z" fill="#161C24"/>
<path d="M87.2981 28.0785C87.2242 28.0772 87.1521 28.0555 87.0897 28.0158C87.0273 27.9761 86.9771 27.92 86.9446 27.8536C86.92 27.8074 86.9051 27.7567 86.9008 27.7046C86.8964 27.6525 86.9027 27.6001 86.9192 27.5505C86.9357 27.5009 86.9622 27.4552 86.9969 27.4161C87.0317 27.377 87.074 27.3455 87.1213 27.3233L89.8693 25.8448C89.9151 25.8171 89.9662 25.7992 90.0194 25.7923C90.0725 25.7854 90.1265 25.7896 90.1779 25.8047C90.2293 25.8199 90.277 25.8455 90.3179 25.8801C90.3589 25.9147 90.3921 25.9574 90.4156 26.0055C90.4411 26.0519 90.4571 26.1029 90.4628 26.1555C90.4685 26.2081 90.4638 26.2614 90.4488 26.3121C90.4339 26.3629 90.4091 26.4102 90.3758 26.4514C90.3425 26.4925 90.3015 26.5267 90.2549 26.5519L87.491 28.0303L87.2981 28.0785Z" fill="#161C24"/>
<path d="M97.7272 27.0828H97.6308L95.0275 26.5042C94.9231 26.4808 94.8323 26.4168 94.775 26.3264C94.7178 26.236 94.6988 26.1266 94.7222 26.0222C94.7456 25.9177 94.8096 25.8269 94.9 25.7697C94.9904 25.7124 95.0999 25.6934 95.2043 25.7168L97.8076 26.3114C97.8588 26.3209 97.9075 26.3407 97.9508 26.3695C97.9942 26.3984 98.0312 26.4357 98.0597 26.4792C98.0883 26.5228 98.1077 26.5717 98.1168 26.6229C98.126 26.6741 98.1246 26.7267 98.1129 26.7774C98.0915 26.8639 98.0421 26.9408 97.9723 26.996C97.9025 27.0513 97.8163 27.0818 97.7272 27.0828Z" fill="#161C24"/>
<path d="M92.2473 34.2164C91.6849 34.2164 91.3153 34.0396 91.1385 33.7022C90.7528 32.9308 91.6527 31.6935 91.8456 31.4524C91.8667 31.4097 91.897 31.3723 91.9343 31.3427C91.9717 31.3132 92.0151 31.2923 92.0615 31.2816C92.1079 31.271 92.1561 31.2707 92.2026 31.2809C92.2491 31.2911 92.2928 31.3115 92.3304 31.3407C92.3681 31.3698 92.3988 31.407 92.4203 31.4495C92.4419 31.4919 92.4537 31.5386 92.455 31.5862C92.4563 31.6338 92.4469 31.6811 92.4277 31.7247C92.4085 31.7682 92.3798 31.807 92.3437 31.8381C91.9902 32.3202 91.5724 33.1237 91.717 33.4129C91.8617 33.7022 92.0063 33.5897 92.3437 33.5736C92.386 33.5715 92.4282 33.5776 92.468 33.5918C92.5078 33.606 92.5445 33.6279 92.5758 33.6563C92.6072 33.6846 92.6326 33.7189 92.6507 33.7571C92.6688 33.7953 92.6792 33.8367 92.6812 33.879C92.6777 33.9646 92.6431 34.0461 92.584 34.1081C92.5249 34.1702 92.4452 34.2087 92.3598 34.2164H92.2473Z" fill="#161C24"/>
<path d="M98.8842 25.9411C98.2784 25.9316 97.7008 25.6833 97.2772 25.2501C94.6257 22.5182 85.4017 14.1298 78.0578 20.7506C76.933 21.7469 76.933 22.0361 76.949 22.1004C77.0776 22.454 79.0542 22.5825 81.1432 22.695C84.0679 22.8718 88.471 23.1289 94.1436 24.1252C94.1895 24.1271 94.2345 24.1387 94.2755 24.1594C94.3165 24.1801 94.3526 24.2093 94.3813 24.2451C94.4101 24.2809 94.4308 24.3225 94.4422 24.367C94.4535 24.4115 94.4552 24.4579 94.447 24.5031C94.4389 24.5483 94.4212 24.5913 94.3951 24.629C94.369 24.6668 94.3351 24.6986 94.2957 24.7222C94.2563 24.7457 94.2123 24.7606 94.1667 24.7657C94.121 24.7709 94.0748 24.7662 94.0311 24.7519C88.4067 23.7717 84.0197 23.5146 81.1111 23.3378C78.2025 23.161 76.6116 23.0807 76.3384 22.3254C76.0652 21.5701 76.6919 21.1202 77.624 20.2685C80.4522 17.7295 83.7787 17.0063 87.5711 18.1312C87.5699 18.0615 87.5926 17.9934 87.6354 17.9384C89.2263 16.1064 90.7369 15.4636 92.4081 14.8851C95.9756 13.6317 98.9163 13.712 101.166 15.1101C104.396 17.151 105.312 21.4094 105.585 23.7556C105.608 23.9822 105.586 24.2111 105.52 24.4291C105.454 24.647 105.345 24.8496 105.2 25.0251C105.054 25.2033 104.873 25.3494 104.669 25.4545C104.464 25.5596 104.24 25.6213 104.01 25.6358L99.0288 25.925L98.8842 25.9411ZM88.1657 18.324C88.6799 18.5008 89.2102 18.7097 89.7405 18.9508C93.4848 20.6702 96.5862 23.611 97.7433 24.8001C97.9013 24.9667 98.0941 25.0962 98.308 25.1795C98.5219 25.2629 98.7516 25.2979 98.9806 25.2822L103.962 24.993C104.248 24.9713 104.513 24.8386 104.701 24.6234C104.795 24.5163 104.864 24.3909 104.906 24.2553C104.947 24.1196 104.96 23.9768 104.942 23.836C104.685 21.5862 103.818 17.5527 100.829 15.6565C98.7556 14.3548 95.9916 14.3066 92.617 15.4797C91.0422 16.0421 89.628 16.6367 88.1657 18.324Z" fill="#161C24"/>
<path d="M77.1738 22.5977C77.1738 22.5977 74.0402 22.7744 85.1283 26.0044L85.7068 23.5136L77.1738 22.5977Z" fill="#161C24"/>
<path d="M105.634 29.9267L105.553 23.9648C105.553 23.9648 105.393 26.3432 97.6309 25.4272L101.552 30.3767C101.793 30.6659 102.259 30.3606 102.291 29.991C102.387 29.0911 103.978 26.777 105.505 29.9589C105.509 29.9759 105.52 29.9906 105.535 29.9996C105.55 30.0086 105.568 30.0113 105.585 30.0071C105.602 30.0028 105.617 29.9919 105.626 29.9769C105.635 29.9618 105.638 29.9438 105.634 29.9267Z" fill="#161C24"/>
<path d="M100.523 23.7734H102.87C103.162 23.7734 103.4 23.536 103.4 23.2431V22.6003C103.4 22.3075 103.162 22.07 102.87 22.07H100.523C100.231 22.07 99.9931 22.3075 99.9931 22.6003V23.2431C99.9931 23.536 100.231 23.7734 100.523 23.7734Z" fill="#088178"/>
<path d="M92.6651 54.1265C92.6116 54.1247 92.5592 54.1107 92.5118 54.0856C92.4645 54.0606 92.4235 54.0251 92.3919 53.9819C91.267 52.4392 89.7083 50.4626 89.0655 50.0287C88.7441 49.8037 88.0691 50.093 87.2817 50.8322C87.205 50.9045 87.106 50.9486 87.0009 50.9574C86.8958 50.9661 86.7909 50.939 86.7032 50.8804C86.617 50.8222 86.5527 50.7367 86.5207 50.6377C86.4886 50.5387 86.4907 50.4318 86.5264 50.334C87.7799 46.9433 89.5154 42.8295 90.6242 42.5402C90.7067 42.5199 90.7927 42.518 90.876 42.5347C90.9593 42.5513 91.038 42.5862 91.1063 42.6366C91.9419 43.2152 92.3919 46.6541 92.8418 52.0214C92.9222 52.8409 92.9704 53.4998 93.0025 53.7248C93.0196 53.7992 93.0095 53.8773 92.9742 53.9451C92.9388 54.0128 92.8805 54.0657 92.8097 54.0944L92.6651 54.1265ZM88.8083 49.3056C89.0319 49.3052 89.2504 49.3724 89.4351 49.4984C90.11 49.9644 91.4116 51.6035 92.2633 52.7284C92.2473 52.5195 92.2312 52.3106 92.1991 52.0696C92.0866 50.6072 91.8937 48.4057 91.6205 46.5577C91.2349 43.7615 90.8653 43.2634 90.7528 43.183C90.2546 43.3758 89.0333 45.5292 87.3621 49.9162C87.9084 49.5145 88.3905 49.3056 88.8083 49.3056Z" fill="#161C24"/>
<path d="M74.121 57.3073C74.0691 57.3085 74.0179 57.2957 73.9726 57.2703C73.9274 57.2448 73.8898 57.2077 73.8639 57.1627C73.8184 57.0913 73.8014 57.0054 73.8163 56.9221C73.8312 56.8387 73.8768 56.764 73.9442 56.7127C74.116 56.4746 74.2666 56.2219 74.3942 55.9575C75.0691 54.704 76.3226 52.3579 78.6205 51.5865C81.5292 50.6223 87.4428 48.1154 87.491 48.0994C87.5644 48.0811 87.6418 48.0893 87.7097 48.1224C87.7776 48.1556 87.8317 48.2116 87.8624 48.2807C87.8931 48.3498 87.8985 48.4275 87.8776 48.5001C87.8567 48.5727 87.8108 48.6357 87.7481 48.6779C87.6839 48.71 81.7541 51.2169 78.8294 52.1972C76.7725 52.8882 75.6316 54.9933 74.9566 56.2628C74.6352 56.8574 74.4906 57.1306 74.2978 57.2591C74.2448 57.292 74.1834 57.3087 74.121 57.3073Z" fill="#161C24"/>
<path d="M118.65 69.7292C118.568 69.7257 118.491 69.6929 118.432 69.6368C118.373 69.5806 118.336 69.505 118.328 69.4239C118.326 69.3817 118.332 69.3395 118.347 69.2996C118.361 69.2598 118.383 69.2232 118.411 69.1918C118.439 69.1605 118.474 69.135 118.512 69.117C118.55 69.0989 118.592 69.0885 118.634 69.0865C123.165 68.8133 126.733 65.8725 128.452 64.4584L128.549 64.3941C129.031 63.9923 129.336 63.5906 129.352 63.446C127.311 60.6659 120.466 51.5544 117.123 49.5457C113.106 47.1352 106.919 45.3354 106.855 45.3193C106.776 45.2902 106.711 45.2329 106.673 45.1587C106.634 45.0845 106.625 44.9985 106.646 44.9176C106.655 44.8767 106.673 44.8382 106.697 44.8045C106.722 44.7707 106.754 44.7424 106.79 44.7213C106.826 44.7002 106.866 44.6867 106.908 44.6818C106.949 44.6769 106.991 44.6806 107.031 44.6926C107.096 44.7087 113.363 46.5406 117.445 48.9993C120.819 51.008 127.263 59.525 129.883 63.0924C130.316 63.671 129.368 64.5387 128.951 64.8923L128.87 64.9565C127.086 66.4189 123.406 69.4561 118.666 69.7292H118.65Z" fill="#161C24"/>
<path d="M111.997 63.2226C111.945 63.2238 111.894 63.211 111.849 63.1855C111.803 63.1601 111.766 63.1229 111.74 63.078C110.71 61.5704 109.908 59.9188 109.362 58.1767C108.269 54.5289 108.944 51.5881 111.338 49.6758C111.404 49.6229 111.489 49.5983 111.573 49.6073C111.657 49.6163 111.735 49.6583 111.788 49.724C111.816 49.7558 111.838 49.7933 111.851 49.8338C111.864 49.8744 111.868 49.9173 111.864 49.9597C111.859 50.0021 111.846 50.043 111.825 50.0799C111.803 50.1168 111.774 50.1489 111.74 50.174C106.469 54.4164 112.19 62.628 112.254 62.7084C112.279 62.7431 112.296 62.7823 112.305 62.8238C112.314 62.8653 112.315 62.9082 112.308 62.9501C112.3 62.9919 112.285 63.0319 112.262 63.0676C112.239 63.1034 112.209 63.1342 112.174 63.1583C112.122 63.196 112.061 63.2183 111.997 63.2226Z" fill="#161C24"/>
<path d="M80.2594 58.1758L56.428 65.6L55.2549 78.038L64.029 80.9466L64.961 67.7212L89.2263 60.072L80.2594 58.1758Z" fill="#161C24"/>
<path d="M81.031 118.921L83.5218 98.7213C83.5498 98.4436 83.4706 98.1657 83.3003 97.9445C83.1299 97.7234 82.8815 97.5759 82.6058 97.5321L73.3175 96.1983C73.1768 96.1781 73.0335 96.1863 72.8961 96.2225C72.7587 96.2587 72.6299 96.3222 72.5175 96.4091C72.4051 96.496 72.3113 96.6047 72.2416 96.7286C72.172 96.8525 72.128 96.9891 72.1123 97.1304L69.8464 116.012C69.8141 116.266 69.8743 116.522 70.016 116.735C70.1577 116.947 70.3714 117.102 70.6178 117.169L79.665 119.821C79.8144 119.864 79.9713 119.874 80.1249 119.851C80.2786 119.827 80.4253 119.771 80.5551 119.685C80.6849 119.6 80.7946 119.487 80.8767 119.355C80.9589 119.223 81.0115 119.075 81.031 118.921Z" fill="white"/>
<path d="M39.4745 107.544L41.0333 97.3233C41.0815 97.0341 40.8244 96.7769 40.4708 96.7287L34.6215 96.0538C34.2518 96.0056 33.9144 96.2145 33.8662 96.5198L32.436 106.081C32.4306 106.22 32.4769 106.356 32.5659 106.463C32.6549 106.57 32.7804 106.64 32.9181 106.66L38.6228 108.01C39.0085 108.106 39.4263 107.881 39.4745 107.544Z" fill="white"/>
<path d="M79.6807 101.952H79.6164L74.0563 100.811C74.014 100.803 73.9738 100.787 73.9381 100.763C73.9025 100.739 73.8724 100.708 73.8496 100.672C73.8269 100.635 73.8121 100.594 73.8061 100.552C73.8002 100.509 73.8033 100.466 73.8152 100.425C73.8205 100.383 73.8348 100.343 73.857 100.308C73.8793 100.272 73.9091 100.242 73.9442 100.219C73.9794 100.196 74.0191 100.181 74.0607 100.175C74.1022 100.169 74.1446 100.172 74.1849 100.184L79.745 101.325C79.7873 101.332 79.8275 101.348 79.8631 101.372C79.8987 101.396 79.9289 101.427 79.9516 101.464C79.9744 101.5 79.9892 101.541 79.9951 101.584C80.0011 101.626 79.998 101.669 79.986 101.711C79.9685 101.779 79.9291 101.839 79.874 101.883C79.8188 101.926 79.7509 101.95 79.6807 101.952Z" fill="#161C24"/>
<path d="M79.6809 105.552H79.6006L74.0405 104.073C73.999 104.062 73.9602 104.043 73.9263 104.017C73.8924 103.99 73.8642 103.957 73.8432 103.92C73.8223 103.883 73.809 103.841 73.8042 103.799C73.7995 103.756 73.8033 103.713 73.8155 103.672C73.8381 103.592 73.8909 103.523 73.9629 103.481C74.0348 103.439 74.1203 103.427 74.2012 103.447L79.7613 104.925C79.8027 104.936 79.8415 104.956 79.8754 104.982C79.9093 105.008 79.9376 105.041 79.9585 105.079C79.9795 105.116 79.9927 105.157 79.9975 105.2C80.0023 105.243 79.9985 105.286 79.9863 105.327C79.971 105.395 79.9317 105.455 79.8756 105.496C79.8195 105.538 79.7504 105.557 79.6809 105.552Z" fill="#161C24"/>
<path d="M79.6808 109.504H79.5844L74.0242 107.688C73.9435 107.662 73.8762 107.605 73.837 107.53C73.7979 107.455 73.7901 107.367 73.8153 107.286C73.8445 107.208 73.9017 107.143 73.976 107.104C74.0502 107.066 74.1361 107.056 74.2171 107.077L79.7772 108.893C79.858 108.919 79.9253 108.976 79.9644 109.051C80.0036 109.126 80.0114 109.214 79.9861 109.295C79.9611 109.356 79.9189 109.408 79.8646 109.445C79.8104 109.482 79.7465 109.503 79.6808 109.504Z" fill="#161C24"/>
<path d="M35.7142 105.551H35.666C35.5832 105.536 35.5099 105.488 35.4619 105.419C35.4138 105.35 35.3947 105.265 35.4088 105.182L36.4212 99.4448C36.434 99.3595 36.4801 99.2828 36.5495 99.2316C36.6188 99.1804 36.7056 99.1588 36.7908 99.1716C36.8761 99.1844 36.9527 99.2305 37.004 99.2998C37.0552 99.3691 37.0768 99.4559 37.064 99.5412L36.0356 105.294C36.0237 105.369 35.9842 105.437 35.9247 105.485C35.8652 105.533 35.7901 105.556 35.7142 105.551Z" fill="#161C24"/>
<path d="M38.7514 102.608C38.6942 102.606 38.6388 102.588 38.5908 102.557C38.5427 102.526 38.5039 102.482 38.4782 102.431L36.6784 99.2012C35.9392 100.005 35.2321 100.889 35.216 101.146C35.2163 101.189 35.2074 101.231 35.1901 101.27C35.1728 101.31 35.1474 101.345 35.1156 101.374C35.0837 101.403 35.0461 101.424 35.0053 101.438C34.9645 101.451 34.9213 101.456 34.8786 101.451C34.7947 101.443 34.717 101.404 34.6605 101.341C34.604 101.279 34.5729 101.198 34.5732 101.114C34.6215 100.423 36.0677 98.8959 36.5177 98.446L36.8069 98.1406L39.0406 102.126C39.0807 102.201 39.0897 102.288 39.0657 102.369C39.0416 102.451 38.9864 102.519 38.9121 102.56C38.8649 102.592 38.8087 102.609 38.7514 102.608Z" fill="#161C24"/>
<path d="M93.1636 38.5228C93.0892 38.5214 93.0173 38.4954 92.9592 38.4489C92.901 38.4024 92.8599 38.338 92.8422 38.2657C92.8277 38.1807 92.8463 38.0934 92.8941 38.0217C92.9419 37.95 93.0153 37.8993 93.0993 37.88C93.1154 37.88 95.7348 37.2854 96.3615 35.9677C96.3966 35.8919 96.4598 35.8327 96.5378 35.8027C96.6158 35.7727 96.7024 35.7742 96.7793 35.807C96.8563 35.8453 96.9158 35.9115 96.9457 35.9921C96.9756 36.0727 96.9735 36.1617 96.94 36.2409C96.1686 37.8479 93.3564 38.4746 93.2279 38.5067L93.1636 38.5228Z" fill="#161C24"/>
<path d="M101.23 41.9956C101.23 41.9956 103.448 39.3923 104.508 40.0029C105.569 40.6136 106.581 44.0686 105.392 45.3702C104.203 46.6719 100.716 51.075 99.8965 50.0947C99.0769 49.1145 96.4897 47.1058 97.6307 45.1774C98.7716 43.249 101.23 41.9956 101.23 41.9956Z" fill="white"/>
<path d="M93.7582 61.0875C93.6799 61.0876 93.6046 61.0577 93.5478 61.0038C93.4909 60.95 93.457 60.8764 93.4528 60.7982L92.0869 50.7547L94.6259 47.2354C94.8566 46.8896 95.1383 46.5808 95.4616 46.3194L101.423 41.4182L101.616 41.2575C103.705 39.4255 103.962 39.3773 104.203 39.4416C104.846 39.6344 105.489 40.3736 105.875 41.3539C106.148 42.0609 106.662 43.8768 105.537 45.7248V45.7731C104.894 46.5765 101.697 50.4333 100.041 50.4333L99.8325 50.4011C98.1934 50.0476 97.2774 47.2836 97.2292 47.1711C97.2073 47.088 97.2164 46.9997 97.2548 46.9228C97.2933 46.8459 97.3585 46.7856 97.4381 46.7533C97.5191 46.7281 97.6068 46.7359 97.682 46.775C97.7573 46.8141 97.814 46.8814 97.8399 46.9622C98.0809 47.6693 98.9165 49.5494 99.9771 49.7744C101.038 49.9994 103.448 47.3318 105.023 45.3874C105.352 44.817 105.548 44.1794 105.595 43.5225C105.643 42.8656 105.54 42.2066 105.296 41.5949C104.959 40.7432 104.477 40.229 104.107 40.0844C103.737 39.9397 103.464 40.5183 102.05 41.7396L101.857 41.9163L95.8633 46.8176C95.586 47.0443 95.3425 47.3094 95.1402 47.605L92.7618 50.9154L94.0796 60.7179C94.0864 60.7602 94.0847 60.8034 94.0746 60.845C94.0645 60.8866 94.0462 60.9257 94.0207 60.9602C93.9953 60.9946 93.9632 61.0236 93.9264 61.0455C93.8896 61.0673 93.8488 61.0816 93.8064 61.0875H93.7582Z" fill="#161C24"/>
<path d="M71.582 40.4518H22.1837C22.0984 40.4518 22.0167 40.418 21.9564 40.3577C21.8961 40.2974 21.8623 40.2157 21.8623 40.1304C21.8599 40.0876 21.8667 40.0448 21.882 40.0047C21.8973 39.9647 21.9209 39.9283 21.9512 39.898C21.9816 39.8677 22.0179 39.8441 22.058 39.8288C22.098 39.8134 22.1408 39.8067 22.1837 39.809H71.582C71.6248 39.8067 71.6676 39.8134 71.7077 39.8288C71.7477 39.8441 71.7841 39.8677 71.8144 39.898C71.8447 39.9283 71.8683 39.9647 71.8836 40.0047C71.899 40.0448 71.9057 40.0876 71.9034 40.1304C71.9034 40.2157 71.8695 40.2974 71.8092 40.3577C71.749 40.418 71.6672 40.4518 71.582 40.4518Z" fill="#161C24"/>
<path d="M71.582 40.4518H22.1837C22.0984 40.4518 22.0167 40.418 21.9564 40.3577C21.8961 40.2974 21.8623 40.2157 21.8623 40.1304C21.8599 40.0876 21.8667 40.0448 21.882 40.0047C21.8973 39.9647 21.9209 39.9283 21.9512 39.898C21.9816 39.8677 22.0179 39.8441 22.058 39.8288C22.098 39.8134 22.1408 39.8067 22.1837 39.809H71.582C71.6248 39.8067 71.6676 39.8134 71.7077 39.8288C71.7477 39.8441 71.7841 39.8677 71.8144 39.898C71.8447 39.9283 71.8683 39.9647 71.8836 40.0047C71.899 40.0448 71.9057 40.0876 71.9034 40.1304C71.9034 40.2157 71.8695 40.2974 71.8092 40.3577C71.749 40.418 71.6672 40.4518 71.582 40.4518Z" fill="#161C24"/>
<path d="M114.167 78.7284C114.167 78.7284 108.526 83.0512 107.064 81.8781C105.601 80.705 103.448 79.339 101.954 79.1623C100.459 78.9855 96.9238 77.25 95.8311 77.8285C94.7383 78.407 94.9794 80.6246 96.8113 80.8978C98.6433 81.171 101.52 82.1995 101.086 82.7137C100.652 83.2279 93.8063 84.4331 91.5405 83.3725C89.9817 82.6333 90.0138 83.9028 91.0102 84.8992C92.6011 86.474 97.0524 85.6062 97.0524 85.6062C97.0524 85.6062 89.13 84.1921 88.1337 86.0723C87.8284 86.6347 89.0336 87.0686 89.6442 88.1292C90.2549 89.1898 90.271 90.0254 91.3155 90.9575C92.36 91.8895 94.3205 91.9859 94.5616 93.0947C94.883 94.6535 96.7631 94.7178 97.2291 94.8945C98.7076 95.5052 100.941 95.698 109.314 88.8363C110.696 87.7114 112.624 87.4864 114.376 85.9116L118.522 84.5135L114.167 78.7284Z" fill="white"/>
<path d="M98.7397 90.3332C92.6172 90.3332 88.5355 88.1959 87.8605 86.7818C87.6998 86.4122 87.732 86.0747 87.973 85.8176C89.0497 84.7248 91.4762 85.0784 91.5887 85.0945C91.6712 85.1064 91.7458 85.15 91.7968 85.216C91.8478 85.2819 91.8711 85.3651 91.8619 85.448C91.856 85.4904 91.8417 85.5312 91.8199 85.568C91.798 85.6048 91.769 85.6369 91.7346 85.6623C91.7001 85.6878 91.661 85.7061 91.6194 85.7162C91.5778 85.7263 91.5346 85.728 91.4923 85.7212C90.8816 85.6408 89.13 85.5605 88.423 86.2836C88.4069 86.2997 88.3748 86.3318 88.439 86.5086C88.9854 87.6656 93.5814 90.2689 101.198 89.5779C101.24 89.5735 101.282 89.5776 101.321 89.5899C101.361 89.6022 101.398 89.6226 101.43 89.6497C101.461 89.6768 101.487 89.71 101.505 89.7474C101.523 89.7848 101.534 89.8256 101.536 89.8672C101.54 89.9094 101.536 89.9521 101.524 89.9928C101.512 90.0335 101.492 90.0714 101.465 90.1043C101.438 90.1371 101.405 90.1643 101.367 90.1843C101.33 90.2043 101.289 90.2167 101.247 90.2207C100.379 90.301 99.5432 90.3332 98.7397 90.3332Z" fill="#161C24"/>
<path d="M97.9201 93.2094C94.9633 93.2094 92.7296 92.5827 91.2351 91.3292C89.7406 90.0758 89.6442 88.8063 89.6281 88.7581C89.6228 88.6718 89.6493 88.5865 89.7026 88.5184C89.7559 88.4502 89.8323 88.404 89.9174 88.3885C89.9596 88.384 90.0023 88.388 90.043 88.4002C90.0837 88.4124 90.1216 88.4325 90.1545 88.4594C90.1873 88.4863 90.2146 88.5194 90.2345 88.5569C90.2545 88.5944 90.2669 88.6354 90.2709 88.6777C90.2709 88.6938 90.4316 89.8508 91.685 90.8793C92.9385 91.9077 95.3007 92.9201 100.106 92.4702C100.148 92.466 100.19 92.4701 100.231 92.4824C100.272 92.4946 100.309 92.5147 100.342 92.5416C100.375 92.5685 100.402 92.6015 100.422 92.6389C100.442 92.6763 100.455 92.7172 100.459 92.7594C100.463 92.8016 100.459 92.8443 100.447 92.8849C100.435 92.9255 100.415 92.9633 100.388 92.9961C100.361 93.0289 100.328 93.0562 100.29 93.0762C100.253 93.0963 100.212 93.1088 100.17 93.113C99.3824 93.1772 98.6272 93.2094 97.9201 93.2094Z" fill="#161C24"/>
<path d="M98.1935 95.316C96.8437 95.316 95.526 94.85 94.369 93.5804L94.2725 93.468C94.2078 93.4224 94.1623 93.3546 94.1445 93.2775C94.1267 93.2004 94.1379 93.1194 94.1761 93.0501C94.2197 92.9788 94.2882 92.9261 94.3683 92.9024C94.4485 92.8786 94.5346 92.8855 94.61 92.9216C94.7027 92.9822 94.7842 93.0583 94.851 93.1466C96.7473 95.2356 99.447 95.1874 102.87 93.018C105.939 91.0896 106.743 90.3344 107.45 89.6755C108.157 89.0166 108.542 88.647 110.101 87.6829C113.54 85.5617 120.129 83.8261 120.402 83.7618C120.445 83.7415 120.491 83.7307 120.539 83.7305C120.586 83.7302 120.633 83.7404 120.676 83.7603C120.718 83.7802 120.756 83.8093 120.787 83.8455C120.817 83.8818 120.839 83.9243 120.851 83.9701C120.863 84.0158 120.865 84.0637 120.856 84.1102C120.848 84.1567 120.829 84.2007 120.802 84.2392C120.774 84.2776 120.738 84.3095 120.697 84.3325C120.656 84.3556 120.61 84.3692 120.563 84.3725C120.498 84.3886 113.781 86.1562 110.439 88.2292C108.928 89.1613 108.446 89.6112 107.884 90.1415C107.321 90.6718 106.341 91.6039 103.223 93.5644C101.761 94.4964 99.9612 95.316 98.1935 95.316Z" fill="#161C24"/>
<path d="M94.4491 86.1699C93.1153 86.1699 91.6208 85.945 90.7852 85.1254C89.9495 84.3058 89.837 83.6149 90.1745 83.1328C90.3352 82.9078 90.753 82.5864 91.7654 83.0685C93.8545 84.0327 99.8324 83.0203 100.764 82.5382C100.427 82.1846 98.7075 81.4615 97.0845 81.2205C95.7828 81.0276 94.9311 80.0152 94.7865 79.1314C94.674 78.4886 94.9151 77.9583 95.4132 77.6851C96.2328 77.2352 98.0647 77.7815 99.8324 78.2958C100.537 78.527 101.256 78.7095 101.986 78.8421C103.914 79.0671 106.517 81.0437 107.257 81.6383C107.433 81.7668 108.285 82.0722 111.901 79.9349C113.909 78.7618 115.774 77.4119 115.79 77.4119C115.858 77.3608 115.944 77.3388 116.028 77.3509C116.112 77.3629 116.188 77.408 116.24 77.4762C116.285 77.5476 116.302 77.6335 116.287 77.7169C116.272 77.8002 116.227 77.8749 116.159 77.9262C116.143 77.9422 114.263 79.2921 112.238 80.4973C108.398 82.7471 107.337 82.506 106.855 82.1364C105.393 80.9633 103.32 79.6456 101.921 79.4849C101.359 79.4207 100.539 79.1796 99.6556 78.9225C98.2415 78.5047 96.3131 77.9262 95.7186 78.2476C95.124 78.569 95.3811 78.81 95.4132 79.0189C95.5257 79.6617 96.1846 80.4331 97.1809 80.5937C98.4986 80.7866 101.118 81.5901 101.423 82.3935C101.456 82.4825 101.464 82.5786 101.448 82.6719C101.431 82.7651 101.389 82.8522 101.327 82.9239C100.716 83.6309 93.7581 84.7076 91.4922 83.647C91.0101 83.4059 90.7369 83.4381 90.6887 83.5024C90.6405 83.5666 90.7209 84.1452 91.2351 84.6755C92.6975 86.1057 96.9399 85.2861 96.9881 85.2861C97.0656 85.283 97.1417 85.308 97.2022 85.3566C97.2627 85.4052 97.3036 85.4741 97.3173 85.5505C97.331 85.6269 97.3166 85.7056 97.2768 85.7722C97.237 85.8388 97.1744 85.8888 97.1006 85.9128C96.2263 86.0784 95.3388 86.1645 94.4491 86.1699Z" fill="#161C24"/>
<path d="M120.482 84.3858C120.415 84.3832 120.349 84.3604 120.295 84.3203C120.24 84.2801 120.199 84.2246 120.177 84.1608C120.165 84.1197 120.161 84.0765 120.166 84.0339C120.17 83.9912 120.184 83.9499 120.205 83.9125C120.226 83.875 120.254 83.8422 120.288 83.8158C120.322 83.7895 120.36 83.7702 120.402 83.7591C128.758 81.3165 133.418 78.0061 134.27 73.8923C135.379 68.525 129.481 63.5755 129.417 63.5273C129.351 63.4719 129.309 63.3925 129.302 63.3066C129.294 63.2207 129.321 63.1354 129.377 63.0693C129.432 63.0033 129.512 62.9619 129.597 62.9544C129.683 62.9468 129.769 62.9737 129.835 63.0291C130.092 63.238 136.086 68.2839 134.897 74.0208C133.997 78.3757 129.176 81.8629 120.579 84.3697L120.482 84.3858Z" fill="#161C24"/>
<path d="M115.983 77.9918C115.929 77.9926 115.875 77.9798 115.828 77.9545C115.78 77.9292 115.739 77.8923 115.71 77.8472C115.664 77.7758 115.647 77.6899 115.662 77.6066C115.677 77.5232 115.723 77.4485 115.79 77.3972C115.854 77.349 122.266 72.9299 127.151 70.4873C127.189 70.4683 127.231 70.4569 127.273 70.4539C127.315 70.4509 127.358 70.4563 127.398 70.4697C127.438 70.4831 127.476 70.5044 127.508 70.5322C127.54 70.56 127.566 70.5939 127.585 70.6319C127.604 70.6699 127.615 70.7112 127.618 70.7536C127.621 70.796 127.616 70.8385 127.603 70.8788C127.589 70.9191 127.568 70.9563 127.54 70.9884C127.512 71.0205 127.478 71.0468 127.44 71.0658C122.604 73.4762 116.224 77.8793 116.16 77.9275C116.109 77.967 116.047 77.9895 115.983 77.9918Z" fill="#161C24"/>
<path d="M123.198 73.0592C123.131 73.0583 123.065 73.0418 123.005 73.011L117.557 69.1543L117.413 69.09L116.866 68.6561C116.706 68.5275 116.465 68.3347 116.657 68.0937C116.85 67.8526 117.059 67.9812 117.381 68.2222L117.782 68.5275L117.83 68.5597L123.375 72.4807C123.41 72.5048 123.439 72.5356 123.462 72.5714C123.485 72.6071 123.501 72.647 123.509 72.6889C123.516 72.7307 123.515 72.7737 123.506 72.8151C123.497 72.8566 123.479 72.8959 123.455 72.9306C123.424 72.9697 123.385 73.0014 123.341 73.0237C123.296 73.0459 123.247 73.058 123.198 73.0592Z" fill="#161C24"/>
<path d="M116.352 77.4438H116.336C116.252 77.4357 116.174 77.3967 116.118 77.3342C116.061 77.2718 116.03 77.1905 116.031 77.1063L116.529 68.3483C116.537 68.2645 116.576 68.1867 116.638 68.1302C116.701 68.0737 116.782 68.0426 116.866 68.043C116.909 68.045 116.95 68.0554 116.988 68.0735C117.026 68.0916 117.061 68.117 117.089 68.1484C117.117 68.1797 117.139 68.2163 117.154 68.2562C117.168 68.296 117.174 68.3382 117.172 68.3804L116.674 77.1384C116.669 77.2209 116.634 77.2985 116.574 77.3554C116.514 77.4122 116.435 77.4439 116.352 77.4438Z" fill="#161C24"/>
<path d="M10.967 75.4354L23.4853 75.3711C23.6303 75.3712 23.7733 75.4046 23.9033 75.4687C24.0333 75.5328 24.147 75.6258 24.2354 75.7406C24.3239 75.8555 24.3848 75.9891 24.4136 76.1312C24.4423 76.2733 24.4381 76.42 24.4013 76.5602L22.264 84.6433L12.4936 84.8844L10.0671 76.6567C10.0247 76.5157 10.0156 76.3668 10.0407 76.2218C10.0658 76.0767 10.1244 75.9395 10.2117 75.821C10.299 75.7025 10.4127 75.606 10.5438 75.539C10.6749 75.4721 10.8198 75.4366 10.967 75.4354Z" fill="#161C24"/>
<path d="M22.7299 84.4844H11.9632C11.6259 84.4844 11.3525 84.7578 11.3525 85.095V85.1047C11.3525 85.4419 11.6259 85.7153 11.9632 85.7153H22.7299C23.0672 85.7153 23.3406 85.4419 23.3406 85.1047V85.095C23.3406 84.7578 23.0672 84.4844 22.7299 84.4844Z" fill="#161C24"/>
<path d="M16.6878 76.4308C16.6111 76.4285 16.5374 76.4002 16.4789 76.3504C16.4132 76.2969 16.3712 76.2197 16.3622 76.1354C16.3532 76.0511 16.3778 75.9667 16.4307 75.9005C16.4468 75.8844 18.0698 73.9078 17.9252 71.2885C17.7805 68.6691 16.4789 64.266 16.4628 64.2178C16.4458 64.1766 16.4375 64.1324 16.4385 64.0878C16.4394 64.0433 16.4496 63.9994 16.4685 63.9591C16.4873 63.9187 16.5143 63.8826 16.5478 63.8533C16.5813 63.8239 16.6205 63.8018 16.663 63.7884C16.7055 63.7749 16.7503 63.7705 16.7946 63.7753C16.8389 63.7802 16.8817 63.7941 16.9203 63.8164C16.9589 63.8386 16.9924 63.8687 17.0188 63.9046C17.0452 63.9405 17.0638 63.9815 17.0735 64.025C17.1217 64.2178 18.4073 68.4441 18.568 71.2403C18.7287 74.0364 17.0092 76.2219 16.9289 76.3183C16.8652 76.3844 16.7793 76.4245 16.6878 76.4308Z" fill="#161C24"/>
<path d="M17.9892 72.3983C15.5466 65.7133 10.5328 67.3363 9.44008 67.8023C9.41021 67.8146 9.38311 67.8327 9.36038 67.8556C9.33765 67.8786 9.31976 67.9058 9.30777 67.9358C9.29578 67.9658 9.28993 67.9979 9.29058 68.0301C9.29122 68.0624 9.29834 68.0942 9.31152 68.1237C9.77754 69.0879 11.9952 73.025 17.1535 72.8161H17.2018L17.8124 72.7036C17.846 72.6987 17.878 72.6863 17.9061 72.6672C17.9342 72.6482 17.9576 72.6231 17.9746 72.5937C17.9917 72.5643 18.0018 72.5315 18.0043 72.4976C18.0068 72.4638 18.0016 72.4298 17.9892 72.3983Z" fill="white"/>
<path d="M16.768 73.1519C11.6417 73.1519 9.4241 69.0863 9.02236 68.2506C8.96087 68.1136 8.95511 67.958 9.00629 67.8167C9.0319 67.7448 9.0723 67.679 9.12489 67.6237C9.17748 67.5683 9.24109 67.5246 9.31161 67.4954C10.1151 67.174 12.2042 66.499 14.3414 67.4471C16.0609 68.2024 17.3947 69.8415 18.2946 72.2841C18.3185 72.361 18.3266 72.442 18.3183 72.5221C18.31 72.6022 18.2856 72.6798 18.2464 72.7502C18.2058 72.8209 18.1502 72.882 18.0836 72.9292C18.017 72.9764 17.941 73.0085 17.8607 73.0233L17.2501 73.1358H16.768V73.1519ZM9.64908 68.0578C10.2437 69.263 12.3809 72.6859 17.1376 72.493L17.6518 72.4127C16.8162 70.179 15.6109 68.7166 14.0843 68.0417C12.2042 67.2061 10.3079 67.8007 9.64908 68.0578Z" fill="#161C24"/>
<path d="M17.6196 57.3735C17.7512 57.2333 17.9224 57.1364 18.1103 57.0957C18.2983 57.055 18.4942 57.0724 18.672 57.1456C18.8498 57.2189 19.0012 57.3444 19.106 57.5057C19.2108 57.6669 19.2641 57.8562 19.2588 58.0485C19.2518 58.179 19.2724 58.3096 19.3192 58.4317C19.366 58.5537 19.438 58.6646 19.5304 58.757C19.6229 58.8495 19.7337 58.9215 19.8558 58.9683C19.9779 59.0151 20.1085 59.0357 20.239 59.0287C20.4312 59.0234 20.6205 59.0767 20.7818 59.1815C20.943 59.2863 21.0686 59.4376 21.1418 59.6155C21.2151 59.7933 21.2325 59.9892 21.1918 60.1771C21.1511 60.3651 21.0542 60.5362 20.9139 60.6678C20.8151 60.7538 20.7359 60.86 20.6816 60.9792C20.6273 61.0984 20.5992 61.2278 20.5992 61.3588C20.5992 61.4898 20.6273 61.6193 20.6816 61.7385C20.7359 61.8577 20.8151 61.9638 20.9139 62.0498C21.0542 62.1814 21.1511 62.3526 21.1918 62.5405C21.2325 62.7285 21.2151 62.9243 21.1418 63.1022C21.0686 63.28 20.943 63.4314 20.7818 63.5362C20.6205 63.6409 20.4312 63.6942 20.239 63.6889C20.1085 63.682 19.9779 63.7026 19.8558 63.7494C19.7337 63.7962 19.6229 63.8682 19.5304 63.9606C19.438 64.0531 19.366 64.1639 19.3192 64.286C19.2724 64.4081 19.2518 64.5386 19.2588 64.6692C19.2641 64.8614 19.2108 65.0507 19.106 65.212C19.0012 65.3732 18.8498 65.4988 18.672 65.572C18.4942 65.6452 18.2983 65.6626 18.1103 65.6219C17.9224 65.5812 17.7512 65.4843 17.6196 65.3441C17.5337 65.2453 17.4275 65.1661 17.3083 65.1118C17.1891 65.0575 17.0596 65.0294 16.9286 65.0294C16.7977 65.0294 16.6682 65.0575 16.549 65.1118C16.4298 65.1661 16.3236 65.2453 16.2376 65.3441C16.106 65.4843 15.9349 65.5812 15.747 65.6219C15.559 65.6626 15.3631 65.6452 15.1853 65.572C15.0075 65.4988 14.8561 65.3732 14.7513 65.212C14.6465 65.0507 14.5932 64.8614 14.5985 64.6692C14.6055 64.5386 14.5849 64.4081 14.5381 64.286C14.4913 64.1639 14.4193 64.0531 14.3269 63.9606C14.2344 63.8682 14.1236 63.7962 14.0015 63.7494C13.8794 63.7026 13.7488 63.682 13.6183 63.6889C13.426 63.6942 13.2367 63.6409 13.0755 63.5362C12.9142 63.4314 12.7887 63.28 12.7155 63.1022C12.6422 62.9243 12.6248 62.7285 12.6655 62.5405C12.7062 62.3526 12.8031 62.1814 12.9434 62.0498C13.0377 61.9612 13.1129 61.8541 13.1643 61.7353C13.2158 61.6164 13.2423 61.4883 13.2423 61.3588C13.2423 61.2293 13.2158 61.1012 13.1643 60.9824C13.1129 60.8635 13.0377 60.7565 12.9434 60.6678C12.8031 60.5362 12.7062 60.3651 12.6655 60.1771C12.6248 59.9892 12.6422 59.7933 12.7155 59.6155C12.7887 59.4376 12.9142 59.2863 13.0755 59.1815C13.2367 59.0767 13.426 59.0234 13.6183 59.0287C13.7488 59.0357 13.8794 59.0151 14.0015 58.9683C14.1236 58.9215 14.2344 58.8495 14.3269 58.757C14.4193 58.6646 14.4913 58.5537 14.5381 58.4317C14.5849 58.3096 14.6055 58.179 14.5985 58.0485C14.5932 57.8562 14.6465 57.6669 14.7513 57.5057C14.8561 57.3444 15.0075 57.2189 15.1853 57.1456C15.3631 57.0724 15.559 57.055 15.747 57.0957C15.9349 57.1364 16.106 57.2333 16.2376 57.3735C16.3236 57.4723 16.4298 57.5516 16.549 57.6059C16.6682 57.6601 16.7977 57.6882 16.9286 57.6882C17.0596 57.6882 17.1891 57.6601 17.3083 57.6059C17.4275 57.5516 17.5337 57.4723 17.6196 57.3735Z" fill="#088178"/>
<path d="M16.8966 63.0288C17.864 63.0288 18.6482 62.2589 18.6482 61.3093C18.6482 60.3597 17.864 59.5898 16.8966 59.5898C15.9292 59.5898 15.145 60.3597 15.145 61.3093C15.145 62.2589 15.9292 63.0288 16.8966 63.0288Z" fill="#161C24"/>
</svg>
