<svg width="40" height="44" viewBox="0 0 40 44" fill="none" xmlns="http://www.w3.org/2000/svg">
<g clip-path="url(#clip0_661_52071)">
<path d="M23.0929 37.01C22.8742 36.9327 22.7726 36.6919 22.8515 36.4777C22.9168 36.3517 23.9172 33.4266 26.4404 32.306C26.9319 32.107 27.3716 31.9456 27.8362 31.9234C26.8844 31.5128 25.9461 31.0139 25.0596 30.4773C24.8906 30.6783 24.4623 31.0673 23.9436 31.443C23.0621 32.0817 21.7543 32.7934 20.232 32.796C17.4582 32.841 15.2158 30.615 15.1392 30.5135C15.0241 30.3611 14.9744 30.0827 15.13 29.9701C15.2337 29.8948 17.3393 27.5836 20.0748 27.4878C20.5394 27.4656 21.0806 27.545 21.4798 27.6487C21.0444 27.1782 20.609 26.7079 20.1872 26.1492L19.6502 25.438C19.0031 25.7497 16.5069 26.6937 14.2424 25.8195C11.6689 24.855 10.4502 21.966 10.4254 21.8268C10.3622 21.6369 10.441 21.4225 10.5966 21.3099C10.7003 21.2347 13.5865 19.851 16.1599 20.8156C16.6358 21.0209 17.0599 21.2637 17.4321 21.5442C17.1026 20.6827 16.7866 19.733 16.5992 18.8472C15.9023 18.8806 13.2321 18.8504 11.45 17.234C9.42431 15.4012 9.44588 12.2422 9.45939 12.1539C9.44804 11.9263 9.65546 11.7761 9.84941 11.7141C9.99146 11.6899 13.205 11.4834 15.1789 13.3539C15.5376 13.7226 15.8579 14.0407 16.1129 14.4846C16.1328 13.4486 16.1528 12.4126 16.3532 11.4029C15.6586 11.1204 13.2791 10.094 12.3131 7.96476C11.169 5.49323 12.44 2.6079 12.5054 2.48196C12.5842 2.26766 12.83 2.16818 13.0488 2.24544C13.1774 2.30946 16.1636 3.28936 17.3077 5.76089C17.9937 7.30699 17.7756 9.03671 17.5233 10.0838C17.5233 10.0838 17.4715 10.1214 17.5098 10.1722C16.2079 15.673 17.4592 21.3674 20.9515 25.674C25.1342 30.8948 31.9796 33.4795 38.8372 32.3619C39.0694 32.3507 39.2747 32.5164 39.3379 32.7063C39.3628 32.8455 39.3357 33.0222 39.1802 33.1349C39.1283 33.1725 39.0765 33.2101 38.9863 33.1969C36.6748 33.5355 34.4174 33.5207 32.214 33.1525C31.9909 33.707 31.2179 35.4458 29.6622 36.5728C29.351 36.7982 29.0534 36.9352 28.7038 37.1099C26.1806 38.2305 23.2215 37.074 23.0929 37.01Z" fill="#B4C0D3"/>
</g>
<defs>
<clipPath id="clip0_661_52071">
<rect width="40" height="44" fill="white"/>
</clipPath>
</defs>
</svg>
