<svg width="10" height="15" viewBox="0 0 10 15" fill="none" xmlns="http://www.w3.org/2000/svg">
<path d="M5 0C2.238 0 0 1.99142 0 4.45814C0 8.72331 5 14.2857 5 14.2857C5 14.2857 10 8.72241 10 4.45814C10 1.99232 7.762 0 5 0ZM5 6.92486C4.28392 6.92486 3.59716 6.67072 3.09081 6.21834C2.58446 5.76596 2.3 5.1524 2.3 4.51264C2.3 3.87288 2.58446 3.25932 3.09081 2.80694C3.59716 2.35456 4.28392 2.10042 5 2.10042C5.71608 2.10042 6.40284 2.35456 6.90919 2.80694C7.41554 3.25932 7.7 3.87288 7.7 4.51264C7.7 5.1524 7.41554 5.76596 6.90919 6.21834C6.40284 6.67072 5.71608 6.92486 5 6.92486Z" fill="url(#paint0_linear_595_98381)"/>
<defs>
<linearGradient id="paint0_linear_595_98381" x1="6.20622" y1="15.1052" x2="3.07428" y2="-2.63843" gradientUnits="userSpaceOnUse">
<stop stop-color="#6A708B"/>
<stop offset="1" stop-color="#969DB9"/>
</linearGradient>
</defs>
</svg>
