<svg width="24" height="24" viewBox="0 0 24 24" fill="none" xmlns="http://www.w3.org/2000/svg">
<path fill-rule="evenodd" clip-rule="evenodd" d="M15.2354 19.5C14.8501 19.9103 14.4521 20.3085 14.0419 20.694L14.0339 20.7015C13.48 21.2135 12.7534 21.4979 11.999 21.498C11.2447 21.4981 10.518 21.2139 9.96392 20.702L9.95542 20.6945C9.54551 20.3086 9.14749 19.9102 8.76192 19.5H6.11692C6.02407 19.4999 5.93303 19.5258 5.85407 19.5746C5.7751 19.6235 5.71132 19.6934 5.66992 19.7765L4.66992 21.7765C4.63184 21.8527 4.61386 21.9374 4.61769 22.0225C4.62153 22.1076 4.64704 22.1903 4.69182 22.2628C4.7366 22.3353 4.79916 22.3951 4.87356 22.4366C4.94795 22.4781 5.03172 22.5 5.11692 22.5H18.8809C18.9661 22.5 19.0499 22.4781 19.1243 22.4366C19.1987 22.3951 19.2612 22.3353 19.306 22.2628C19.3508 22.1903 19.3763 22.1076 19.3801 22.0225C19.384 21.9374 19.366 21.8527 19.3279 21.7765L18.3279 19.7765C18.2865 19.6934 18.2227 19.6235 18.1438 19.5746C18.0648 19.5258 17.9738 19.4999 17.8809 19.5H15.2354Z" fill="#E15F7F"/>
<path fill-rule="evenodd" clip-rule="evenodd" d="M12 1.5C16.1395 1.5 19.5 4.8605 19.5 9C19.5 13.6 15.363 18.0855 13.359 19.9645L13.3565 19.967C12.9873 20.3084 12.503 20.498 12.0001 20.4981C11.4972 20.4982 11.0128 20.3087 10.6435 19.9675L10.641 19.965C8.637 18.0855 4.5 13.6 4.5 9C4.5 4.8605 7.8605 1.5 12 1.5ZM12 6.5C10.62 6.5 9.5 7.62 9.5 9C9.5 10.38 10.62 11.5 12 11.5C13.38 11.5 14.5 10.38 14.5 9C14.5 7.62 13.38 6.5 12 6.5Z" fill="#E15F7F"/>
</svg>
