<svg width="42" height="54" viewBox="0 0 42 54" fill="none" xmlns="http://www.w3.org/2000/svg">
<g clip-path="url(#clip0_661_52571)">
<path d="M20.4815 9.43753H19.6318L19.4703 9.28137H6.2263L6.06476 9.43753H5.21399C4.32768 9.43753 3.60938 10.1354 3.60938 10.9948V14.0726C3.60938 14.932 4.32768 15.6298 5.21399 15.6298H20.4826C21.3678 15.6298 22.0872 14.932 22.0872 14.0726V10.9948C22.0872 10.1354 21.3668 9.43753 20.4815 9.43753Z" fill="#2571A0"/>
<path d="M5.24522 14.0726V10.9948C5.24522 10.1354 5.96353 9.43753 6.84984 9.43753H7.70061V9.28137H6.06368V9.43753H5.21399C4.32768 9.43753 3.60938 10.1354 3.60938 10.9948V14.0726C3.60938 14.932 4.32768 15.6298 5.21399 15.6298H6.84876C5.96353 15.6298 5.24414 14.932 5.24414 14.0726H5.24522Z" fill="#196084"/>
<path d="M6.06641 15.3951H19.6335V19.2343H6.06641V15.3951Z" fill="#BABABA"/>
<path d="M6.06641 17.3141H19.6335V19.2332H6.06641V17.3141Z" fill="#989DA0"/>
<path d="M24.6588 40.9181C24.6588 43.6966 22.338 45.9506 19.4756 45.9506H6.2262C3.36374 45.9506 1.04297 43.6977 1.04297 40.9181V23.8629C1.04297 21.0844 3.36374 18.8304 6.2262 18.8304H19.4745C22.337 18.8304 24.6577 21.0834 24.6577 23.8629L24.6588 40.9181Z" fill="#EAE8E8"/>
<path d="M2.6562 40.9181V23.8629C2.6562 21.0844 4.97697 18.8304 7.84051 18.8304H6.2262C3.36374 18.8304 1.04297 21.0834 1.04297 23.8629V40.9181C1.04297 43.6966 3.36374 45.9506 6.2262 45.9506H7.84158C4.97805 45.9506 2.65728 43.6977 2.65728 40.9181H2.6562Z" fill="#D6D4D4"/>
<path d="M3.61045 12.5337V14.0726C3.61045 14.9331 4.32768 15.6298 5.21399 15.6298H20.4826C21.3678 15.6298 22.0872 14.9331 22.0872 14.0726V12.5337H3.60938H3.61045Z" fill="#4A94CC"/>
<path d="M5.24805 14.0726V12.5337H3.61328V14.0726C3.61328 14.9331 4.33051 15.6298 5.21682 15.6298H6.85159C5.96636 15.6298 5.24697 14.9331 5.24697 14.0726H5.24805Z" fill="#2571A0"/>
<path d="M35.103 45.9506C37.7846 45.9506 39.9599 43.8398 39.9599 41.2358C39.9599 38.6329 37.7846 36.5222 35.103 36.5222C32.4215 36.5222 30.2461 38.6329 30.2461 41.2358C30.2461 43.8398 32.4215 45.9506 35.103 45.9506Z" fill="#FFA92C"/>
<path d="M30.8974 43.5932C32.2381 45.8483 35.2083 46.6204 37.5312 45.3184L32.6743 37.1532C30.3524 38.4552 29.5566 41.3381 30.8974 43.5932Z" fill="#FFA92C"/>
<path d="M27.4498 45.9506C25.9076 45.9506 24.6562 44.7359 24.6562 43.2379V36.0763C24.6562 34.5794 25.9076 33.3646 27.4498 33.3646C28.993 33.3646 30.2444 34.5794 30.2444 36.0774V43.2389C30.2444 44.7359 28.993 45.9506 27.4498 45.9506Z" fill="#EA473B"/>
<path d="M24.6562 39.657V43.2378C24.6562 44.7358 25.9076 45.9506 27.4498 45.9506C28.993 45.9506 30.2444 44.7358 30.2444 43.2378V39.657H24.6562Z" fill="#EA473B"/>
<path d="M35.103 45.9506C37.7846 45.9506 39.9599 43.8398 39.9599 41.2358C39.9599 38.6329 37.7846 36.5222 35.103 36.5222C32.4215 36.5222 30.2461 38.6329 30.2461 41.2358C30.2461 43.8398 32.4215 45.9506 35.103 45.9506Z" fill="#FFA92C"/>
<path d="M32.5074 43.5932C30.8167 40.7501 32.5699 37.1317 35.9051 36.5867C31.8817 35.9277 28.8384 40.1352 30.8953 43.5932C31.9377 45.3464 33.9667 46.2037 35.9094 45.8849C35.2094 45.7747 34.542 45.5124 33.9542 45.1165C33.3664 44.7205 32.8726 44.2006 32.5074 43.5932Z" fill="#F49519"/>
<path d="M30.8974 43.5932C32.2381 45.8483 35.2083 46.6204 37.5312 45.3184L32.6743 37.1532C30.3524 38.4552 29.5566 41.3381 30.8974 43.5932Z" fill="#FF8828"/>
<path d="M32.5728 45.2625C33.5782 45.8519 34.7577 46.072 35.9081 45.8849C32.0904 45.2603 30.5181 40.7426 33.1781 38.0029L32.6719 37.1522C31.9464 37.5471 31.3392 38.1283 30.9129 38.8358C30.4866 39.5434 30.2565 40.3517 30.2464 41.1777C30.2363 42.0037 30.4466 42.8175 30.8555 43.5353C31.2644 44.253 31.8572 44.8499 32.5728 45.2625Z" fill="#EA6C18"/>
<path d="M30.2444 39.8143V36.0774C30.2444 34.5794 28.993 33.3646 27.4498 33.3646C25.9076 33.3646 24.6562 34.5794 24.6562 36.0774V39.8143H30.2444Z" fill="#8DD83D"/>
<path d="M28.2564 33.4799C27.9944 33.4033 27.7228 33.3645 27.4498 33.3646C25.9076 33.3646 24.6562 34.5794 24.6562 36.0774V39.8143H26.2684V36.0774C26.2684 34.8519 27.1063 33.8159 28.2564 33.4799Z" fill="#5CCC2E"/>
<path d="M21.0761 38.1343C21.0761 39.0497 20.3115 39.7927 19.3692 39.7927H6.333C5.38962 39.7927 4.625 39.0497 4.625 38.1343V26.6467C4.625 25.7314 5.38962 24.9883 6.333 24.9883H19.3702C20.3136 24.9883 21.0782 25.7314 21.0782 26.6467V38.1343H21.0761Z" fill="#FFA92C"/>
<path d="M6.23715 38.1343V26.6467C6.23715 25.7314 7.00177 24.9883 7.94515 24.9883H6.333C5.38962 24.9883 4.625 25.7314 4.625 26.6467V38.1343C4.625 39.0497 5.38962 39.7927 6.333 39.7927H7.94515C7.00177 39.7927 6.23715 39.0497 6.23715 38.1343Z" fill="#F49519"/>
<path d="M15.9633 31.0654H14.2166V29.3692C14.2166 28.7554 13.705 28.26 13.0729 28.26H12.6292C11.997 28.26 11.4855 28.7554 11.4855 29.3692V31.0654H9.73871C9.10764 31.0654 8.59502 31.5607 8.59502 32.1746V32.6054C8.59502 33.2192 9.10764 33.7157 9.73871 33.7157H11.4855V35.4118C11.4855 36.0246 11.997 36.5211 12.6292 36.5211H13.0729C13.705 36.5211 14.2166 36.0246 14.2166 35.4118V33.7157H15.9633C16.5944 33.7157 17.1059 33.2192 17.1059 32.6064V32.1757C17.1059 31.5618 16.5944 31.0654 15.9633 31.0654ZM18.031 7.0769H7.67102C6.78579 7.0769 6.06641 7.77367 6.06641 8.63414V9.43752H19.6346V8.63414C19.6335 7.77367 18.9163 7.0769 18.0289 7.0769H18.031Z" fill="#EAE8E8"/>
<path d="M9.26271 7.0769H7.67102C6.78579 7.0769 6.06641 7.77367 6.06641 8.63414V9.43752H7.6581V8.63414C7.6581 7.77367 8.37641 7.0769 9.26271 7.0769ZM11.1096 32.5031C10.4786 32.5031 9.96595 32.0055 9.96595 31.3927V31.0643H9.73979C9.10764 31.0643 8.59502 31.5618 8.59502 32.1746V32.6054C8.59502 33.2192 9.10764 33.7157 9.73871 33.7157H11.4855V35.4118C11.4855 36.0246 11.997 36.5211 12.6292 36.5211H13.0729C13.705 36.5211 14.2166 36.0246 14.2166 35.4118V35.3084H13.999C13.3679 35.3084 12.8564 34.8109 12.8564 34.1992V33.4411C12.8524 33.1882 12.7482 32.9472 12.5667 32.7711C12.3852 32.595 12.1411 32.4982 11.8883 32.502H11.1096V32.5031Z" fill="#D6D4D4"/>
<path d="M24.6562 39.657V43.2378C24.6562 44.7358 25.9076 45.9506 27.4498 45.9506C28.993 45.9506 30.2444 44.7358 30.2444 43.2378V39.657H24.6562Z" fill="#4A94CC"/>
<path d="M26.2684 43.2378V39.657H24.6562V43.2378C24.6562 44.7358 25.9076 45.9506 27.4498 45.9506C27.7298 45.9506 28.0012 45.9097 28.2564 45.8354C27.1063 45.4994 26.2684 44.4633 26.2684 43.2378Z" fill="#2571A0"/>
</g>
<defs>
<clipPath id="clip0_661_52571">
<rect width="42" height="39.8462" fill="white" transform="translate(0 7.0769)"/>
</clipPath>
</defs>
</svg>
