<svg width="48" height="55" viewBox="0 0 48 55" fill="none" xmlns="http://www.w3.org/2000/svg">
<path d="M11.0866 3.40908C10.5923 3.40908 10.2275 3.78408 10.2275 4.24431V9.39202C10.2275 9.50259 10.2495 9.61202 10.2921 9.71401C10.3347 9.81605 10.3971 9.90855 10.4758 9.98628C10.5544 10.064 10.6477 10.1253 10.7502 10.1666C10.8528 10.208 10.9624 10.2286 11.073 10.2272H36.6544C36.8769 10.2272 37.0904 10.1396 37.2487 9.98327C37.4069 9.82691 37.4972 9.61446 37.4999 9.39202V4.24431C37.4999 3.77726 37.1146 3.40908 36.6408 3.40908H34.0908L30.6818 0H17.0456L13.6366 3.40908H11.0866Z" fill="white"/>
<path fill-rule="evenodd" clip-rule="evenodd" d="M0 10.2011C0 6.45788 3.04689 3.42116 6.81808 3.41022V11.95C6.81808 12.9045 7.59534 13.6375 8.55669 13.6375H39.1699C40.1312 13.6375 40.9085 12.8806 40.9085 11.95V3.41019H40.888C42.6951 3.40476 44.4305 4.11695 45.7127 5.39032C46.9951 6.66367 47.7194 8.39395 47.7266 10.2011V47.7556C47.7266 51.5055 44.6687 54.5464 40.888 54.5464H6.83854C5.03146 54.5518 3.29609 53.8397 2.01383 52.5663C0.731546 51.293 0.00722149 49.5627 0 47.7556V10.2011ZM10.2271 25.5692C10.2271 26.4829 10.9907 27.2738 11.9316 27.2738H35.7949C36.7154 27.2738 37.4995 26.5102 37.4995 25.5692C37.4995 24.6556 36.7358 23.8647 35.7949 23.8647H11.9316C11.0112 23.8647 10.2271 24.6283 10.2271 25.5692ZM10.2271 39.2056C10.2271 40.1192 10.9907 40.9101 11.9316 40.9101H35.7949C36.7154 40.9101 37.4995 40.1465 37.4995 39.2056C37.4995 38.2919 36.7358 37.501 35.7949 37.501H11.9316C11.0112 37.501 10.2271 38.2647 10.2271 39.2056ZM35.7949 30.6828H11.9316C10.9902 30.6828 10.2271 31.4459 10.2271 32.3874C10.2271 33.3288 10.9902 34.0919 11.9316 34.0919H35.7949C36.7363 34.0919 37.4995 33.3288 37.4995 32.3874C37.4995 31.4459 36.7363 30.6828 35.7949 30.6828Z" fill="white"/>
</svg>
