<svg width="53" height="55" viewBox="0 0 53 55" fill="none" xmlns="http://www.w3.org/2000/svg">
<path fill-rule="evenodd" clip-rule="evenodd" d="M39.3825 2.99804C38.4668 2.93383 37.1331 3.20819 35.2762 4.24726C31.5509 6.33123 29.6599 8.89676 28.6929 10.8785C28.3403 11.6023 28.1071 12.2532 27.9508 12.7844C28.2124 12.8049 28.4968 12.8224 28.8067 12.8399C29.0229 12.8516 29.2475 12.8603 29.4835 12.872V21.1553H23.6596V12.8458L23.7563 12.84C24.0663 12.8225 24.3506 12.805 24.6123 12.7845C24.4559 12.2533 24.2227 11.6025 23.8701 10.8786C22.9032 8.89687 21.0121 6.33134 17.2869 4.24738C15.4299 3.20834 14.0962 2.93398 13.1806 2.99816C12.3104 3.05945 11.7132 3.43012 11.2696 3.96718C10.7975 4.53924 10.4676 5.34775 10.3056 6.26126C10.1435 7.16894 10.1691 8.07378 10.3084 8.74796C10.5444 9.89795 11.3719 10.7998 12.845 11.4974C14.3323 12.2008 16.2774 12.5889 18.2993 12.7728C19.3913 12.8691 20.4747 12.9041 21.4757 12.9041V21.1553H2.91196C1.30245 21.1553 0 19.8156 0 18.1666V16.9903C0 15.3384 1.30245 14.0016 2.91196 14.0016H11.2074C9.44146 13.0676 7.92294 11.6083 7.45943 9.37259C7.23478 8.28977 7.21487 6.99094 7.43952 5.72424C7.66417 4.46046 8.15329 3.11493 9.0462 2.03503C9.96754 0.920082 11.2813 0.134942 12.9819 0.015318C14.6369 -0.0985079 16.5337 0.421016 18.6806 1.62348C22.7471 3.90007 25.0221 6.74579 26.2816 9.15957C27.5414 6.74579 29.8164 3.90007 33.8825 1.62348C36.0295 0.420963 37.9263 -0.0985527 39.5813 0.015318C41.2818 0.134987 42.5956 0.920082 43.517 2.03503C44.4099 3.11493 44.899 4.46046 45.1237 5.72424C45.3483 6.99094 45.3284 8.28977 45.1038 9.37259C44.6402 11.6083 43.1217 13.0676 41.3558 14.0016H49.3608C50.9674 14.0016 52.2727 15.3384 52.2727 16.9903V18.1666C52.2727 19.8156 50.9674 21.1553 49.3608 21.1553H31.6669V12.9012C32.5001 12.8895 33.3789 12.8515 34.2632 12.7727C36.2851 12.5889 38.2302 12.2007 39.7175 11.4973C41.1905 10.7997 42.0181 9.89787 42.2541 8.74788C42.3935 8.07367 42.419 7.16886 42.257 6.26118C42.0949 5.3476 41.765 4.53915 41.2929 3.96711C40.8493 3.43007 40.2526 3.05939 39.3825 2.99804ZM6.6855 24.1441H21.4754V54.5454H6.6855C5.8807 54.5454 5.22952 53.8771 5.22952 53.0511V25.6384C5.22952 24.8124 5.88073 24.1441 6.6855 24.1441ZM23.6593 54.5454H29.4833V24.1441H23.6593V54.5454ZM45.59 54.5454H31.6672V24.1441H45.59C46.3948 24.1441 47.046 24.8124 47.046 25.6384V53.0511C47.046 53.8771 46.3948 54.5454 45.59 54.5454Z" fill="white"/>
</svg>
