<svg width="20" height="20" viewBox="0 0 20 20" fill="none" xmlns="http://www.w3.org/2000/svg">
<path d="M2.10794 12.3079C1.93073 13.4695 2.72301 14.2759 3.69305 14.6777C7.41201 16.2183 12.5873 16.2183 16.3063 14.6777C17.2763 14.2759 18.0686 13.4695 17.8914 12.3079C17.7825 11.5939 17.244 10.9994 16.845 10.4189C16.3224 9.64923 16.2705 8.80969 16.2704 7.9165C16.2704 4.46472 13.4629 1.6665 9.99968 1.6665C6.53645 1.6665 3.72895 4.46472 3.72895 7.9165C3.72887 8.80969 3.67694 9.64923 3.15435 10.4189C2.75537 10.9994 2.21685 11.5939 2.10794 12.3079Z" stroke="#212B36" stroke-width="1.5" stroke-linecap="round" stroke-linejoin="round"/>
<path d="M6.66699 15.8335C7.04906 17.2712 8.3966 18.3335 10.0003 18.3335C11.604 18.3335 12.9516 17.2712 13.3337 15.8335" stroke="#212B36" stroke-width="1.5" stroke-linecap="round" stroke-linejoin="round"/>
</svg>
