<svg width="24" height="24" viewBox="0 0 24 24" fill="none" xmlns="http://www.w3.org/2000/svg">
<g clip-path="url(#clip0_669_56648)">
<g clip-path="url(#clip1_669_56648)">
<g clip-path="url(#clip2_669_56648)">
<mask id="mask0_669_56648" style="mask-type:luminance" maskUnits="userSpaceOnUse" x="0" y="0" width="24" height="24">
<path d="M24 0H0V24H24V0Z" fill="white"/>
</mask>
<g mask="url(#mask0_669_56648)">
<g opacity="0.5">
<path fill-rule="evenodd" clip-rule="evenodd" d="M23.9397 11.0942C23.8665 11.3994 23.7315 11.6864 23.543 11.9374L22.0971 13.8724C22.0503 13.9352 22.0188 14.0081 22.0053 14.0852C21.9917 14.1623 21.9965 14.2415 22.0191 14.3164L22.7211 16.6384C22.8115 16.94 22.8392 17.2568 22.8026 17.5694C22.7659 17.8821 22.6657 18.184 22.5081 18.4564C22.3535 18.7253 22.1454 18.9596 21.8967 19.1448C21.648 19.3301 21.3639 19.4623 21.062 19.5334L18.7281 20.0794C18.655 20.0976 18.5871 20.1326 18.5298 20.1816C18.4725 20.2305 18.4274 20.2921 18.398 20.3614L17.462 22.5964C17.341 22.8866 17.1612 23.1486 16.9341 23.3659C16.7069 23.5833 16.4373 23.7513 16.1421 23.8594C15.8949 23.949 15.634 23.9947 15.3711 23.9944C15.0113 23.9939 14.6567 23.9086 14.3361 23.7454L12.2001 22.6414C12.1354 22.609 12.0639 22.5921 11.9915 22.5921C11.9192 22.5921 11.8478 22.609 11.7831 22.6414L9.65007 23.7454C9.37148 23.8887 9.06618 23.9726 8.75351 23.9919C8.44084 24.0111 8.12758 23.9653 7.83351 23.8573C7.53945 23.7493 7.27097 23.5815 7.04506 23.3645C6.81916 23.1475 6.64073 22.8859 6.52105 22.5964L5.58505 20.3614C5.55577 20.2925 5.51105 20.2313 5.45435 20.1824C5.39766 20.1335 5.33052 20.0983 5.25806 20.0794L2.92405 19.5334C2.62094 19.4595 2.33636 19.3238 2.08807 19.1349C1.83978 18.946 1.6331 18.7079 1.48104 18.4354C1.32388 18.1627 1.22418 17.8608 1.18807 17.5481C1.15195 17.2355 1.18019 16.9188 1.27105 16.6174L1.97004 14.2954C1.99329 14.2207 1.99863 14.1416 1.9856 14.0645C1.97257 13.9873 1.94154 13.9144 1.89504 13.8514L0.452057 11.9134C0.265935 11.661 0.13299 11.3735 0.0613101 11.0682C-0.0103699 10.7629 -0.019296 10.4463 0.0350528 10.1374C0.0908533 9.83338 0.207578 9.54372 0.378229 9.28594C0.54888 9.02816 0.769948 8.80758 1.02807 8.63745L3.03806 7.31444C3.10199 7.2715 3.15488 7.21408 3.19241 7.14682C3.22995 7.07957 3.25106 7.00439 3.25405 6.92743L3.38006 4.50344C3.39516 4.1909 3.47443 3.88479 3.61293 3.60421C3.75143 3.32363 3.94618 3.07458 4.1851 2.87252C4.42402 2.67047 4.702 2.51976 5.00168 2.42977C5.30136 2.33978 5.61635 2.31242 5.92706 2.34943L8.30307 2.64943C8.37607 2.6592 8.45035 2.65092 8.51939 2.62529C8.58843 2.59966 8.65012 2.55747 8.69905 2.50243L10.334 0.726453C10.5457 0.495663 10.803 0.311365 11.0896 0.185303C11.3762 0.0592403 11.6859 -0.00585938 11.9991 -0.00585938C12.3122 -0.00585938 12.6219 0.0592403 12.9085 0.185303C13.1951 0.311365 13.4524 0.495663 13.6641 0.726453L15.2961 2.50243C15.3458 2.5573 15.408 2.59933 15.4775 2.62493C15.547 2.65052 15.6216 2.65892 15.695 2.64943L18.0711 2.34943C18.3789 2.31211 18.6911 2.33838 18.9883 2.42662C19.2855 2.51487 19.5615 2.66322 19.7991 2.86245C20.0401 3.06561 20.2369 3.31605 20.3772 3.59831C20.5176 3.88058 20.5985 4.18864 20.615 4.50344L20.7411 6.92743C20.7446 7.0046 20.7663 7.07985 20.8043 7.14708C20.8424 7.21431 20.8957 7.27166 20.9601 7.31444L22.9671 8.63745C23.2294 8.80981 23.4536 9.03406 23.6259 9.29641C23.7982 9.55876 23.915 9.85363 23.969 10.1628C24.0229 10.472 24.013 10.789 23.9397 11.0942Z" fill="#6DB9EB"/>
<mask id="mask1_669_56648" style="mask-type:luminance" maskUnits="userSpaceOnUse" x="7" y="7" width="10" height="11">
<path d="M16.8324 7.2002H7.34375V17.6882H16.8324V7.2002Z" fill="white"/>
</mask>
<g mask="url(#mask1_669_56648)">
<path d="M16.322 14.8061C15.6547 14.1389 14.5552 14.1389 13.8754 14.8061C13.2082 15.4734 13.2082 16.5322 13.8754 17.1963C14.5552 17.8479 15.6547 17.8479 16.322 17.1963C17.0018 16.5291 17.0018 15.4702 16.322 14.8061Z" fill="#D1EBFB"/>
<path d="M10.2759 10.0797C10.9557 9.41241 10.9557 8.35358 10.2759 7.702C9.60863 7.03475 8.52161 7.03475 7.84183 7.69887C7.17772 8.35358 7.17772 9.41241 7.84183 10.0797C8.52161 10.7312 9.60863 10.7312 10.2728 10.0797H10.2759Z" fill="#D1EBFB"/>
<path d="M15.2602 7.44185C14.7715 7.12859 14.1325 7.27896 13.8349 7.75511L8.35591 16.0973C8.04265 16.5734 8.19302 17.1968 8.66918 17.4976C8.8446 17.6072 9.04822 17.6604 9.23931 17.6604C9.5651 17.6604 9.91909 17.4976 10.1102 17.2L15.586 8.82647C15.8836 8.35031 15.7489 7.73945 15.2602 7.44185Z" fill="#D1EBFB"/>
</g>
</g>
</g>
</g>
</g>
</g>
<defs>
<clipPath id="clip0_669_56648">
<rect width="24" height="24" fill="white"/>
</clipPath>
<clipPath id="clip1_669_56648">
<rect width="24" height="24" fill="white"/>
</clipPath>
<clipPath id="clip2_669_56648">
<rect width="24" height="24" fill="white"/>
</clipPath>
</defs>
</svg>
