<svg width="64" height="64" viewBox="0 0 64 64" fill="none" xmlns="http://www.w3.org/2000/svg">
<path d="M53.3307 34.6667C53.3307 48 43.9974 54.6667 32.9041 58.5334C32.3232 58.7302 31.6922 58.7208 31.1174 58.5067C19.9974 54.6667 10.6641 48 10.6641 34.6667V16C10.6641 15.2928 10.945 14.6145 11.4451 14.1144C11.9452 13.6143 12.6235 13.3334 13.3307 13.3334C18.6641 13.3334 25.3307 10.1334 29.9707 6.08002C30.5357 5.59735 31.2543 5.33215 31.9974 5.33215C32.7405 5.33215 33.4591 5.59735 34.0241 6.08002C38.6907 10.16 45.3307 13.3334 50.6641 13.3334C51.3713 13.3334 52.0496 13.6143 52.5497 14.1144C53.0498 14.6145 53.3307 15.2928 53.3307 16V34.6667Z" stroke="white" stroke-width="5.33333" stroke-linecap="round" stroke-linejoin="round"/>
<path d="M24 32L29.3333 37.3334L40 26.6667" stroke="white" stroke-width="5.33333" stroke-linecap="round" stroke-linejoin="round"/>
</svg>
