<svg width="14" height="14" viewBox="0 0 14 14" fill="none" xmlns="http://www.w3.org/2000/svg">
<mask id="mask0_595_99010" style="mask-type:alpha" maskUnits="userSpaceOnUse" x="0" y="0" width="14" height="14">
<rect width="14" height="14" fill="#D9D9D9"/>
</mask>
<g mask="url(#mask0_595_99010)">
<path d="M7.00204 10.0771L4.58121 11.5354C4.47427 11.6035 4.36246 11.6327 4.24579 11.6229C4.12913 11.6132 4.02704 11.5743 3.93954 11.5063C3.85204 11.4382 3.78399 11.3532 3.73538 11.2511C3.68677 11.149 3.67704 11.0348 3.70621 10.9084L4.34788 8.15212L2.20413 6.30003C2.1069 6.21253 2.04614 6.11288 2.02183 6.00107C1.99753 5.88927 2.00482 5.77989 2.04371 5.67295C2.0826 5.566 2.14093 5.4785 2.21871 5.41045C2.29649 5.34239 2.40343 5.29864 2.53954 5.2792L5.36871 5.03128L6.46246 2.43545C6.51107 2.31878 6.58642 2.23128 6.6885 2.17295C6.79059 2.11462 6.8951 2.08545 7.00204 2.08545C7.10899 2.08545 7.2135 2.11462 7.31559 2.17295C7.41767 2.23128 7.49302 2.31878 7.54163 2.43545L8.63538 5.03128L11.4645 5.2792C11.6007 5.29864 11.7076 5.34239 11.7854 5.41045C11.8632 5.4785 11.9215 5.566 11.9604 5.67295C11.9993 5.77989 12.0066 5.88927 11.9823 6.00107C11.9579 6.11288 11.8972 6.21253 11.8 6.30003L9.65621 8.15212L10.2979 10.9084C10.327 11.0348 10.3173 11.149 10.2687 11.2511C10.2201 11.3532 10.152 11.4382 10.0645 11.5063C9.97704 11.5743 9.87496 11.6132 9.75829 11.6229C9.64163 11.6327 9.52982 11.6035 9.42288 11.5354L7.00204 10.0771Z" fill="#F79E1B"/>
</g>
</svg>
