<svg width="217" height="145" viewBox="0 0 217 145" fill="none" xmlns="http://www.w3.org/2000/svg">
<g clip-path="url(#clip0_1551_39693)">
<path d="M54.1356 89.519C54.7588 105.371 88.5274 134.547 125.335 119.108C142.454 111.927 140.101 102.904 152.38 89.5644C159.699 81.6138 170.674 75.0898 172.889 64.3259C174.802 55.0351 172.2 45.4868 166.825 39.623C154.736 26.4355 132.104 18.7561 112.798 43.1431C93.4919 67.5302 52.5324 48.6343 54.1356 89.519Z" fill="url(#paint0_linear_1551_39693)"/>
<path d="M47.3817 46.9188C50.3349 52.2012 56.8022 52.9269 67.1632 51.9232C74.9554 51.1668 82.0612 50.5815 89.8542 46.3229C95.3086 43.3443 99.6262 39.3145 102.778 35.4005C106.192 31.1602 110.959 26.3211 108.622 21.5134C105.411 14.9091 86.8417 9.34689 68.8102 18.443C49.0025 28.4378 44.493 41.7561 47.3817 46.9188Z" fill="url(#paint1_linear_1551_39693)"/>
<path d="M23.3576 62.7654C31.0129 66.5714 41.1733 61.6774 41.1733 61.6774C41.1733 61.6774 38.9153 50.6146 31.2559 46.8137C23.6007 43.0074 13.4443 47.8961 13.4443 47.8961C13.4443 47.8961 15.7023 58.9591 23.3576 62.7654Z" fill="url(#paint2_linear_1551_39693)"/>
<path d="M194.884 74.622C190.725 77.1205 184.758 74.8107 184.758 74.8107C184.758 74.8107 185.538 68.451 189.7 65.9553C193.859 63.457 199.824 65.7637 199.824 65.7637C199.824 65.7637 199.043 72.1234 194.884 74.622Z" fill="url(#paint3_linear_1551_39693)"/>
<path d="M42.3396 117.155C43.6382 117.155 44.6909 116.1 44.6909 114.798C44.6909 113.497 43.6382 112.441 42.3396 112.441C41.041 112.441 39.9883 113.497 39.9883 114.798C39.9883 116.1 41.041 117.155 42.3396 117.155Z" fill="#DFE3E8"/>
<path d="M195.471 100.738C197.347 100.738 198.868 99.2138 198.868 97.3338C198.868 95.4538 197.347 93.9297 195.471 93.9297C193.596 93.9297 192.075 95.4538 192.075 97.3338C192.075 99.2138 193.596 100.738 195.471 100.738Z" fill="#DFE3E8"/>
<path d="M30.3669 94.0915C31.7944 94.0915 32.9516 92.9316 32.9516 91.5008C32.9516 90.07 31.7944 88.9102 30.3669 88.9102C28.9394 88.9102 27.7822 90.07 27.7822 91.5008C27.7822 92.9316 28.9394 94.0915 30.3669 94.0915Z" fill="#DFE3E8"/>
<path d="M44.8377 25.7374C46.4248 25.7374 47.7115 24.4478 47.7115 22.857C47.7115 21.2662 46.4248 19.9766 44.8377 19.9766C43.2505 19.9766 41.9639 21.2662 41.9639 22.857C41.9639 24.4478 43.2505 25.7374 44.8377 25.7374Z" fill="#DFE3E8"/>
<path d="M202.194 41.0475C202.194 42.476 203.35 43.6341 204.775 43.6341C206.2 43.6341 207.355 42.476 207.355 41.0475C207.355 39.619 206.2 38.4609 204.775 38.4609C203.35 38.4609 202.194 39.619 202.194 41.0475Z" fill="#DFE3E8"/>
<path d="M129.127 19.5809C131.023 19.5809 132.56 18.0404 132.56 16.1401C132.56 14.2397 131.023 12.6992 129.127 12.6992C127.231 12.6992 125.694 14.2397 125.694 16.1401C125.694 18.0404 127.231 19.5809 129.127 19.5809Z" fill="#DFE3E8"/>
<path d="M39.7747 79.2662C41.2332 79.2662 42.4156 78.3182 42.4156 77.1487C42.4156 75.9793 41.2332 75.0312 39.7747 75.0312C38.3162 75.0312 37.1338 75.9793 37.1338 77.1487C37.1338 78.3182 38.3162 79.2662 39.7747 79.2662Z" fill="#DFE3E8"/>
<path d="M175.935 25.6953H175.897C175.674 28.859 173.327 28.9075 173.327 28.9075C173.327 28.9075 175.915 28.9583 175.915 32.6137C175.915 28.9583 178.504 28.9075 178.504 28.9075C178.504 28.9075 176.158 28.859 175.935 25.6953ZM179.867 108.506H179.831C179.617 111.66 177.364 111.708 177.364 111.708C177.364 111.708 179.849 111.759 179.849 115.403C179.849 111.759 182.334 111.708 182.334 111.708C182.334 111.708 180.081 111.66 179.867 108.506Z" fill="#DFE3E8"/>
<path d="M108.787 131.916C141.539 131.916 168.089 105.304 168.089 72.4775C168.089 39.6505 141.539 13.0391 108.787 13.0391C76.0357 13.0391 49.4854 39.6505 49.4854 72.4775C49.4854 105.304 76.0357 131.916 108.787 131.916Z" fill="#FF4842"/>
<mask id="mask0_1551_39693" style="mask-type:alpha" maskUnits="userSpaceOnUse" x="49" y="13" width="120" height="119">
<path d="M108.787 131.916C141.539 131.916 168.089 105.304 168.089 72.4775C168.089 39.6505 141.539 13.0391 108.787 13.0391C76.0357 13.0391 49.4854 39.6505 49.4854 72.4775C49.4854 105.304 76.0357 131.916 108.787 131.916Z" fill="#666AF6"/>
</mask>
<g mask="url(#mask0_1551_39693)">
<path d="M140.504 45.7656H77.3329C72.0064 45.7656 67.6885 50.0935 67.6885 55.4323V123.582C67.6885 128.921 72.0064 133.249 77.3329 133.249H140.504C145.831 133.249 150.148 128.921 150.148 123.582V55.4323C150.148 50.0935 145.831 45.7656 140.504 45.7656Z" fill="white"/>
<path fill-rule="evenodd" clip-rule="evenodd" d="M86.9463 102.631C86.9463 101.573 87.801 100.715 88.8554 100.715H128.118C129.172 100.715 130.027 101.573 130.027 102.631C130.027 103.689 129.172 104.547 128.118 104.547H88.8554C87.801 104.547 86.9463 103.689 86.9463 102.631ZM93.329 113.34C93.329 112.282 94.1837 111.424 95.2381 111.424H121.76C122.815 111.424 123.669 112.282 123.669 113.34C123.669 114.398 122.815 115.256 121.76 115.256H95.2381C94.1837 115.256 93.329 114.398 93.329 113.34Z" fill="#DFE3E8"/>
<path d="M104.874 64.1211V64.7461H111.124V64.1211C111.124 63.2923 110.795 62.4974 110.209 61.9114C109.623 61.3253 108.828 60.9961 107.999 60.9961C107.17 60.9961 106.375 61.3253 105.789 61.9114C105.203 62.4974 104.874 63.2923 104.874 64.1211ZM102.374 64.7461V64.1211C102.374 62.6293 102.967 61.1985 104.022 60.1436C105.076 59.0887 106.507 58.4961 107.999 58.4961C109.491 58.4961 110.922 59.0887 111.976 60.1436C113.031 61.1985 113.624 62.6293 113.624 64.1211V64.7461H122.999C123.331 64.7461 123.648 64.8778 123.883 65.1122C124.117 65.3466 124.249 65.6646 124.249 65.9961C124.249 66.3276 124.117 66.6456 123.883 66.88C123.648 67.1144 123.331 67.2461 122.999 67.2461H121.114L118.749 87.9561C118.575 89.4813 117.845 90.889 116.699 91.9108C115.553 92.9325 114.072 93.4968 112.537 93.4961H103.462C101.926 93.4968 100.445 92.9325 99.2988 91.9108C98.1531 90.889 97.4234 89.4813 97.249 87.9561L94.884 67.2461H92.999C92.6675 67.2461 92.3496 67.1144 92.1151 66.88C91.8807 66.6456 91.749 66.3276 91.749 65.9961C91.749 65.6646 91.8807 65.3466 92.1151 65.1122C92.3496 64.8778 92.6675 64.7461 92.999 64.7461H102.374ZM105.499 72.8711C105.499 72.5396 105.367 72.2216 105.133 71.9872C104.898 71.7528 104.581 71.6211 104.249 71.6211C103.918 71.6211 103.6 71.7528 103.365 71.9872C103.131 72.2216 102.999 72.5396 102.999 72.8711V85.3711C102.999 85.7026 103.131 86.0206 103.365 86.255C103.6 86.4894 103.918 86.6211 104.249 86.6211C104.581 86.6211 104.898 86.4894 105.133 86.255C105.367 86.0206 105.499 85.7026 105.499 85.3711V72.8711ZM111.749 71.6211C111.418 71.6211 111.1 71.7528 110.865 71.9872C110.631 72.2216 110.499 72.5396 110.499 72.8711V85.3711C110.499 85.7026 110.631 86.0206 110.865 86.255C111.1 86.4894 111.418 86.6211 111.749 86.6211C112.081 86.6211 112.398 86.4894 112.633 86.255C112.867 86.0206 112.999 85.7026 112.999 85.3711V72.8711C112.999 72.5396 112.867 72.2216 112.633 71.9872C112.398 71.7528 112.081 71.6211 111.749 71.6211Z" fill="#FF4842"/>
</g>
</g>
<defs>
<linearGradient id="paint0_linear_1551_39693" x1="99.761" y1="180.598" x2="133.083" y2="-85.0269" gradientUnits="userSpaceOnUse">
<stop stop-color="white"/>
<stop offset="1" stop-color="#EEEEEE"/>
</linearGradient>
<linearGradient id="paint1_linear_1551_39693" x1="67.2751" y1="81.1531" x2="93.7112" y2="-37.3668" gradientUnits="userSpaceOnUse">
<stop stop-color="white"/>
<stop offset="1" stop-color="#EEEEEE"/>
</linearGradient>
<linearGradient id="paint2_linear_1551_39693" x1="52.7546" y1="74.6377" x2="-10.4979" y2="24.7196" gradientUnits="userSpaceOnUse">
<stop stop-color="white"/>
<stop offset="1" stop-color="#EEEEEE"/>
</linearGradient>
<linearGradient id="paint3_linear_1551_39693" x1="178.789" y1="82.6646" x2="212.327" y2="51.575" gradientUnits="userSpaceOnUse">
<stop stop-color="white"/>
<stop offset="1" stop-color="#EEEEEE"/>
</linearGradient>
<clipPath id="clip0_1551_39693">
<rect width="217" height="145" fill="white"/>
</clipPath>
</defs>
</svg>
