<svg width="316" height="211" viewBox="0 0 316 211" fill="none" xmlns="http://www.w3.org/2000/svg">
<g clip-path="url(#clip0_595_103735)">
<path d="M78.2228 130.479C79.1305 153.547 128.305 196.002 181.905 173.536C206.833 163.087 203.408 149.956 221.289 130.545C231.947 118.976 247.929 109.482 251.153 93.8191C253.94 80.2993 250.151 66.4049 242.324 57.8721C224.719 38.682 191.762 27.5071 163.649 62.9944C135.534 98.4818 75.8883 70.985 78.2228 130.479Z" fill="url(#paint0_linear_595_103735)"/>
<path d="M69.0012 68.2767C73.3016 75.9634 82.7194 77.0195 97.8074 75.559C109.155 74.4583 119.502 73.6065 130.85 67.4095C138.793 63.0752 145.081 57.2111 149.67 51.5155C154.642 45.3452 161.584 38.3034 158.181 31.3074C153.505 21.697 126.464 13.6031 100.206 26.8394C71.3614 41.3837 64.7945 60.764 69.0012 68.2767Z" fill="url(#paint1_linear_595_103735)"/>
<path d="M34.0141 91.3347C45.1618 96.8731 59.9577 89.7515 59.9577 89.7515C59.9577 89.7515 56.6695 73.6533 45.5158 68.1223C34.368 62.5835 19.5781 69.6974 19.5781 69.6974C19.5781 69.6974 22.8663 85.796 34.0141 91.3347Z" fill="url(#paint2_linear_595_103735)"/>
<path d="M283.793 108.59C277.737 112.226 269.047 108.865 269.047 108.865C269.047 108.865 270.183 99.6102 276.244 95.9785C282.3 92.343 290.986 95.6996 290.986 95.6996C290.986 95.6996 289.85 104.954 283.793 108.59Z" fill="url(#paint3_linear_595_103735)"/>
<path d="M61.6584 170.482C63.5495 170.482 65.0824 168.947 65.0824 167.052C65.0824 165.158 63.5495 163.623 61.6584 163.623C59.7674 163.623 58.2344 165.158 58.2344 167.052C58.2344 168.947 59.7674 170.482 61.6584 170.482Z" fill="#DFE3E8"/>
<path d="M284.649 146.593C287.38 146.593 289.595 144.375 289.595 141.639C289.595 138.903 287.38 136.686 284.649 136.686C281.917 136.686 279.703 138.903 279.703 141.639C279.703 144.375 281.917 146.593 284.649 146.593Z" fill="#DFE3E8"/>
<path d="M44.217 136.917C46.2958 136.917 47.9809 135.229 47.9809 133.147C47.9809 131.065 46.2958 129.377 44.217 129.377C42.1383 129.377 40.4531 131.065 40.4531 133.147C40.4531 135.229 42.1383 136.917 44.217 136.917Z" fill="#DFE3E8"/>
<path d="M65.2943 37.4533C67.6055 37.4533 69.4792 35.5767 69.4792 33.2618C69.4792 30.9469 67.6055 29.0703 65.2943 29.0703C62.983 29.0703 61.1094 30.9469 61.1094 33.2618C61.1094 35.5767 62.983 37.4533 65.2943 37.4533Z" fill="#DFE3E8"/>
<path d="M294.437 59.7326C294.437 61.8114 296.12 63.4965 298.195 63.4965C300.271 63.4965 301.953 61.8114 301.953 59.7326C301.953 57.6539 300.271 55.9688 298.195 55.9688C296.12 55.9688 294.437 57.6539 294.437 59.7326Z" fill="#DFE3E8"/>
<path d="M188.038 28.4945C190.799 28.4945 193.037 26.2528 193.037 23.4875C193.037 20.7222 190.799 18.4805 188.038 18.4805C185.277 18.4805 183.039 20.7222 183.039 23.4875C183.039 26.2528 185.277 28.4945 188.038 28.4945Z" fill="#DFE3E8"/>
<path d="M57.9238 115.346C60.0478 115.346 61.7696 113.967 61.7696 112.265C61.7696 110.563 60.0478 109.184 57.9238 109.184C55.7999 109.184 54.0781 110.563 54.0781 112.265C54.0781 113.967 55.7999 115.346 57.9238 115.346Z" fill="#DFE3E8"/>
<path d="M256.196 37.3926H256.141C255.817 41.9962 252.398 42.0669 252.398 42.0669C252.398 42.0669 256.168 42.1408 256.168 47.4601C256.168 42.1408 259.937 42.0669 259.937 42.0669C259.937 42.0669 256.52 41.9962 256.196 37.3926ZM261.922 157.896H261.87C261.558 162.485 258.276 162.556 258.276 162.556C258.276 162.556 261.895 162.63 261.895 167.933C261.895 162.63 265.514 162.556 265.514 162.556C265.514 162.556 262.234 162.485 261.922 157.896Z" fill="#DFE3E8"/>
<path d="M157.81 192.18C205.503 192.18 244.166 153.455 244.166 105.686C244.166 57.9177 205.503 19.1934 157.81 19.1934C110.116 19.1934 71.4531 57.9177 71.4531 105.686C71.4531 153.455 110.116 192.18 157.81 192.18Z" fill="#088178"/>
<mask id="mask0_595_103735" style="mask-type:alpha" maskUnits="userSpaceOnUse" x="71" y="19" width="174" height="174">
<path d="M157.81 192.18C205.503 192.18 244.166 153.455 244.166 105.686C244.166 57.9177 205.503 19.1934 157.81 19.1934C110.116 19.1934 71.4531 57.9177 71.4531 105.686C71.4531 153.455 110.116 192.18 157.81 192.18Z" fill="#666AF6"/>
</mask>
<g mask="url(#mask0_595_103735)">
<path d="M203.996 66.8184H112.005C104.249 66.8184 97.9609 73.1162 97.9609 80.885V180.055C97.9609 187.824 104.249 194.122 112.005 194.122H203.996C211.753 194.122 218.041 187.824 218.041 180.055V80.885C218.041 73.1162 211.753 66.8184 203.996 66.8184Z" fill="white"/>
<path fill-rule="evenodd" clip-rule="evenodd" d="M126.617 133.814C126.617 132.274 127.862 131.025 129.397 131.025H186.572C188.107 131.025 189.352 132.274 189.352 133.814C189.352 135.354 188.107 136.602 186.572 136.602H129.397C127.862 136.602 126.617 135.354 126.617 133.814ZM126.617 149.35C126.617 147.809 127.862 146.561 129.397 146.561H186.572C188.107 146.561 189.352 147.809 189.352 149.35C189.352 150.89 188.107 152.138 186.572 152.138H129.397C127.862 152.138 126.617 150.89 126.617 149.35ZM135.912 164.933C135.912 163.392 137.156 162.144 138.692 162.144H177.314C178.849 162.144 180.094 163.392 180.094 164.933C180.094 166.473 178.849 167.721 177.314 167.721H138.692C137.156 167.721 135.912 166.473 135.912 164.933Z" fill="#DFE3E8"/>
<path d="M153.342 87.0397C152.156 88.2292 150.981 88.7814 149.29 88.7814C147.814 88.7814 145.714 88.4942 144.56 89.6611C143.416 90.8187 143.701 92.9166 143.701 94.3878C143.701 96.0837 143.15 97.2624 141.964 98.4519C139.988 100.434 139 101.425 139 102.657C139 103.888 139.988 104.879 141.964 106.862C143.293 108.194 143.701 109.054 143.701 110.926C143.701 112.406 143.414 114.513 144.578 115.67C145.732 116.818 147.823 116.532 149.29 116.532C151.09 116.532 151.957 116.885 153.242 118.174C154.337 119.272 155.803 121.247 157.534 121.247C159.264 121.247 160.731 119.272 161.825 118.174C163.11 116.885 163.977 116.532 165.777 116.532C167.244 116.532 169.336 116.818 170.49 115.67C171.653 114.513 171.367 112.406 171.367 110.926C171.367 109.054 171.775 108.194 173.103 106.862C175.079 104.879 176.067 103.888 176.067 102.657C176.067 101.425 175.079 100.434 173.103 98.4519C171.775 97.1194 171.367 96.259 171.367 94.3878C171.367 92.9072 171.653 90.8006 170.49 89.6435C169.336 88.4955 167.244 88.7814 165.777 88.7814C164.086 88.7814 162.911 88.2289 161.726 87.0397C159.75 85.0575 158.762 84.0664 157.534 84.0664C156.306 84.0664 155.318 85.0575 153.342 87.0397Z" fill="#088178"/>
<path d="M173.103 98.4519C175.079 100.434 176.067 101.425 176.067 102.657C176.067 103.888 175.079 104.879 173.103 106.862C171.775 108.194 171.367 109.054 171.367 110.926C171.367 112.406 171.653 114.513 170.49 115.67C169.336 116.818 167.244 116.532 165.777 116.532C163.977 116.532 163.11 116.885 161.825 118.174C160.731 119.272 159.264 121.247 157.534 121.247C155.803 121.247 154.337 119.272 153.242 118.174C151.957 116.885 151.09 116.532 149.29 116.532C147.823 116.532 145.732 116.818 144.578 115.67C143.414 114.513 143.701 112.406 143.701 110.926C143.701 109.054 143.293 108.194 141.964 106.862C139.988 104.879 139 103.888 139 102.657C139 101.425 139.988 100.434 141.964 98.4519C143.15 97.2624 143.701 96.0837 143.701 94.3878C143.701 92.9166 143.416 90.8187 144.56 89.6611C145.714 88.4942 147.814 88.7814 149.29 88.7814C150.981 88.7814 152.156 88.2292 153.342 87.0397C155.318 85.0575 156.306 84.0664 157.534 84.0664C158.762 84.0664 159.75 85.0575 161.726 87.0397M170.49 115.67H170.507" stroke="#101828" stroke-linecap="round" stroke-linejoin="round"/>
<path d="M150.125 99.5107C150.125 99.5107 154.295 98.9387 157.538 106.375C157.538 106.375 166.914 87.7845 176.072 84.0664" stroke="#101828" stroke-linecap="round" stroke-linejoin="round"/>
</g>
</g>
<defs>
<linearGradient id="paint0_linear_595_103735" x1="144.664" y1="263.015" x2="193.119" y2="-123.524" gradientUnits="userSpaceOnUse">
<stop stop-color="white"/>
<stop offset="1" stop-color="#EEEEEE"/>
</linearGradient>
<linearGradient id="paint1_linear_595_103735" x1="97.9703" y1="118.093" x2="136.414" y2="-54.3853" gradientUnits="userSpaceOnUse">
<stop stop-color="white"/>
<stop offset="1" stop-color="#EEEEEE"/>
</linearGradient>
<linearGradient id="paint2_linear_595_103735" x1="76.8226" y1="108.611" x2="-15.2361" y2="35.9071" gradientUnits="userSpaceOnUse">
<stop stop-color="white"/>
<stop offset="1" stop-color="#EEEEEE"/>
</linearGradient>
<linearGradient id="paint3_linear_595_103735" x1="260.355" y1="120.293" x2="309.161" y2="75.0177" gradientUnits="userSpaceOnUse">
<stop stop-color="white"/>
<stop offset="1" stop-color="#EEEEEE"/>
</linearGradient>
<clipPath id="clip0_595_103735">
<rect width="316" height="211" fill="white"/>
</clipPath>
</defs>
</svg>
