<svg width="22" height="19" viewBox="0 0 22 19" fill="none" xmlns="http://www.w3.org/2000/svg">
<path d="M1.21433 6.59375C0.96579 6.59375 0.738987 6.39229 0.750414 6.12895C0.817328 4.58687 1.00481 3.58298 1.53008 2.78884C1.83228 2.33196 2.20765 1.93459 2.63923 1.61468C3.80575 0.75 5.45139 0.75 8.74266 0.75H12.7574C16.0486 0.75 17.6943 0.75 18.8608 1.61468C19.2924 1.93459 19.6677 2.33196 19.9699 2.78884C20.4952 3.58289 20.6827 4.58665 20.7496 6.12843C20.761 6.39208 20.5339 6.59375 20.2851 6.59375C18.8993 6.59375 17.7759 7.78299 17.7759 9.25C17.7759 10.717 18.8993 11.9062 20.2851 11.9062C20.5339 11.9062 20.761 12.1079 20.7496 12.3716C20.6827 13.9134 20.4952 14.9171 19.9699 15.7112C19.6677 16.168 19.2924 16.5654 18.8608 16.8853C17.6943 17.75 16.0486 17.75 12.7574 17.75H8.74266C5.45139 17.75 3.80575 17.75 2.63923 16.8853C2.20765 16.5654 1.83228 16.168 1.53008 15.7112C1.00481 14.917 0.817328 13.9131 0.750414 12.3711C0.738987 12.1077 0.96579 11.9062 1.21433 11.9062C2.60012 11.9062 3.72352 10.717 3.72352 9.25C3.72352 7.78299 2.60012 6.59375 1.21433 6.59375Z" stroke="white" stroke-width="1.5" stroke-linejoin="round"/>
<path d="M8.25 11.75L13.25 6.75" stroke="white" stroke-width="1.5" stroke-linecap="round" stroke-linejoin="round"/>
<path d="M8.25 6.75H8.26122M13.2388 11.75H13.25" stroke="white" stroke-width="2" stroke-linecap="round" stroke-linejoin="round"/>
</svg>
