<svg width="60" height="60" viewBox="0 0 60 60" fill="none" xmlns="http://www.w3.org/2000/svg">
<g clip-path="url(#clip0_661_52140)">
<mask id="mask0_661_52140" style="mask-type:luminance" maskUnits="userSpaceOnUse" x="6" y="7" width="41" height="49">
<path d="M10.52 7.48882C8.04674 7.48882 6.02344 9.51246 6.02344 11.9856V51.2945C6.02344 53.7678 8.04674 55.7914 10.52 55.7914H42.2714C44.7447 55.7914 46.7681 53.7678 46.7681 51.2945V18.6162C46.7681 17.6412 46.3557 16.7117 45.6327 16.0579L37.1439 8.38017C36.5099 7.80643 35.6849 7.48882 34.8299 7.48882H10.52Z" fill="white"/>
</mask>
<g mask="url(#mask0_661_52140)">
<path d="M34.8298 7.48943H10.5198C8.04689 7.48943 6.02344 9.51288 6.02344 11.9861V51.2952C6.02344 53.7684 8.04689 55.7919 10.5198 55.7919H42.2714C44.7447 55.7919 46.7681 53.7684 46.7681 51.2952V18.6168C46.7681 17.6418 46.3556 16.7123 45.6325 16.0584L37.1439 8.3806C36.5097 7.80703 35.6849 7.48943 34.8298 7.48943Z" fill="#E7E7E8"/>
<mask id="mask1_661_52140" style="mask-type:luminance" maskUnits="userSpaceOnUse" x="36" y="15" width="11" height="10">
<path d="M36.9297 15.4686H46.765V24.0427H36.9297V15.4686Z" fill="white"/>
</mask>
<g mask="url(#mask1_661_52140)">
<g opacity="0.0700073">
<path d="M36.9297 17.2949L46.7652 24.0397V15.467L36.9297 17.2949Z" fill="black"/>
</g>
</g>
<path d="M35.4297 6.83047L48.3269 18.4952H40.0301C37.4893 18.4952 35.4297 16.4356 35.4297 13.895V13.6487V6.83047Z" fill="#D2D3D4"/>
<mask id="mask2_661_52140" style="mask-type:luminance" maskUnits="userSpaceOnUse" x="7" y="8" width="8" height="7">
<path d="M7.53125 8.98921H14.4117V14.2471H7.53125V8.98921Z" fill="white"/>
</mask>
<g mask="url(#mask2_661_52140)">
<g opacity="0.610001">
<path d="M8.33264 14.2257C7.78524 14.1082 7.4364 13.5696 7.55409 13.0217C8.14403 10.2723 10.8608 8.51533 13.6104 9.10528C14.1578 9.22279 14.5065 9.76141 14.389 10.3093C14.2715 10.8572 13.7323 11.2052 13.1849 11.0879C11.5287 10.7324 9.89193 11.7908 9.53651 13.4472C9.41916 13.9951 8.88004 14.3431 8.33264 14.2257Z" fill="white"/>
</g>
</g>
<mask id="mask3_661_52140" style="mask-type:luminance" maskUnits="userSpaceOnUse" x="-6" y="-5" width="38" height="38">
<path d="M-5.99219 -4.70308H31.615V32.9041H-5.99219V-4.70308Z" fill="white"/>
</mask>
<g mask="url(#mask3_661_52140)">
<g opacity="0.649994">
<path d="M31.6142 14.1008C31.6142 24.4856 23.1958 32.9039 12.8111 32.9039C2.42634 32.9039 -5.99219 24.4856 -5.99219 14.1008C-5.99219 3.71609 2.42634 -4.70243 12.8111 -4.70243C23.1958 -4.70243 31.6142 3.71609 31.6142 14.1008Z" fill="white"/>
</g>
</g>
</g>
<mask id="mask4_661_52140" style="mask-type:luminance" maskUnits="userSpaceOnUse" x="-505" y="-390" width="607" height="782">
<path d="M-504.848 -389.85H101.32V391.75H-504.848V-389.85Z" fill="white"/>
</mask>
<g mask="url(#mask4_661_52140)">
<mask id="mask5_661_52140" style="mask-type:luminance" maskUnits="userSpaceOnUse" x="11" y="24" width="31" height="21">
<path d="M11.4844 24.0456H41.0106V44.3444H11.4844V24.0456Z" fill="white"/>
</mask>
<g mask="url(#mask5_661_52140)">
<g opacity="0.270004">
<path d="M39.4445 27.3424H13.0514C12.1895 27.3424 11.4844 26.6373 11.4844 25.7755V25.6138C11.4844 24.7518 12.1895 24.0467 13.0514 24.0467H39.4445C40.3063 24.0467 41.0112 24.7518 41.0112 25.6138V25.7755C41.0112 26.6373 40.3063 27.3424 39.4445 27.3424Z" fill="#323139"/>
<path d="M39.4445 35.8412H13.0514C12.1895 35.8412 11.4844 35.1361 11.4844 34.2745V34.1125C11.4844 33.2507 12.1895 32.5456 13.0514 32.5456H39.4445C40.3063 32.5456 41.0112 33.2507 41.0112 34.1125V34.2745C41.0112 35.1361 40.3063 35.8412 39.4445 35.8412Z" fill="#323139"/>
<path d="M39.4445 44.346H13.0514C12.1895 44.346 11.4844 43.6409 11.4844 42.7793V42.6174C11.4844 41.7556 12.1895 41.0505 13.0514 41.0505H39.4445C40.3063 41.0505 41.0112 41.7556 41.0112 42.6174V42.7793C41.0112 43.6409 40.3063 44.346 39.4445 44.346Z" fill="#323139"/>
</g>
</g>
</g>
<mask id="mask6_661_52140" style="mask-type:luminance" maskUnits="userSpaceOnUse" x="15" y="3" width="41" height="50">
<path d="M19.5045 3.73992C17.0315 3.73992 15.0078 5.76335 15.0078 8.23662V47.5456C15.0078 50.0187 17.0315 52.0422 19.5045 52.0422H51.2562C53.7292 52.0422 55.7527 50.0187 55.7527 47.5456V14.8672C55.7527 13.8921 55.3402 12.9628 54.6172 12.3087L46.1283 4.63107C45.4944 4.0575 44.6696 3.73992 43.8142 3.73992H19.5045Z" fill="white"/>
</mask>
<g mask="url(#mask6_661_52140)">
<path d="M43.8142 3.74132H19.5044C17.0313 3.74132 15.0078 5.76477 15.0078 8.23804V47.547C15.0078 50.0203 17.0313 52.0438 19.5044 52.0438H51.2558C53.7291 52.0438 55.7525 50.0203 55.7525 47.547V14.8686C55.7525 13.8937 55.34 12.9642 54.6168 12.3103L46.1283 4.6325C45.4941 4.05892 44.6693 3.74132 43.8142 3.74132Z" fill="#F2F2F2"/>
<mask id="mask7_661_52140" style="mask-type:luminance" maskUnits="userSpaceOnUse" x="45" y="11" width="11" height="10">
<path d="M45.918 11.7201H55.7533V20.2925H45.918V11.7201Z" fill="white"/>
</mask>
<g mask="url(#mask7_661_52140)">
<g opacity="0.0700073">
<path d="M45.918 13.5479L55.7533 20.2928V11.72L45.918 13.5479Z" fill="black"/>
</g>
</g>
<path d="M44.418 3.08261L57.3151 14.7474H49.0184C46.4776 14.7474 44.418 12.6878 44.418 10.1472V9.9008V3.08261Z" fill="#E7E7E8"/>
<mask id="mask8_661_52140" style="mask-type:luminance" maskUnits="userSpaceOnUse" x="16" y="5" width="8" height="6">
<path d="M16.5195 5.24077H23.4V10.4969H16.5195V5.24077Z" fill="white"/>
</mask>
<g mask="url(#mask8_661_52140)">
<g opacity="0.610001">
<path d="M17.3209 10.4694C16.7735 10.3519 16.4247 9.81329 16.5424 9.26539C17.1323 6.51606 19.8491 4.75904 22.5989 5.34899C23.1461 5.46651 23.4948 6.00513 23.3773 6.55303C23.2598 7.10094 22.7206 7.44893 22.1732 7.33159C20.517 6.97616 18.8802 8.03449 18.525 9.69088C18.4074 10.2388 17.8683 10.5868 17.3209 10.4694Z" fill="white"/>
</g>
</g>
<mask id="mask9_661_52140" style="mask-type:luminance" maskUnits="userSpaceOnUse" x="2" y="-9" width="39" height="39">
<path d="M2.99609 -8.44563H40.6016V29.1616H2.99609V-8.44563Z" fill="white"/>
</mask>
<g mask="url(#mask9_661_52140)">
<g opacity="0.639999">
<path d="M40.6025 10.3583C40.6025 20.7431 32.1841 29.1614 21.7994 29.1614C11.4146 29.1614 2.99609 20.7431 2.99609 10.3583C2.99609 -0.0263977 11.4146 -8.44492 21.7994 -8.44492C32.1841 -8.44492 40.6025 -0.0263977 40.6025 10.3583Z" fill="white"/>
</g>
</g>
</g>
<mask id="mask10_661_52140" style="mask-type:luminance" maskUnits="userSpaceOnUse" x="20" y="20" width="30" height="21">
<path d="M20.4648 20.2861H49.9928V40.5865H20.4648V20.2861Z" fill="white"/>
</mask>
<g mask="url(#mask10_661_52140)">
<g opacity="0.520004">
<path d="M48.4248 23.5812H22.0317C21.1699 23.5812 20.4648 22.8761 20.4648 22.0143V21.8526C20.4648 20.9906 21.1699 20.2857 22.0317 20.2857H48.4248C49.2866 20.2857 49.9915 20.9906 49.9915 21.8526V22.0143C49.9915 22.8761 49.2866 23.5812 48.4248 23.5812Z" fill="black"/>
<path d="M48.4248 32.0839H22.0317C21.1699 32.0839 20.4648 31.379 20.4648 30.5172V30.3554C20.4648 29.4935 21.1699 28.7884 22.0317 28.7884H48.4248C49.2866 28.7884 49.9915 29.4935 49.9915 30.3554V30.5172C49.9915 31.379 49.2866 32.0839 48.4248 32.0839Z" fill="black"/>
<path d="M48.4248 40.5848H22.0317C21.1699 40.5848 20.4648 39.8797 20.4648 39.0181V38.8562C20.4648 37.9944 21.1699 37.2893 22.0317 37.2893H48.4248C49.2866 37.2893 49.9915 37.9944 49.9915 38.8562V39.0181C49.9915 39.8797 49.2866 40.5848 48.4248 40.5848Z" fill="black"/>
</g>
</g>
</g>
<defs>
<clipPath id="clip0_661_52140">
<rect width="60" height="60" fill="white"/>
</clipPath>
</defs>
</svg>
