<svg width="32" height="32" viewBox="0 0 32 32" fill="none" xmlns="http://www.w3.org/2000/svg">
<rect width="32" height="32" rx="16" fill="#F97316" fill-opacity="0.1"/>
<path d="M23.2993 20.4997L17.2993 9.99968C17.1685 9.76883 16.9787 9.57682 16.7495 9.44323C16.5202 9.30964 16.2596 9.23926 15.9943 9.23926C15.7289 9.23926 15.4683 9.30964 15.2391 9.44323C15.0098 9.57682 14.8201 9.76883 14.6893 9.99968L8.68928 20.4997C8.55704 20.7287 8.4877 20.9886 8.48828 21.2531C8.48887 21.5175 8.55936 21.7771 8.69261 22.0055C8.82586 22.234 9.01714 22.4231 9.24705 22.5538C9.47696 22.6845 9.73733 22.7521 10.0018 22.7497H22.0018C22.265 22.7494 22.5234 22.6799 22.7512 22.5481C22.9791 22.4164 23.1682 22.227 23.2997 21.999C23.4311 21.771 23.5003 21.5125 23.5002 21.2493C23.5002 20.9861 23.4309 20.7276 23.2993 20.4997Z" stroke="#F97316" stroke-width="1.5" stroke-linecap="round" stroke-linejoin="round"/>
<path d="M16 13.75V16.75" stroke="#F97316" stroke-width="1.5" stroke-linecap="round" stroke-linejoin="round"/>
<path d="M16 19.75H16.0075" stroke="#F97316" stroke-width="1.5" stroke-linecap="round" stroke-linejoin="round"/>
</svg>
