<svg width="217" height="145" viewBox="0 0 217 145" fill="none" xmlns="http://www.w3.org/2000/svg">
<g clip-path="url(#clip0_595_103232)">
<path d="M53.7176 89.6655C54.3409 105.518 88.1095 134.693 124.917 119.254C142.036 112.074 139.683 103.05 151.962 89.7109C159.281 81.7603 170.256 75.2363 172.471 64.4724C174.384 55.1816 171.782 45.6333 166.407 39.7695C154.318 26.582 131.686 18.9026 112.38 43.2896C93.0739 67.6767 52.1145 48.7808 53.7176 89.6655Z" fill="url(#paint0_linear_595_103232)"/>
<path d="M47.3808 46.9188C50.3339 52.2012 56.8012 52.9269 67.1622 51.9232C74.9545 51.1668 82.0603 50.5815 89.8532 46.3229C95.3076 43.3443 99.6252 39.3145 102.777 35.4005C106.191 31.1602 110.958 26.3211 108.621 21.5134C105.41 14.9091 86.8408 9.34689 68.8093 18.443C49.0015 28.4378 44.492 41.7561 47.3808 46.9188Z" fill="url(#paint1_linear_595_103232)"/>
<path d="M23.3586 62.7654C31.0139 66.5714 41.1743 61.6774 41.1743 61.6774C41.1743 61.6774 38.9163 50.6146 31.2569 46.8137C23.6016 43.0074 13.4453 47.8961 13.4453 47.8961C13.4453 47.8961 15.7033 58.9591 23.3586 62.7654Z" fill="url(#paint2_linear_595_103232)"/>
<path d="M194.884 74.6239C190.725 77.1225 184.758 74.8126 184.758 74.8126C184.758 74.8126 185.538 68.453 189.7 65.9573C193.859 63.4589 199.824 65.7656 199.824 65.7656C199.824 65.7656 199.043 72.1253 194.884 74.6239Z" fill="url(#paint3_linear_595_103232)"/>
<path d="M42.3435 117.155C43.6421 117.155 44.6948 116.1 44.6948 114.798C44.6948 113.497 43.6421 112.441 42.3435 112.441C41.0449 112.441 39.9922 113.497 39.9922 114.798C39.9922 116.1 41.0449 117.155 42.3435 117.155Z" fill="#DFE3E8"/>
<path d="M195.474 100.738C197.35 100.738 198.871 99.2138 198.871 97.3338C198.871 95.4538 197.35 93.9297 195.474 93.9297C193.599 93.9297 192.078 95.4538 192.078 97.3338C192.078 99.2138 193.599 100.738 195.474 100.738Z" fill="#DFE3E8"/>
<path d="M30.366 94.0895C31.7935 94.0895 32.9507 92.9297 32.9507 91.4989C32.9507 90.0681 31.7935 88.9082 30.366 88.9082C28.9385 88.9082 27.7812 90.0681 27.7812 91.4989C27.7812 92.9297 28.9385 94.0895 30.366 94.0895Z" fill="#DFE3E8"/>
<path d="M44.8347 25.7374C46.4219 25.7374 47.7085 24.4478 47.7085 22.857C47.7085 21.2662 46.4219 19.9766 44.8347 19.9766C43.2476 19.9766 41.9609 21.2662 41.9609 22.857C41.9609 24.4478 43.2476 25.7374 44.8347 25.7374Z" fill="#DFE3E8"/>
<path d="M202.198 41.0494C202.198 42.478 203.354 43.636 204.779 43.636C206.204 43.636 207.359 42.478 207.359 41.0494C207.359 39.6209 206.204 38.4629 204.779 38.4629C203.354 38.4629 202.198 39.6209 202.198 41.0494Z" fill="#DFE3E8"/>
<path d="M129.128 19.5829C131.024 19.5829 132.561 18.0424 132.561 16.142C132.561 14.2417 131.024 12.7012 129.128 12.7012C127.232 12.7012 125.695 14.2417 125.695 16.142C125.695 18.0424 127.232 19.5829 129.128 19.5829Z" fill="#DFE3E8"/>
<path d="M39.7737 79.2662C41.2322 79.2662 42.4146 78.3182 42.4146 77.1487C42.4146 75.9793 41.2322 75.0312 39.7737 75.0312C38.3152 75.0312 37.1328 75.9793 37.1328 77.1487C37.1328 78.3182 38.3152 79.2662 39.7737 79.2662Z" fill="#DFE3E8"/>
<path d="M175.936 25.6973H175.898C175.675 28.8609 173.328 28.9095 173.328 28.9095C173.328 28.9095 175.916 28.9603 175.916 32.6157C175.916 28.9603 178.505 28.9095 178.505 28.9095C178.505 28.9095 176.159 28.8609 175.936 25.6973ZM179.868 108.507H179.832C179.618 111.661 177.365 111.71 177.365 111.71C177.365 111.71 179.85 111.761 179.85 115.405C179.85 111.761 182.335 111.71 182.335 111.71C182.335 111.71 180.082 111.661 179.868 108.507Z" fill="#DFE3E8"/>
<path d="M108.372 132.066C141.124 132.066 167.674 105.455 167.674 72.6279C167.674 39.8009 141.124 13.1895 108.372 13.1895C75.6206 13.1895 49.0703 39.8009 49.0703 72.6279C49.0703 105.455 75.6206 132.066 108.372 132.066Z" fill="#FFC107"/>
<mask id="mask0_595_103232" style="mask-type:alpha" maskUnits="userSpaceOnUse" x="49" y="13" width="119" height="120">
<path d="M108.372 132.066C141.124 132.066 167.674 105.455 167.674 72.6279C167.674 39.8009 141.124 13.1895 108.372 13.1895C75.6206 13.1895 49.0703 39.8009 49.0703 72.6279C49.0703 105.455 75.6206 132.066 108.372 132.066Z" fill="#666AF6"/>
</mask>
<g mask="url(#mask0_595_103232)">
<path d="M140.089 45.916H76.9179C71.5914 45.916 67.2734 50.2439 67.2734 55.5827V123.733C67.2734 129.071 71.5914 133.399 76.9179 133.399H140.089C145.415 133.399 149.733 129.071 149.733 123.733V55.5827C149.733 50.2439 145.415 45.916 140.089 45.916Z" fill="white"/>
<path fill-rule="evenodd" clip-rule="evenodd" d="M86.9531 102.633C86.9531 101.575 87.8079 100.717 88.8622 100.717H128.125C129.179 100.717 130.034 101.575 130.034 102.633C130.034 103.691 129.179 104.549 128.125 104.549H88.8622C87.8079 104.549 86.9531 103.691 86.9531 102.633ZM93.3358 113.342C93.3358 112.283 94.1905 111.426 95.2449 111.426H121.767C122.821 111.426 123.676 112.283 123.676 113.342C123.676 114.4 122.821 115.258 121.767 115.258H95.2449C94.1905 115.258 93.3358 114.4 93.3358 113.342Z" fill="#DFE3E8"/>
<path d="M96.8721 72.1376C100.895 65.0193 102.906 61.4602 105.666 60.544C107.185 60.04 108.82 60.04 110.339 60.544C113.099 61.4602 115.11 65.0193 119.133 72.1376C123.156 79.2558 125.167 82.8149 124.564 85.7149C124.232 87.3103 123.414 88.7575 122.228 89.8488C120.071 91.8327 116.048 91.8327 108.003 91.8327C99.957 91.8327 95.9342 91.8327 93.7775 89.8488C92.5911 88.7575 91.7733 87.3103 91.4413 85.7149C90.8379 82.8149 92.8493 79.2558 96.8721 72.1376Z" fill="#FFC107"/>
<path d="M96.8721 72.1376C100.895 65.0193 102.906 61.4602 105.666 60.544C107.185 60.04 108.82 60.04 110.339 60.544C113.099 61.4602 115.11 65.0193 119.133 72.1376C123.156 79.2558 125.167 82.8149 124.564 85.7149C124.232 87.3103 123.414 88.7575 122.228 89.8488C120.071 91.8327 116.048 91.8327 108.003 91.8327C99.957 91.8327 95.9342 91.8327 93.7775 89.8488C92.5911 88.7575 91.7733 87.3103 91.4413 85.7149C90.8379 82.8149 92.8493 79.2558 96.8721 72.1376Z" stroke="#212B36"/>
<path d="M107.992 82.666H108.007" stroke="#212B36" stroke-linecap="round" stroke-linejoin="round"/>
<path d="M108 77.666L108 70.9993" stroke="#212B36" stroke-linecap="round" stroke-linejoin="round"/>
</g>
</g>
<defs>
<linearGradient id="paint0_linear_595_103232" x1="99.3431" y1="180.745" x2="132.665" y2="-84.8804" gradientUnits="userSpaceOnUse">
<stop stop-color="white"/>
<stop offset="1" stop-color="#EEEEEE"/>
</linearGradient>
<linearGradient id="paint1_linear_595_103232" x1="67.2741" y1="81.1531" x2="93.7102" y2="-37.3668" gradientUnits="userSpaceOnUse">
<stop stop-color="white"/>
<stop offset="1" stop-color="#EEEEEE"/>
</linearGradient>
<linearGradient id="paint2_linear_595_103232" x1="52.7556" y1="74.6377" x2="-10.4969" y2="24.7196" gradientUnits="userSpaceOnUse">
<stop stop-color="white"/>
<stop offset="1" stop-color="#EEEEEE"/>
</linearGradient>
<linearGradient id="paint3_linear_595_103232" x1="178.789" y1="82.6666" x2="212.327" y2="51.577" gradientUnits="userSpaceOnUse">
<stop stop-color="white"/>
<stop offset="1" stop-color="#EEEEEE"/>
</linearGradient>
<clipPath id="clip0_595_103232">
<rect width="217" height="145" fill="white"/>
</clipPath>
</defs>
</svg>
