<svg width="40" height="43" viewBox="0 0 40 43" fill="none" xmlns="http://www.w3.org/2000/svg">
<path d="M23.0929 36.4734C22.8742 36.3961 22.7726 36.1553 22.8515 35.9411C22.9168 35.8152 23.9172 32.8901 26.4404 31.7694C26.9319 31.5705 27.3716 31.409 27.8362 31.3869C26.8844 30.9762 25.9461 30.4773 25.0596 29.9407C24.8906 30.1418 24.4623 30.5308 23.9436 30.9065C23.0621 31.5451 21.7543 32.2568 20.232 32.2594C17.4582 32.3044 15.2158 30.0785 15.1392 29.9769C15.0241 29.8245 14.9744 29.5462 15.13 29.4335C15.2337 29.3583 17.3393 27.0471 20.0748 26.9512C20.5394 26.929 21.0806 27.0084 21.4798 27.1121C21.0444 26.6417 20.609 26.1713 20.1872 25.6126L19.6502 24.9014C19.0031 25.2131 16.5069 26.1571 14.2424 25.283C11.6689 24.3185 10.4502 21.4294 10.4254 21.2903C10.3622 21.1003 10.441 20.886 10.5966 20.7733C10.7003 20.6982 13.5865 19.3145 16.1599 20.2791C16.6358 20.4843 17.0599 20.7272 17.4321 21.0076C17.1026 20.1462 16.7866 19.1964 16.5992 18.3107C15.9023 18.344 13.2321 18.3139 11.45 16.6974C9.42431 14.8646 9.44588 11.7057 9.45939 11.6173C9.44804 11.3898 9.65546 11.2395 9.84941 11.1776C9.99146 11.1533 13.205 10.9469 15.1789 12.8173C15.5376 13.1861 15.8579 13.5041 16.1129 13.948C16.1328 12.912 16.1528 11.876 16.3532 10.8664C15.6586 10.5838 13.2791 9.55739 12.3131 7.4282C11.169 4.95667 12.44 2.07134 12.5054 1.9454C12.5842 1.7311 12.83 1.63162 13.0488 1.70888C13.1774 1.7729 16.1636 2.7528 17.3077 5.22433C17.9937 6.77043 17.7756 8.50014 17.5233 9.54729C17.5233 9.54729 17.4715 9.58486 17.5098 9.63565C16.2079 15.1364 17.4592 20.8309 20.9515 25.1374C25.1342 30.3583 31.9796 32.943 38.8372 31.8253C39.0694 31.8142 39.2747 31.9798 39.3379 32.1698C39.3628 32.3089 39.3357 32.4857 39.1802 32.5984C39.1283 32.6359 39.0765 32.6735 38.9863 32.6603C36.6748 32.999 34.4174 32.9841 32.214 32.6159C31.9909 33.1705 31.2179 34.9092 29.6622 36.0362C29.351 36.2617 29.0534 36.3987 28.7038 36.5733C26.1806 37.694 23.2215 36.5374 23.0929 36.4734Z" fill="#B4C0D3"/>
</svg>
